M48
; DRILL file {KiCad 8.0.2} date 2024-05-27T09:18:35-0400
; FORMAT={-:-/ absolute / inch / decimal}
; #@! TF.CreationDate,2024-05-27T09:18:35-04:00
; #@! TF.GenerationSoftware,Kicad,Pcbnew,8.0.2
; #@! TF.FileFunction,Plated,1,2,PTH
FMAT,2
INCH
; #@! TA.AperFunction,Plated,PTH,ComponentDrill
T1C0.0236
; #@! TA.AperFunction,Plated,PTH,ComponentDrill
T2C0.0300
; #@! TA.AperFunction,Plated,PTH,ComponentDrill
T3C0.0315
; #@! TA.AperFunction,Plated,PTH,ComponentDrill
T4C0.0335
; #@! TA.AperFunction,Plated,PTH,ComponentDrill
T5C0.0394
; #@! TA.AperFunction,Plated,PTH,ComponentDrill
T6C0.0402
; #@! TA.AperFunction,Plated,PTH,ComponentDrill
T7C0.0449
%
G90
G05
T1
X13.9961Y-6.2008
X13.9961Y-6.2795
T2
X13.8268Y-6.7126
X13.8268Y-6.7913
X13.8268Y-6.8701
X13.8268Y-6.9488
T4
X14.3307Y-6.378
X14.3307Y-6.5157
X14.3307Y-6.6535
X14.3307Y-6.7913
X14.3307Y-6.9252
X14.7244Y-6.378
X14.7244Y-6.5157
X14.7244Y-6.6535
X14.7244Y-6.7913
X14.7244Y-6.9252
T5
X12.1654Y-6.6929
X12.4016Y-6.4409
X12.4016Y-6.7441
X12.4016Y-6.9409
X12.4016Y-7.2402
X12.4016Y-7.4409
X12.4764Y-7.0433
X12.4803Y-6.5433
X12.4803Y-6.8386
X12.4803Y-7.3425
X12.874Y-8.0709
X13.0709Y-8.0709
X13.2677Y-8.0709
X13.622Y-6.0354
X13.6614Y-6.2362
X13.6614Y-6.437
X13.6614Y-6.5394
X13.6614Y-6.937
X13.6614Y-7.0394
X13.8386Y-8.376
X13.8386Y-8.476
X13.8386Y-8.576
X13.8386Y-8.676
X13.8386Y-8.776
X13.8386Y-8.876
X13.8425Y-8.0472
X14.1339Y-5.9843
X14.2126Y-6.2362
X14.3622Y-6.2402
X14.5Y-7.3622
X14.6Y-7.3622
X14.7Y-7.3622
X14.8Y-7.3622
X14.9Y-7.3622
X15.0Y-7.3622
T6
X12.7209Y-5.9398
X12.7209Y-6.0398
X12.7209Y-6.1398
X12.7209Y-6.2398
X12.7209Y-6.3398
X12.7209Y-6.4398
X12.7209Y-6.5398
X12.7209Y-6.6398
X12.7209Y-6.7398
X12.7209Y-6.8398
X12.7209Y-6.9398
X12.7209Y-7.0398
X12.7209Y-7.1398
X12.7209Y-7.2398
X12.7209Y-7.3398
X12.7209Y-7.4398
X12.7209Y-7.5398
X12.7209Y-7.6398
X12.7209Y-7.7398
X12.7209Y-7.8398
X12.9709Y-7.8307
X13.0709Y-7.8307
X13.1709Y-7.8307
X13.4209Y-5.9398
X13.4209Y-6.0398
X13.4209Y-6.1398
X13.4209Y-6.2398
X13.4209Y-6.3398
X13.4209Y-6.4398
X13.4209Y-6.5398
X13.4209Y-6.6398
X13.4209Y-6.7398
X13.4209Y-6.8398
X13.4209Y-6.9398
X13.4209Y-7.0398
X13.4209Y-7.1398
X13.4209Y-7.2398
X13.4209Y-7.3398
X13.4209Y-7.4398
X13.4209Y-7.5398
X13.4209Y-7.6398
X13.4209Y-7.7398
X13.4209Y-7.8398
T7
X15.0984Y-6.352
X15.0984Y-6.452
X15.0984Y-6.552
X15.0984Y-6.652
X15.0984Y-6.752
X15.1984Y-6.352
X15.1984Y-6.452
X15.1984Y-6.552
X15.1984Y-6.652
X15.1984Y-6.752
T3
G00X12.3622Y-8.8051
M15
G01X12.3622Y-8.7776
M16
G05
G00X12.5453Y-8.9882
M15
G01X12.5728Y-8.9882
M16
G05
G00X12.6575Y-8.8051
M15
G01X12.6575Y-8.7776
M16
G05
G00X12.7559Y-8.8051
M15
G01X12.7559Y-8.7776
M16
G05
M30
