%TF.GenerationSoftware,KiCad,Pcbnew,8.0.2*%
%TF.CreationDate,2024-05-27T09:17:52-04:00*%
%TF.ProjectId,GlassBreaker_KiCAD,476c6173-7342-4726-9561-6b65725f4b69,rev?*%
%TF.SameCoordinates,Original*%
%TF.FileFunction,Legend,Bot*%
%TF.FilePolarity,Positive*%
%FSLAX46Y46*%
G04 Gerber Fmt 4.6, Leading zero omitted, Abs format (unit mm)*
G04 Created by KiCad (PCBNEW 8.0.2) date 2024-05-27 09:17:52*
%MOMM*%
%LPD*%
G01*
G04 APERTURE LIST*
%ADD10C,0.150000*%
%ADD11C,0.152400*%
G04 APERTURE END LIST*
D10*
X351654819Y-172166665D02*
X351178628Y-171833332D01*
X351654819Y-171595237D02*
X350654819Y-171595237D01*
X350654819Y-171595237D02*
X350654819Y-171976189D01*
X350654819Y-171976189D02*
X350702438Y-172071427D01*
X350702438Y-172071427D02*
X350750057Y-172119046D01*
X350750057Y-172119046D02*
X350845295Y-172166665D01*
X350845295Y-172166665D02*
X350988152Y-172166665D01*
X350988152Y-172166665D02*
X351083390Y-172119046D01*
X351083390Y-172119046D02*
X351131009Y-172071427D01*
X351131009Y-172071427D02*
X351178628Y-171976189D01*
X351178628Y-171976189D02*
X351178628Y-171595237D01*
X351131009Y-172595237D02*
X351131009Y-172928570D01*
X351654819Y-173071427D02*
X351654819Y-172595237D01*
X351654819Y-172595237D02*
X350654819Y-172595237D01*
X350654819Y-172595237D02*
X350654819Y-173071427D01*
X351131009Y-173833332D02*
X351131009Y-173499999D01*
X351654819Y-173499999D02*
X350654819Y-173499999D01*
X350654819Y-173499999D02*
X350654819Y-173976189D01*
X350654819Y-174499999D02*
X350892914Y-174499999D01*
X350797676Y-174261904D02*
X350892914Y-174499999D01*
X350892914Y-174499999D02*
X350797676Y-174738094D01*
X351083390Y-174357142D02*
X350892914Y-174499999D01*
X350892914Y-174499999D02*
X351083390Y-174642856D01*
X350654819Y-175261904D02*
X350892914Y-175261904D01*
X350797676Y-175023809D02*
X350892914Y-175261904D01*
X350892914Y-175261904D02*
X350797676Y-175499999D01*
X351083390Y-175119047D02*
X350892914Y-175261904D01*
X350892914Y-175261904D02*
X351083390Y-175404761D01*
D11*
%TO.C,REF\u002A\u002A*%
X349723000Y-168419999D02*
X357571600Y-168419999D01*
X349723000Y-178579999D02*
X349723000Y-168419999D01*
X357571600Y-168419999D02*
X357571600Y-178579999D01*
X357571600Y-178579999D02*
X349723000Y-178579999D01*
%TD*%
M02*
