%TF.GenerationSoftware,KiCad,Pcbnew,8.0.2*%
%TF.CreationDate,2024-05-27T09:17:52-04:00*%
%TF.ProjectId,GlassBreaker_KiCAD,476c6173-7342-4726-9561-6b65725f4b69,rev?*%
%TF.SameCoordinates,Original*%
%TF.FileFunction,Copper,L2,Bot*%
%TF.FilePolarity,Positive*%
%FSLAX46Y46*%
G04 Gerber Fmt 4.6, Leading zero omitted, Abs format (unit mm)*
G04 Created by KiCad (PCBNEW 8.0.2) date 2024-05-27 09:17:52*
%MOMM*%
%LPD*%
G01*
G04 APERTURE LIST*
%TA.AperFunction,ComponentPad*%
%ADD10C,1.700000*%
%TD*%
%TA.AperFunction,ComponentPad*%
%ADD11R,1.700000X1.700000*%
%TD*%
%TA.AperFunction,ComponentPad*%
%ADD12O,1.700000X1.700000*%
%TD*%
%TA.AperFunction,ComponentPad*%
%ADD13C,1.524000*%
%TD*%
%TA.AperFunction,ComponentPad*%
%ADD14C,1.200000*%
%TD*%
%TA.AperFunction,ComponentPad*%
%ADD15R,1.490000X1.490000*%
%TD*%
%TA.AperFunction,ComponentPad*%
%ADD16C,1.490000*%
%TD*%
%TA.AperFunction,ComponentPad*%
%ADD17O,2.616000X1.308000*%
%TD*%
%TA.AperFunction,ComponentPad*%
%ADD18O,1.308000X2.616000*%
%TD*%
%TA.AperFunction,ComponentPad*%
%ADD19C,1.270000*%
%TD*%
%TA.AperFunction,Conductor*%
%ADD20C,0.400000*%
%TD*%
%TA.AperFunction,Conductor*%
%ADD21C,0.500000*%
%TD*%
%TA.AperFunction,Conductor*%
%ADD22C,0.250000*%
%TD*%
G04 APERTURE END LIST*
D10*
%TO.P,,1*%
%TO.N,VCC*%
X364800000Y-158500000D03*
%TD*%
%TO.P,,1*%
%TO.N,VCC*%
X361000000Y-158400000D03*
%TD*%
%TO.P,,1*%
%TO.N,N/C*%
X315000000Y-163600000D03*
%TD*%
D11*
%TO.P,REF\u002A\u002A,1*%
%TO.N,GND*%
X351500000Y-212750000D03*
D12*
%TO.P,REF\u002A\u002A,2*%
%TO.N,VCC*%
X351500000Y-215290000D03*
%TO.P,REF\u002A\u002A,3*%
%TO.N,N/C*%
X351500000Y-217830000D03*
%TO.P,REF\u002A\u002A,4*%
X351500000Y-220370000D03*
%TO.P,REF\u002A\u002A,5*%
X351500000Y-222910000D03*
%TO.P,REF\u002A\u002A,6*%
X351500000Y-225450000D03*
%TD*%
D13*
%TO.P,REF\u002A\u002A,1*%
%TO.N,N/C*%
X374000000Y-162000000D03*
%TO.P,REF\u002A\u002A,2*%
X364000000Y-162000000D03*
%TD*%
D10*
%TO.P,,1*%
%TO.N,N/C*%
X315000000Y-183900000D03*
%TD*%
%TO.P,,1*%
%TO.N,N/C*%
X316900000Y-178900000D03*
%TD*%
%TO.P,REF\u002A\u002A,1*%
%TO.N,N/C*%
X347000000Y-178800000D03*
%TD*%
%TO.P,,1*%
%TO.N,N/C*%
X315000000Y-171300000D03*
%TD*%
%TO.P,,1*%
%TO.N,N/C*%
X337000000Y-205000000D03*
%TD*%
%TO.P,,1*%
%TO.N,N/C*%
X309000000Y-170000000D03*
%TD*%
%TO.P,,1*%
%TO.N,N/C*%
X315000000Y-189000000D03*
%TD*%
%TO.P,,1*%
%TO.N,N/C*%
X347000000Y-166100000D03*
%TD*%
%TO.P,,1*%
%TO.N,N/C*%
X317000000Y-166200000D03*
%TD*%
D11*
%TO.P,REF\u002A\u002A,1*%
%TO.N,GND*%
X381000000Y-187000000D03*
D12*
%TO.P,REF\u002A\u002A,2*%
%TO.N,VCC*%
X378460000Y-187000000D03*
%TO.P,REF\u002A\u002A,3*%
%TO.N,N/C*%
X375920000Y-187000000D03*
%TO.P,REF\u002A\u002A,4*%
X373380000Y-187000000D03*
%TO.P,REF\u002A\u002A,5*%
X370840000Y-187000000D03*
%TO.P,REF\u002A\u002A,6*%
X368300000Y-187000000D03*
%TD*%
D10*
%TO.P,,1*%
%TO.N,N/C*%
X327000000Y-205000000D03*
%TD*%
D14*
%TO.P,REF\u002A\u002A,1*%
%TO.N,VCC*%
X355500000Y-159500000D03*
%TO.P,REF\u002A\u002A,2*%
%TO.N,GND*%
X355500000Y-157500000D03*
%TD*%
D10*
%TO.P,,1*%
%TO.N,N/C*%
X359000000Y-152000000D03*
%TD*%
%TO.P,,1*%
%TO.N,N/C*%
X332000000Y-205000000D03*
%TD*%
%TO.P,,1*%
%TO.N,VCC*%
X351600000Y-204400000D03*
%TD*%
D13*
%TO.P,REF\u002A\u002A,1*%
%TO.N,N/C*%
X374000000Y-172500000D03*
%TO.P,REF\u002A\u002A,2*%
X364000000Y-172500000D03*
%TD*%
D10*
%TO.P,,1*%
%TO.N,N/C*%
X317000000Y-173700000D03*
%TD*%
D15*
%TO.P,REF\u002A\u002A,1*%
%TO.N,GND*%
X386040000Y-171500000D03*
D16*
%TO.P,REF\u002A\u002A,2*%
%TO.N,N/C*%
X383500000Y-171500000D03*
%TO.P,REF\u002A\u002A,3*%
X386040000Y-168960000D03*
%TO.P,REF\u002A\u002A,4*%
X383500000Y-168960000D03*
%TO.P,REF\u002A\u002A,5*%
X386040000Y-166420000D03*
%TO.P,REF\u002A\u002A,6*%
X383500000Y-166420000D03*
%TO.P,REF\u002A\u002A,7*%
X386040000Y-163880000D03*
%TO.P,REF\u002A\u002A,8*%
X383500000Y-163880000D03*
%TO.P,REF\u002A\u002A,9*%
X386040000Y-161340000D03*
%TO.P,REF\u002A\u002A,10*%
X383500000Y-161340000D03*
%TD*%
D10*
%TO.P,,1*%
%TO.N,N/C*%
X346000000Y-153300000D03*
%TD*%
%TO.P,,1*%
%TO.N,N/C*%
X315000000Y-176300000D03*
%TD*%
%TO.P,,1*%
%TO.N,N/C*%
X347000000Y-176200000D03*
%TD*%
D17*
%TO.P,REF\u002A\u002A,1*%
%TO.N,GND*%
X319000000Y-228300000D03*
D18*
%TO.P,REF\u002A\u002A,2*%
%TO.N,VCC*%
X324000000Y-223300000D03*
%TO.P,REF\u002A\u002A,3*%
X314000000Y-223300000D03*
%TO.P,REF\u002A\u002A,4*%
%TO.N,N/C*%
X321500000Y-223300000D03*
%TD*%
D10*
%TO.P,,1*%
%TO.N,N/C*%
X347000000Y-158400000D03*
%TD*%
D13*
%TO.P,REF\u002A\u002A,1*%
%TO.N,N/C*%
X374000000Y-165500000D03*
%TO.P,REF\u002A\u002A,2*%
X364000000Y-165500000D03*
%TD*%
%TO.P,REF\u002A\u002A,1*%
%TO.N,N/C*%
X374000000Y-169000000D03*
%TO.P,REF\u002A\u002A,2*%
X364000000Y-169000000D03*
%TD*%
%TO.P,REF\u002A\u002A,1*%
%TO.N,N/C*%
X374000000Y-175900000D03*
%TO.P,REF\u002A\u002A,2*%
X364000000Y-175900000D03*
%TD*%
D10*
%TO.P,,1*%
%TO.N,N/C*%
X347000000Y-163500000D03*
%TD*%
%TO.P,,1*%
%TO.N,N/C*%
X317000000Y-186500000D03*
%TD*%
D12*
%TO.P,REF\u002A\u002A,1*%
%TO.N,N/C*%
X323110000Y-150870000D03*
%TO.P,REF\u002A\u002A,2*%
X323110000Y-153410000D03*
D11*
%TO.P,REF\u002A\u002A,3*%
%TO.N,GND*%
X323110000Y-155950000D03*
D12*
%TO.P,REF\u002A\u002A,4*%
%TO.N,N/C*%
X323110000Y-158490000D03*
%TO.P,REF\u002A\u002A,5*%
X323110000Y-161030000D03*
%TO.P,REF\u002A\u002A,6*%
X323110000Y-163570000D03*
%TO.P,REF\u002A\u002A,7*%
X323110000Y-166110000D03*
D11*
%TO.P,REF\u002A\u002A,8*%
%TO.N,GND*%
X323110000Y-168650000D03*
D12*
%TO.P,REF\u002A\u002A,9*%
%TO.N,N/C*%
X323110000Y-171190000D03*
%TO.P,REF\u002A\u002A,10*%
X323110000Y-173730000D03*
%TO.P,REF\u002A\u002A,11*%
X323110000Y-176270000D03*
%TO.P,REF\u002A\u002A,12*%
X323110000Y-178810000D03*
D11*
%TO.P,REF\u002A\u002A,13*%
%TO.N,GND*%
X323110000Y-181350000D03*
D12*
%TO.P,REF\u002A\u002A,14*%
%TO.N,N/C*%
X323110000Y-183890000D03*
%TO.P,REF\u002A\u002A,15*%
X323110000Y-186430000D03*
%TO.P,REF\u002A\u002A,16*%
X323110000Y-188970000D03*
%TO.P,REF\u002A\u002A,17*%
X323110000Y-191510000D03*
D11*
%TO.P,REF\u002A\u002A,18*%
%TO.N,GND*%
X323110000Y-194050000D03*
D12*
%TO.P,REF\u002A\u002A,19*%
%TO.N,N/C*%
X323110000Y-196590000D03*
%TO.P,REF\u002A\u002A,20*%
X323110000Y-199130000D03*
%TO.P,REF\u002A\u002A,21*%
X340890000Y-199130000D03*
%TO.P,REF\u002A\u002A,22*%
X340890000Y-196590000D03*
D11*
%TO.P,REF\u002A\u002A,23*%
%TO.N,GND*%
X340890000Y-194050000D03*
D12*
%TO.P,REF\u002A\u002A,24*%
%TO.N,N/C*%
X340890000Y-191510000D03*
%TO.P,REF\u002A\u002A,25*%
X340890000Y-188970000D03*
%TO.P,REF\u002A\u002A,26*%
X340890000Y-186430000D03*
%TO.P,REF\u002A\u002A,27*%
X340890000Y-183890000D03*
D11*
%TO.P,REF\u002A\u002A,28*%
%TO.N,GND*%
X340890000Y-181350000D03*
D12*
%TO.P,REF\u002A\u002A,29*%
%TO.N,N/C*%
X340890000Y-178810000D03*
%TO.P,REF\u002A\u002A,30*%
X340890000Y-176270000D03*
%TO.P,REF\u002A\u002A,31*%
X340890000Y-173730000D03*
%TO.P,REF\u002A\u002A,32*%
X340890000Y-171190000D03*
D11*
%TO.P,REF\u002A\u002A,33*%
%TO.N,GND*%
X340890000Y-168650000D03*
D12*
%TO.P,REF\u002A\u002A,34*%
%TO.N,N/C*%
X340890000Y-166110000D03*
%TO.P,REF\u002A\u002A,35*%
X340890000Y-163570000D03*
%TO.P,REF\u002A\u002A,36*%
%TO.N,VCC*%
X340890000Y-161030000D03*
%TO.P,REF\u002A\u002A,37*%
%TO.N,N/C*%
X340890000Y-158490000D03*
D11*
%TO.P,REF\u002A\u002A,38*%
%TO.N,GND*%
X340890000Y-155950000D03*
D12*
%TO.P,REF\u002A\u002A,39*%
%TO.N,N/C*%
X340890000Y-153410000D03*
%TO.P,REF\u002A\u002A,40*%
X340890000Y-150870000D03*
%TO.P,REF\u002A\u002A,41*%
X329460000Y-198900000D03*
D11*
%TO.P,REF\u002A\u002A,42*%
X332000000Y-198900000D03*
D12*
%TO.P,REF\u002A\u002A,43*%
X334540000Y-198900000D03*
%TD*%
D19*
%TO.P,REF\u002A\u002A,1*%
%TO.N,GND*%
X351200000Y-170500000D03*
%TO.P,REF\u002A\u002A,2*%
%TO.N,N/C*%
X351200000Y-172499999D03*
%TO.P,REF\u002A\u002A,3*%
X351200000Y-174500000D03*
%TO.P,REF\u002A\u002A,4*%
%TO.N,GND*%
X351200000Y-176499998D03*
%TD*%
D20*
%TO.N,VCC*%
X314000000Y-222000000D02*
X314000000Y-223500000D01*
X316500000Y-219500000D02*
X314000000Y-222000000D01*
X321500000Y-219500000D02*
X316500000Y-219500000D01*
X324000000Y-222000000D02*
X321500000Y-219500000D01*
X324000000Y-223100000D02*
X324000000Y-222000000D01*
X324800000Y-223100000D02*
X324000000Y-223100000D01*
X361000000Y-186900000D02*
X324800000Y-223100000D01*
X365000000Y-158500000D02*
X361000000Y-162500000D01*
X361000000Y-162500000D02*
X361000000Y-186900000D01*
%TO.N,*%
X388000000Y-183000000D02*
X388000000Y-199000000D01*
X387000000Y-198500000D02*
X362540000Y-222960000D01*
X380580000Y-166420000D02*
X378000000Y-169000000D01*
X378000000Y-183000000D02*
X383500000Y-183000000D01*
X383500000Y-166420000D02*
X380580000Y-166420000D01*
X379500000Y-162000000D02*
X380160000Y-161340000D01*
X385000000Y-180000000D02*
X388000000Y-183000000D01*
X368300000Y-184700000D02*
X373000000Y-180000000D01*
X356580000Y-220420000D02*
X356500000Y-220420000D01*
X356500000Y-220420000D02*
X351500000Y-220420000D01*
X370840000Y-187000000D02*
X370840000Y-184660000D01*
X361500000Y-225500000D02*
X351500000Y-225500000D01*
X381500000Y-171500000D02*
X377100000Y-175900000D01*
X309000000Y-159500000D02*
X317630000Y-150870000D01*
X357500000Y-222960000D02*
X351500000Y-222960000D01*
X364620000Y-217880000D02*
X355200000Y-217880000D01*
X317630000Y-150870000D02*
X323110000Y-150870000D01*
X381040000Y-168960000D02*
X377500000Y-172500000D01*
X375920000Y-187000000D02*
X375920000Y-185080000D01*
X385000000Y-184500000D02*
X385000000Y-197500000D01*
X385000000Y-197500000D02*
X364620000Y-217880000D01*
X373380000Y-187000000D02*
X373380000Y-185120000D01*
X387000000Y-183500000D02*
X387000000Y-198500000D01*
X351500000Y-217880000D02*
X355500000Y-217880000D01*
X309000000Y-170000000D02*
X309000000Y-159500000D01*
X364000000Y-175900000D02*
X364000000Y-175600000D01*
X368300000Y-187000000D02*
X368300000Y-184700000D01*
X380120000Y-163880000D02*
X378500000Y-165500000D01*
X376500000Y-182000000D02*
X384000000Y-182000000D01*
X383500000Y-183000000D02*
X385000000Y-184500000D01*
X377100000Y-175900000D02*
X374000000Y-175900000D01*
X357540000Y-222960000D02*
X357500000Y-222960000D01*
X386000000Y-184000000D02*
X386000000Y-198000000D01*
X383500000Y-168960000D02*
X381040000Y-168960000D01*
X377500000Y-172500000D02*
X374000000Y-172500000D01*
X373000000Y-180000000D02*
X385000000Y-180000000D01*
X374500000Y-181000000D02*
X384500000Y-181000000D01*
X370840000Y-184660000D02*
X374500000Y-181000000D01*
X384500000Y-181000000D02*
X387000000Y-183500000D01*
X375920000Y-185080000D02*
X378000000Y-183000000D01*
X373380000Y-185120000D02*
X376500000Y-182000000D01*
X378000000Y-169000000D02*
X374000000Y-169000000D01*
X380160000Y-161340000D02*
X383500000Y-161340000D01*
X363580000Y-220420000D02*
X356100000Y-220420000D01*
X355500000Y-217880000D02*
X355620000Y-217880000D01*
X386000000Y-198000000D02*
X363580000Y-220420000D01*
X374000000Y-162000000D02*
X379500000Y-162000000D01*
X383500000Y-163880000D02*
X380120000Y-163880000D01*
X388000000Y-199000000D02*
X361500000Y-225500000D01*
X383500000Y-171500000D02*
X381500000Y-171500000D01*
X362540000Y-222960000D02*
X357500000Y-222960000D01*
X378500000Y-165500000D02*
X374000000Y-165500000D01*
X384000000Y-182000000D02*
X386000000Y-184000000D01*
D21*
%TO.N,GND*%
X311000000Y-193200000D02*
X311000000Y-193700000D01*
X352795101Y-170500000D02*
X352800000Y-170495101D01*
X311000000Y-182200000D02*
X311000000Y-182600000D01*
X353500000Y-180700000D02*
X353500000Y-180600000D01*
X311400000Y-168650000D02*
X311150000Y-168650000D01*
X351382600Y-170495101D02*
X351204899Y-170495101D01*
X311150000Y-168650000D02*
X311000000Y-168500000D01*
X311000000Y-181800000D02*
X311000000Y-182600000D01*
X354500000Y-164000000D02*
X356500000Y-164000000D01*
X311000000Y-180500000D02*
X311000000Y-180900000D01*
X365000000Y-152000000D02*
X389000000Y-152000000D01*
X311000000Y-194500000D02*
X311000000Y-194900000D01*
X311000000Y-194450000D02*
X311400000Y-194050000D01*
X361500000Y-210500000D02*
X353750000Y-210500000D01*
X352704901Y-176495099D02*
X353500000Y-175700000D01*
X372000000Y-178500000D02*
X363000000Y-187500000D01*
X311000000Y-181800000D02*
X311000000Y-181750000D01*
X363250000Y-212750000D02*
X351500000Y-212750000D01*
X353500000Y-169600000D02*
X353500000Y-169795101D01*
X311000000Y-162500000D02*
X311000000Y-168500000D01*
X352800000Y-170495101D02*
X353395101Y-170495101D01*
X311850000Y-181350000D02*
X311000000Y-180500000D01*
X311000000Y-182600000D02*
X311000000Y-193200000D01*
X353150000Y-181500000D02*
X353400000Y-181500000D01*
X357500000Y-164500000D02*
X357500000Y-164000000D01*
X356000000Y-167000000D02*
X357500000Y-165500000D01*
X311050000Y-193700000D02*
X311400000Y-194050000D01*
X311800000Y-194050000D02*
X311400000Y-194050000D01*
X362000000Y-155000000D02*
X358000000Y-155000000D01*
X352600000Y-176495099D02*
X353495099Y-176495099D01*
D22*
X351200000Y-176499998D02*
X352700002Y-176499998D01*
D21*
X352800000Y-170500000D02*
X353500000Y-171200000D01*
X311000000Y-171100000D02*
X311000000Y-172000000D01*
X353500000Y-181800000D02*
X353500000Y-181250000D01*
X311000000Y-194900000D02*
X311000000Y-216000000D01*
X352700000Y-181500000D02*
X353150000Y-181500000D01*
X356500000Y-164000000D02*
X357000000Y-164000000D01*
X357500000Y-163000000D02*
X357500000Y-159500000D01*
D22*
X353395101Y-170495101D02*
X353500000Y-170600000D01*
D21*
X357500000Y-164500000D02*
X357500000Y-164400000D01*
X357000000Y-164000000D02*
X357500000Y-164000000D01*
X352600000Y-176495099D02*
X352704901Y-176495099D01*
X340890000Y-181350000D02*
X341040000Y-181500000D01*
D22*
X352700002Y-176499998D02*
X352704901Y-176495099D01*
D21*
X353500000Y-175700000D02*
X353500000Y-171200000D01*
X341040000Y-181500000D02*
X352700000Y-181500000D01*
X357000000Y-164000000D02*
X357100000Y-164000000D01*
X353500000Y-191000000D02*
X353500000Y-182500000D01*
X312100000Y-181350000D02*
X311400000Y-181350000D01*
X353500000Y-182500000D02*
X353500000Y-181800000D01*
X313500000Y-168650000D02*
X313350000Y-168650000D01*
X357500000Y-163000000D02*
X357500000Y-163300000D01*
X392500000Y-168500000D02*
X389500000Y-171500000D01*
X353050000Y-181500000D02*
X353225000Y-181500000D01*
X311000000Y-168500000D02*
X311000000Y-169000000D01*
X352700000Y-181500000D02*
X353500000Y-182300000D01*
X311850000Y-181350000D02*
X311000000Y-182200000D01*
X368000000Y-196500000D02*
X368000000Y-204000000D01*
X353500000Y-181775000D02*
X353500000Y-181800000D01*
X352704901Y-176495099D02*
X352704901Y-176504901D01*
X317550000Y-155950000D02*
X311000000Y-162500000D01*
X381000000Y-187000000D02*
X381000000Y-195000000D01*
X316500000Y-226500000D02*
X318500000Y-228500000D01*
X357500000Y-159500000D02*
X355500000Y-157500000D01*
X340890000Y-168650000D02*
X341040000Y-168500000D01*
X379040000Y-178500000D02*
X372000000Y-178500000D01*
X368000000Y-204000000D02*
X361500000Y-210500000D01*
X353500000Y-181250000D02*
X353500000Y-180600000D01*
X365000000Y-152000000D02*
X362000000Y-155000000D01*
X313350000Y-168650000D02*
X311850000Y-168650000D01*
X311000000Y-181500000D02*
X311000000Y-181800000D01*
X389500000Y-171500000D02*
X386040000Y-171500000D01*
X323110000Y-181350000D02*
X312100000Y-181350000D01*
X311850000Y-168650000D02*
X311000000Y-167800000D01*
X353500000Y-176500000D02*
X353500000Y-175700000D01*
X353950000Y-155950000D02*
X355500000Y-157500000D01*
X311400000Y-194050000D02*
X311050000Y-194050000D01*
X363000000Y-191500000D02*
X368000000Y-196500000D01*
X311000000Y-193700000D02*
X311000000Y-194000000D01*
X340890000Y-194050000D02*
X350450000Y-194050000D01*
X353750000Y-210500000D02*
X351500000Y-212750000D01*
X353500000Y-182300000D02*
X353500000Y-182500000D01*
X311000000Y-180900000D02*
X311000000Y-180950000D01*
X381000000Y-195000000D02*
X363250000Y-212750000D01*
X311050000Y-194050000D02*
X311000000Y-194000000D01*
X311000000Y-217500000D02*
X309500000Y-219000000D01*
X352800000Y-170495101D02*
X352800000Y-170500000D01*
X311000000Y-173000000D02*
X311000000Y-175100000D01*
X340890000Y-155950000D02*
X353950000Y-155950000D01*
X353500000Y-171200000D02*
X353500000Y-170600000D01*
X357500000Y-163300000D02*
X357500000Y-164000000D01*
X389000000Y-152000000D02*
X392500000Y-155500000D01*
X355000000Y-167000000D02*
X356000000Y-167000000D01*
X318500000Y-228500000D02*
X319000000Y-228500000D01*
X311000000Y-194000000D02*
X311000000Y-194500000D01*
X351204899Y-170495101D02*
X351200000Y-170500000D01*
X350000000Y-168500000D02*
X354500000Y-164000000D01*
X311400000Y-181350000D02*
X311150000Y-181350000D01*
X356800000Y-164000000D02*
X356500000Y-164000000D01*
X357500000Y-163300000D02*
X356800000Y-164000000D01*
X357500000Y-165500000D02*
X357500000Y-164500000D01*
X309500000Y-219000000D02*
X309500000Y-224000000D01*
X353500000Y-169795101D02*
X352800000Y-170495101D01*
X357500000Y-163000000D02*
X357500000Y-161500000D01*
X351382600Y-176495099D02*
X352600000Y-176495099D01*
X363000000Y-187500000D02*
X363000000Y-191500000D01*
X311000000Y-180900000D02*
X311000000Y-181500000D01*
X350450000Y-194050000D02*
X353500000Y-191000000D01*
X358000000Y-155000000D02*
X355500000Y-157500000D01*
X311000000Y-176900000D02*
X311000000Y-180500000D01*
X311000000Y-175200000D02*
X311000000Y-175100000D01*
X352700000Y-181500000D02*
X353500000Y-180700000D01*
X311000000Y-172000000D02*
X311000000Y-173000000D01*
D22*
X353495099Y-176495099D02*
X353500000Y-176500000D01*
D21*
X311800000Y-194000000D02*
X311000000Y-193200000D01*
X341040000Y-168500000D02*
X350000000Y-168500000D01*
X353500000Y-168500000D02*
X355000000Y-167000000D01*
X353500000Y-170600000D02*
X353500000Y-169600000D01*
X392500000Y-155500000D02*
X392500000Y-168500000D01*
X309500000Y-224000000D02*
X312000000Y-226500000D01*
X386040000Y-171500000D02*
X379040000Y-178500000D01*
X351200000Y-170500000D02*
X352795101Y-170500000D01*
X353500000Y-177300000D02*
X353500000Y-176500000D01*
X312000000Y-226500000D02*
X316500000Y-226500000D01*
X357500000Y-164700000D02*
X357500000Y-165500000D01*
X311000000Y-169000000D02*
X311000000Y-169500000D01*
X311000000Y-176300000D02*
X311000000Y-176900000D01*
X311000000Y-169500000D02*
X311000000Y-171100000D01*
X311000000Y-216000000D02*
X311000000Y-217500000D01*
X323110000Y-194050000D02*
X311850000Y-194050000D01*
X311850000Y-168650000D02*
X311000000Y-169500000D01*
X323110000Y-155950000D02*
X317550000Y-155950000D01*
X353150000Y-181500000D02*
X353225000Y-181500000D01*
X353400000Y-181500000D02*
X353500000Y-181600000D01*
X353500000Y-180600000D02*
X353500000Y-177300000D01*
X311000000Y-174700000D02*
X311000000Y-176900000D01*
X356800000Y-164000000D02*
X357500000Y-164700000D01*
X352704901Y-176504901D02*
X353500000Y-177300000D01*
X311850000Y-194050000D02*
X311800000Y-194100000D01*
X311800000Y-194100000D02*
X311000000Y-194900000D01*
X323110000Y-168650000D02*
X313500000Y-168650000D01*
X353500000Y-169795101D02*
X353500000Y-168500000D01*
%TO.N,VCC*%
X383000000Y-184000000D02*
X384000000Y-185000000D01*
X351290000Y-215500000D02*
X351500000Y-215290000D01*
X339500000Y-210000000D02*
X339500000Y-213500000D01*
X365660000Y-215340000D02*
X351500000Y-215340000D01*
X343000000Y-206500000D02*
X339500000Y-210000000D01*
X351600000Y-204400000D02*
X349500000Y-206500000D01*
X349500000Y-206500000D02*
X343000000Y-206500000D01*
X341500000Y-215500000D02*
X351290000Y-215500000D01*
X378460000Y-185040000D02*
X379500000Y-184000000D01*
X384000000Y-185000000D02*
X384000000Y-197000000D01*
X339500000Y-213500000D02*
X341500000Y-215500000D01*
X379500000Y-184000000D02*
X383000000Y-184000000D01*
X384000000Y-197000000D02*
X365660000Y-215340000D01*
X378460000Y-187000000D02*
X378460000Y-185040000D01*
%TD*%
M02*
