%TF.GenerationSoftware,KiCad,Pcbnew,8.0.2*%
%TF.CreationDate,2024-05-27T09:17:52-04:00*%
%TF.ProjectId,GlassBreaker_KiCAD,476c6173-7342-4726-9561-6b65725f4b69,rev?*%
%TF.SameCoordinates,Original*%
%TF.FileFunction,Soldermask,Bot*%
%TF.FilePolarity,Negative*%
%FSLAX46Y46*%
G04 Gerber Fmt 4.6, Leading zero omitted, Abs format (unit mm)*
G04 Created by KiCad (PCBNEW 8.0.2) date 2024-05-27 09:17:52*
%MOMM*%
%LPD*%
G01*
G04 APERTURE LIST*
%ADD10C,1.700000*%
%ADD11R,1.700000X1.700000*%
%ADD12O,1.700000X1.700000*%
%ADD13C,1.524000*%
%ADD14C,1.200000*%
%ADD15R,1.490000X1.490000*%
%ADD16C,1.490000*%
%ADD17O,2.820000X1.512000*%
%ADD18O,1.512000X2.820000*%
%ADD19O,1.800000X1.800000*%
%ADD20O,1.500000X1.500000*%
%ADD21C,1.270000*%
G04 APERTURE END LIST*
D10*
%TO.C,*%
X364800000Y-158500000D03*
%TD*%
%TO.C,*%
X361000000Y-158400000D03*
%TD*%
%TO.C,*%
X315000000Y-163600000D03*
%TD*%
D11*
%TO.C,REF\u002A\u002A*%
X351500000Y-212750000D03*
D12*
X351500000Y-215290000D03*
X351500000Y-217830000D03*
X351500000Y-220370000D03*
X351500000Y-222910000D03*
X351500000Y-225450000D03*
%TD*%
D13*
%TO.C,REF\u002A\u002A*%
X374000000Y-162000000D03*
X364000000Y-162000000D03*
%TD*%
D10*
%TO.C,*%
X315000000Y-183900000D03*
%TD*%
%TO.C,*%
X316900000Y-178900000D03*
%TD*%
%TO.C,REF\u002A\u002A*%
X347000000Y-178800000D03*
%TD*%
%TO.C,*%
X315000000Y-171300000D03*
%TD*%
%TO.C,*%
X337000000Y-205000000D03*
%TD*%
%TO.C,*%
X309000000Y-170000000D03*
%TD*%
%TO.C,*%
X315000000Y-189000000D03*
%TD*%
%TO.C,*%
X347000000Y-166100000D03*
%TD*%
%TO.C,*%
X317000000Y-166200000D03*
%TD*%
D11*
%TO.C,REF\u002A\u002A*%
X381000000Y-187000000D03*
D12*
X378460000Y-187000000D03*
X375920000Y-187000000D03*
X373380000Y-187000000D03*
X370840000Y-187000000D03*
X368300000Y-187000000D03*
%TD*%
D10*
%TO.C,*%
X327000000Y-205000000D03*
%TD*%
D14*
%TO.C,REF\u002A\u002A*%
X355500000Y-159500000D03*
X355500000Y-157500000D03*
%TD*%
D10*
%TO.C,*%
X359000000Y-152000000D03*
%TD*%
%TO.C,*%
X332000000Y-205000000D03*
%TD*%
%TO.C,*%
X351600000Y-204400000D03*
%TD*%
D13*
%TO.C,REF\u002A\u002A*%
X374000000Y-172500000D03*
X364000000Y-172500000D03*
%TD*%
D10*
%TO.C,*%
X317000000Y-173700000D03*
%TD*%
D15*
%TO.C,REF\u002A\u002A*%
X386040000Y-171500000D03*
D16*
X383500000Y-171500000D03*
X386040000Y-168960000D03*
X383500000Y-168960000D03*
X386040000Y-166420000D03*
X383500000Y-166420000D03*
X386040000Y-163880000D03*
X383500000Y-163880000D03*
X386040000Y-161340000D03*
X383500000Y-161340000D03*
%TD*%
D10*
%TO.C,*%
X346000000Y-153300000D03*
%TD*%
%TO.C,*%
X315000000Y-176300000D03*
%TD*%
%TO.C,*%
X347000000Y-176200000D03*
%TD*%
D14*
%TO.C,REF\u002A\u002A*%
X314000000Y-230800000D03*
X324000000Y-230800000D03*
X314000000Y-228300000D03*
X324000000Y-228300000D03*
X319000000Y-223300000D03*
D17*
X319000000Y-228300000D03*
D18*
X324000000Y-223300000D03*
X314000000Y-223300000D03*
X321500000Y-223300000D03*
%TD*%
D10*
%TO.C,*%
X347000000Y-158400000D03*
%TD*%
D13*
%TO.C,REF\u002A\u002A*%
X374000000Y-165500000D03*
X364000000Y-165500000D03*
%TD*%
%TO.C,REF\u002A\u002A*%
X374000000Y-169000000D03*
X364000000Y-169000000D03*
%TD*%
%TO.C,REF\u002A\u002A*%
X374000000Y-175900000D03*
X364000000Y-175900000D03*
%TD*%
D10*
%TO.C,*%
X347000000Y-163500000D03*
%TD*%
%TO.C,*%
X317000000Y-186500000D03*
%TD*%
D19*
%TO.C,REF\u002A\u002A*%
X329275000Y-151000000D03*
D20*
X329575000Y-154030000D03*
X334425000Y-154030000D03*
D19*
X334725000Y-151000000D03*
D12*
X323110000Y-150870000D03*
X323110000Y-153410000D03*
D11*
X323110000Y-155950000D03*
D12*
X323110000Y-158490000D03*
X323110000Y-161030000D03*
X323110000Y-163570000D03*
X323110000Y-166110000D03*
D11*
X323110000Y-168650000D03*
D12*
X323110000Y-171190000D03*
X323110000Y-173730000D03*
X323110000Y-176270000D03*
X323110000Y-178810000D03*
D11*
X323110000Y-181350000D03*
D12*
X323110000Y-183890000D03*
X323110000Y-186430000D03*
X323110000Y-188970000D03*
X323110000Y-191510000D03*
D11*
X323110000Y-194050000D03*
D12*
X323110000Y-196590000D03*
X323110000Y-199130000D03*
X340890000Y-199130000D03*
X340890000Y-196590000D03*
D11*
X340890000Y-194050000D03*
D12*
X340890000Y-191510000D03*
X340890000Y-188970000D03*
X340890000Y-186430000D03*
X340890000Y-183890000D03*
D11*
X340890000Y-181350000D03*
D12*
X340890000Y-178810000D03*
X340890000Y-176270000D03*
X340890000Y-173730000D03*
X340890000Y-171190000D03*
D11*
X340890000Y-168650000D03*
D12*
X340890000Y-166110000D03*
X340890000Y-163570000D03*
X340890000Y-161030000D03*
X340890000Y-158490000D03*
D11*
X340890000Y-155950000D03*
D12*
X340890000Y-153410000D03*
X340890000Y-150870000D03*
X329460000Y-198900000D03*
D11*
X332000000Y-198900000D03*
D12*
X334540000Y-198900000D03*
%TD*%
D21*
%TO.C,REF\u002A\u002A*%
X351200000Y-170500000D03*
X351200000Y-172499999D03*
X351200000Y-174500000D03*
X351200000Y-176499998D03*
%TD*%
M02*
