%TF.GenerationSoftware,KiCad,Pcbnew,8.0.2*%
%TF.CreationDate,2024-05-27T09:17:52-04:00*%
%TF.ProjectId,GlassBreaker_KiCAD,476c6173-7342-4726-9561-6b65725f4b69,rev?*%
%TF.SameCoordinates,Original*%
%TF.FileFunction,Copper,L1,Top*%
%TF.FilePolarity,Positive*%
%FSLAX46Y46*%
G04 Gerber Fmt 4.6, Leading zero omitted, Abs format (unit mm)*
G04 Created by KiCad (PCBNEW 8.0.2) date 2024-05-27 09:17:52*
%MOMM*%
%LPD*%
G01*
G04 APERTURE LIST*
%TA.AperFunction,NonConductor*%
%ADD10C,0.200000*%
%TD*%
%ADD11C,0.300000*%
%TA.AperFunction,NonConductor*%
%ADD12C,0.300000*%
%TD*%
%TA.AperFunction,ComponentPad*%
%ADD13C,1.700000*%
%TD*%
%TA.AperFunction,ComponentPad*%
%ADD14R,1.700000X1.700000*%
%TD*%
%TA.AperFunction,ComponentPad*%
%ADD15O,1.700000X1.700000*%
%TD*%
%TA.AperFunction,ComponentPad*%
%ADD16C,1.524000*%
%TD*%
%TA.AperFunction,ComponentPad*%
%ADD17C,1.200000*%
%TD*%
%TA.AperFunction,ComponentPad*%
%ADD18R,1.490000X1.490000*%
%TD*%
%TA.AperFunction,ComponentPad*%
%ADD19C,1.490000*%
%TD*%
%TA.AperFunction,ComponentPad*%
%ADD20O,2.616000X1.308000*%
%TD*%
%TA.AperFunction,ComponentPad*%
%ADD21O,1.308000X2.616000*%
%TD*%
%TA.AperFunction,SMDPad,CuDef*%
%ADD22R,0.889000X0.812800*%
%TD*%
%TA.AperFunction,SMDPad,CuDef*%
%ADD23R,3.500000X1.700000*%
%TD*%
%TA.AperFunction,SMDPad,CuDef*%
%ADD24R,1.700000X3.500000*%
%TD*%
%TA.AperFunction,ComponentPad*%
%ADD25C,1.270000*%
%TD*%
%TA.AperFunction,Conductor*%
%ADD26C,0.400000*%
%TD*%
%TA.AperFunction,Conductor*%
%ADD27C,0.500000*%
%TD*%
G04 APERTURE END LIST*
D10*
X200000000Y-100000000D02*
X500000000Y-100000000D01*
X500000000Y-300000000D01*
X200000000Y-300000000D01*
X200000000Y-100000000D01*
D11*
D12*
X342285715Y-318378328D02*
X343214287Y-318378328D01*
X343214287Y-318378328D02*
X342714287Y-318949757D01*
X342714287Y-318949757D02*
X342928572Y-318949757D01*
X342928572Y-318949757D02*
X343071430Y-319021185D01*
X343071430Y-319021185D02*
X343142858Y-319092614D01*
X343142858Y-319092614D02*
X343214287Y-319235471D01*
X343214287Y-319235471D02*
X343214287Y-319592614D01*
X343214287Y-319592614D02*
X343142858Y-319735471D01*
X343142858Y-319735471D02*
X343071430Y-319806900D01*
X343071430Y-319806900D02*
X342928572Y-319878328D01*
X342928572Y-319878328D02*
X342500001Y-319878328D01*
X342500001Y-319878328D02*
X342357144Y-319806900D01*
X342357144Y-319806900D02*
X342285715Y-319735471D01*
X344142858Y-318378328D02*
X344285715Y-318378328D01*
X344285715Y-318378328D02*
X344428572Y-318449757D01*
X344428572Y-318449757D02*
X344500001Y-318521185D01*
X344500001Y-318521185D02*
X344571429Y-318664042D01*
X344571429Y-318664042D02*
X344642858Y-318949757D01*
X344642858Y-318949757D02*
X344642858Y-319306900D01*
X344642858Y-319306900D02*
X344571429Y-319592614D01*
X344571429Y-319592614D02*
X344500001Y-319735471D01*
X344500001Y-319735471D02*
X344428572Y-319806900D01*
X344428572Y-319806900D02*
X344285715Y-319878328D01*
X344285715Y-319878328D02*
X344142858Y-319878328D01*
X344142858Y-319878328D02*
X344000001Y-319806900D01*
X344000001Y-319806900D02*
X343928572Y-319735471D01*
X343928572Y-319735471D02*
X343857143Y-319592614D01*
X343857143Y-319592614D02*
X343785715Y-319306900D01*
X343785715Y-319306900D02*
X343785715Y-318949757D01*
X343785715Y-318949757D02*
X343857143Y-318664042D01*
X343857143Y-318664042D02*
X343928572Y-318521185D01*
X343928572Y-318521185D02*
X344000001Y-318449757D01*
X344000001Y-318449757D02*
X344142858Y-318378328D01*
X345571429Y-318378328D02*
X345714286Y-318378328D01*
X345714286Y-318378328D02*
X345857143Y-318449757D01*
X345857143Y-318449757D02*
X345928572Y-318521185D01*
X345928572Y-318521185D02*
X346000000Y-318664042D01*
X346000000Y-318664042D02*
X346071429Y-318949757D01*
X346071429Y-318949757D02*
X346071429Y-319306900D01*
X346071429Y-319306900D02*
X346000000Y-319592614D01*
X346000000Y-319592614D02*
X345928572Y-319735471D01*
X345928572Y-319735471D02*
X345857143Y-319806900D01*
X345857143Y-319806900D02*
X345714286Y-319878328D01*
X345714286Y-319878328D02*
X345571429Y-319878328D01*
X345571429Y-319878328D02*
X345428572Y-319806900D01*
X345428572Y-319806900D02*
X345357143Y-319735471D01*
X345357143Y-319735471D02*
X345285714Y-319592614D01*
X345285714Y-319592614D02*
X345214286Y-319306900D01*
X345214286Y-319306900D02*
X345214286Y-318949757D01*
X345214286Y-318949757D02*
X345285714Y-318664042D01*
X345285714Y-318664042D02*
X345357143Y-318521185D01*
X345357143Y-318521185D02*
X345428572Y-318449757D01*
X345428572Y-318449757D02*
X345571429Y-318378328D01*
X346714285Y-319735471D02*
X346785714Y-319806900D01*
X346785714Y-319806900D02*
X346714285Y-319878328D01*
X346714285Y-319878328D02*
X346642857Y-319806900D01*
X346642857Y-319806900D02*
X346714285Y-319735471D01*
X346714285Y-319735471D02*
X346714285Y-319878328D01*
X347714286Y-318378328D02*
X347857143Y-318378328D01*
X347857143Y-318378328D02*
X348000000Y-318449757D01*
X348000000Y-318449757D02*
X348071429Y-318521185D01*
X348071429Y-318521185D02*
X348142857Y-318664042D01*
X348142857Y-318664042D02*
X348214286Y-318949757D01*
X348214286Y-318949757D02*
X348214286Y-319306900D01*
X348214286Y-319306900D02*
X348142857Y-319592614D01*
X348142857Y-319592614D02*
X348071429Y-319735471D01*
X348071429Y-319735471D02*
X348000000Y-319806900D01*
X348000000Y-319806900D02*
X347857143Y-319878328D01*
X347857143Y-319878328D02*
X347714286Y-319878328D01*
X347714286Y-319878328D02*
X347571429Y-319806900D01*
X347571429Y-319806900D02*
X347500000Y-319735471D01*
X347500000Y-319735471D02*
X347428571Y-319592614D01*
X347428571Y-319592614D02*
X347357143Y-319306900D01*
X347357143Y-319306900D02*
X347357143Y-318949757D01*
X347357143Y-318949757D02*
X347428571Y-318664042D01*
X347428571Y-318664042D02*
X347500000Y-318521185D01*
X347500000Y-318521185D02*
X347571429Y-318449757D01*
X347571429Y-318449757D02*
X347714286Y-318378328D01*
X349142857Y-318378328D02*
X349285714Y-318378328D01*
X349285714Y-318378328D02*
X349428571Y-318449757D01*
X349428571Y-318449757D02*
X349500000Y-318521185D01*
X349500000Y-318521185D02*
X349571428Y-318664042D01*
X349571428Y-318664042D02*
X349642857Y-318949757D01*
X349642857Y-318949757D02*
X349642857Y-319306900D01*
X349642857Y-319306900D02*
X349571428Y-319592614D01*
X349571428Y-319592614D02*
X349500000Y-319735471D01*
X349500000Y-319735471D02*
X349428571Y-319806900D01*
X349428571Y-319806900D02*
X349285714Y-319878328D01*
X349285714Y-319878328D02*
X349142857Y-319878328D01*
X349142857Y-319878328D02*
X349000000Y-319806900D01*
X349000000Y-319806900D02*
X348928571Y-319735471D01*
X348928571Y-319735471D02*
X348857142Y-319592614D01*
X348857142Y-319592614D02*
X348785714Y-319306900D01*
X348785714Y-319306900D02*
X348785714Y-318949757D01*
X348785714Y-318949757D02*
X348857142Y-318664042D01*
X348857142Y-318664042D02*
X348928571Y-318521185D01*
X348928571Y-318521185D02*
X349000000Y-318449757D01*
X349000000Y-318449757D02*
X349142857Y-318378328D01*
X350571428Y-318378328D02*
X350714285Y-318378328D01*
X350714285Y-318378328D02*
X350857142Y-318449757D01*
X350857142Y-318449757D02*
X350928571Y-318521185D01*
X350928571Y-318521185D02*
X350999999Y-318664042D01*
X350999999Y-318664042D02*
X351071428Y-318949757D01*
X351071428Y-318949757D02*
X351071428Y-319306900D01*
X351071428Y-319306900D02*
X350999999Y-319592614D01*
X350999999Y-319592614D02*
X350928571Y-319735471D01*
X350928571Y-319735471D02*
X350857142Y-319806900D01*
X350857142Y-319806900D02*
X350714285Y-319878328D01*
X350714285Y-319878328D02*
X350571428Y-319878328D01*
X350571428Y-319878328D02*
X350428571Y-319806900D01*
X350428571Y-319806900D02*
X350357142Y-319735471D01*
X350357142Y-319735471D02*
X350285713Y-319592614D01*
X350285713Y-319592614D02*
X350214285Y-319306900D01*
X350214285Y-319306900D02*
X350214285Y-318949757D01*
X350214285Y-318949757D02*
X350285713Y-318664042D01*
X350285713Y-318664042D02*
X350357142Y-318521185D01*
X350357142Y-318521185D02*
X350428571Y-318449757D01*
X350428571Y-318449757D02*
X350571428Y-318378328D01*
X351999999Y-318378328D02*
X352142856Y-318378328D01*
X352142856Y-318378328D02*
X352285713Y-318449757D01*
X352285713Y-318449757D02*
X352357142Y-318521185D01*
X352357142Y-318521185D02*
X352428570Y-318664042D01*
X352428570Y-318664042D02*
X352499999Y-318949757D01*
X352499999Y-318949757D02*
X352499999Y-319306900D01*
X352499999Y-319306900D02*
X352428570Y-319592614D01*
X352428570Y-319592614D02*
X352357142Y-319735471D01*
X352357142Y-319735471D02*
X352285713Y-319806900D01*
X352285713Y-319806900D02*
X352142856Y-319878328D01*
X352142856Y-319878328D02*
X351999999Y-319878328D01*
X351999999Y-319878328D02*
X351857142Y-319806900D01*
X351857142Y-319806900D02*
X351785713Y-319735471D01*
X351785713Y-319735471D02*
X351714284Y-319592614D01*
X351714284Y-319592614D02*
X351642856Y-319306900D01*
X351642856Y-319306900D02*
X351642856Y-318949757D01*
X351642856Y-318949757D02*
X351714284Y-318664042D01*
X351714284Y-318664042D02*
X351785713Y-318521185D01*
X351785713Y-318521185D02*
X351857142Y-318449757D01*
X351857142Y-318449757D02*
X351999999Y-318378328D01*
X354285712Y-319878328D02*
X354285712Y-318878328D01*
X354285712Y-319021185D02*
X354357141Y-318949757D01*
X354357141Y-318949757D02*
X354499998Y-318878328D01*
X354499998Y-318878328D02*
X354714284Y-318878328D01*
X354714284Y-318878328D02*
X354857141Y-318949757D01*
X354857141Y-318949757D02*
X354928570Y-319092614D01*
X354928570Y-319092614D02*
X354928570Y-319878328D01*
X354928570Y-319092614D02*
X354999998Y-318949757D01*
X354999998Y-318949757D02*
X355142855Y-318878328D01*
X355142855Y-318878328D02*
X355357141Y-318878328D01*
X355357141Y-318878328D02*
X355499998Y-318949757D01*
X355499998Y-318949757D02*
X355571427Y-319092614D01*
X355571427Y-319092614D02*
X355571427Y-319878328D01*
X356285712Y-319878328D02*
X356285712Y-318878328D01*
X356285712Y-319021185D02*
X356357141Y-318949757D01*
X356357141Y-318949757D02*
X356499998Y-318878328D01*
X356499998Y-318878328D02*
X356714284Y-318878328D01*
X356714284Y-318878328D02*
X356857141Y-318949757D01*
X356857141Y-318949757D02*
X356928570Y-319092614D01*
X356928570Y-319092614D02*
X356928570Y-319878328D01*
X356928570Y-319092614D02*
X356999998Y-318949757D01*
X356999998Y-318949757D02*
X357142855Y-318878328D01*
X357142855Y-318878328D02*
X357357141Y-318878328D01*
X357357141Y-318878328D02*
X357499998Y-318949757D01*
X357499998Y-318949757D02*
X357571427Y-319092614D01*
X357571427Y-319092614D02*
X357571427Y-319878328D01*
D10*
X500000000Y-300500000D02*
X500000000Y-321586420D01*
X200000000Y-300500000D02*
X200000000Y-321586420D01*
X500000000Y-321000000D02*
X200000000Y-321000000D01*
X500000000Y-321000000D02*
X200000000Y-321000000D01*
X500000000Y-321000000D02*
X498873496Y-321586421D01*
X500000000Y-321000000D02*
X498873496Y-320413579D01*
X200000000Y-321000000D02*
X201126504Y-320413579D01*
X200000000Y-321000000D02*
X201126504Y-321586421D01*
D11*
D12*
X528521185Y-207642855D02*
X528449757Y-207571427D01*
X528449757Y-207571427D02*
X528378328Y-207428570D01*
X528378328Y-207428570D02*
X528378328Y-207071427D01*
X528378328Y-207071427D02*
X528449757Y-206928570D01*
X528449757Y-206928570D02*
X528521185Y-206857141D01*
X528521185Y-206857141D02*
X528664042Y-206785712D01*
X528664042Y-206785712D02*
X528806900Y-206785712D01*
X528806900Y-206785712D02*
X529021185Y-206857141D01*
X529021185Y-206857141D02*
X529878328Y-207714284D01*
X529878328Y-207714284D02*
X529878328Y-206785712D01*
X528378328Y-205857141D02*
X528378328Y-205714284D01*
X528378328Y-205714284D02*
X528449757Y-205571427D01*
X528449757Y-205571427D02*
X528521185Y-205499999D01*
X528521185Y-205499999D02*
X528664042Y-205428570D01*
X528664042Y-205428570D02*
X528949757Y-205357141D01*
X528949757Y-205357141D02*
X529306900Y-205357141D01*
X529306900Y-205357141D02*
X529592614Y-205428570D01*
X529592614Y-205428570D02*
X529735471Y-205499999D01*
X529735471Y-205499999D02*
X529806900Y-205571427D01*
X529806900Y-205571427D02*
X529878328Y-205714284D01*
X529878328Y-205714284D02*
X529878328Y-205857141D01*
X529878328Y-205857141D02*
X529806900Y-205999999D01*
X529806900Y-205999999D02*
X529735471Y-206071427D01*
X529735471Y-206071427D02*
X529592614Y-206142856D01*
X529592614Y-206142856D02*
X529306900Y-206214284D01*
X529306900Y-206214284D02*
X528949757Y-206214284D01*
X528949757Y-206214284D02*
X528664042Y-206142856D01*
X528664042Y-206142856D02*
X528521185Y-206071427D01*
X528521185Y-206071427D02*
X528449757Y-205999999D01*
X528449757Y-205999999D02*
X528378328Y-205857141D01*
X528378328Y-204428570D02*
X528378328Y-204285713D01*
X528378328Y-204285713D02*
X528449757Y-204142856D01*
X528449757Y-204142856D02*
X528521185Y-204071428D01*
X528521185Y-204071428D02*
X528664042Y-203999999D01*
X528664042Y-203999999D02*
X528949757Y-203928570D01*
X528949757Y-203928570D02*
X529306900Y-203928570D01*
X529306900Y-203928570D02*
X529592614Y-203999999D01*
X529592614Y-203999999D02*
X529735471Y-204071428D01*
X529735471Y-204071428D02*
X529806900Y-204142856D01*
X529806900Y-204142856D02*
X529878328Y-204285713D01*
X529878328Y-204285713D02*
X529878328Y-204428570D01*
X529878328Y-204428570D02*
X529806900Y-204571428D01*
X529806900Y-204571428D02*
X529735471Y-204642856D01*
X529735471Y-204642856D02*
X529592614Y-204714285D01*
X529592614Y-204714285D02*
X529306900Y-204785713D01*
X529306900Y-204785713D02*
X528949757Y-204785713D01*
X528949757Y-204785713D02*
X528664042Y-204714285D01*
X528664042Y-204714285D02*
X528521185Y-204642856D01*
X528521185Y-204642856D02*
X528449757Y-204571428D01*
X528449757Y-204571428D02*
X528378328Y-204428570D01*
X529735471Y-203285714D02*
X529806900Y-203214285D01*
X529806900Y-203214285D02*
X529878328Y-203285714D01*
X529878328Y-203285714D02*
X529806900Y-203357142D01*
X529806900Y-203357142D02*
X529735471Y-203285714D01*
X529735471Y-203285714D02*
X529878328Y-203285714D01*
X528378328Y-202285713D02*
X528378328Y-202142856D01*
X528378328Y-202142856D02*
X528449757Y-201999999D01*
X528449757Y-201999999D02*
X528521185Y-201928571D01*
X528521185Y-201928571D02*
X528664042Y-201857142D01*
X528664042Y-201857142D02*
X528949757Y-201785713D01*
X528949757Y-201785713D02*
X529306900Y-201785713D01*
X529306900Y-201785713D02*
X529592614Y-201857142D01*
X529592614Y-201857142D02*
X529735471Y-201928571D01*
X529735471Y-201928571D02*
X529806900Y-201999999D01*
X529806900Y-201999999D02*
X529878328Y-202142856D01*
X529878328Y-202142856D02*
X529878328Y-202285713D01*
X529878328Y-202285713D02*
X529806900Y-202428571D01*
X529806900Y-202428571D02*
X529735471Y-202499999D01*
X529735471Y-202499999D02*
X529592614Y-202571428D01*
X529592614Y-202571428D02*
X529306900Y-202642856D01*
X529306900Y-202642856D02*
X528949757Y-202642856D01*
X528949757Y-202642856D02*
X528664042Y-202571428D01*
X528664042Y-202571428D02*
X528521185Y-202499999D01*
X528521185Y-202499999D02*
X528449757Y-202428571D01*
X528449757Y-202428571D02*
X528378328Y-202285713D01*
X528378328Y-200857142D02*
X528378328Y-200714285D01*
X528378328Y-200714285D02*
X528449757Y-200571428D01*
X528449757Y-200571428D02*
X528521185Y-200500000D01*
X528521185Y-200500000D02*
X528664042Y-200428571D01*
X528664042Y-200428571D02*
X528949757Y-200357142D01*
X528949757Y-200357142D02*
X529306900Y-200357142D01*
X529306900Y-200357142D02*
X529592614Y-200428571D01*
X529592614Y-200428571D02*
X529735471Y-200500000D01*
X529735471Y-200500000D02*
X529806900Y-200571428D01*
X529806900Y-200571428D02*
X529878328Y-200714285D01*
X529878328Y-200714285D02*
X529878328Y-200857142D01*
X529878328Y-200857142D02*
X529806900Y-201000000D01*
X529806900Y-201000000D02*
X529735471Y-201071428D01*
X529735471Y-201071428D02*
X529592614Y-201142857D01*
X529592614Y-201142857D02*
X529306900Y-201214285D01*
X529306900Y-201214285D02*
X528949757Y-201214285D01*
X528949757Y-201214285D02*
X528664042Y-201142857D01*
X528664042Y-201142857D02*
X528521185Y-201071428D01*
X528521185Y-201071428D02*
X528449757Y-201000000D01*
X528449757Y-201000000D02*
X528378328Y-200857142D01*
X528378328Y-199428571D02*
X528378328Y-199285714D01*
X528378328Y-199285714D02*
X528449757Y-199142857D01*
X528449757Y-199142857D02*
X528521185Y-199071429D01*
X528521185Y-199071429D02*
X528664042Y-199000000D01*
X528664042Y-199000000D02*
X528949757Y-198928571D01*
X528949757Y-198928571D02*
X529306900Y-198928571D01*
X529306900Y-198928571D02*
X529592614Y-199000000D01*
X529592614Y-199000000D02*
X529735471Y-199071429D01*
X529735471Y-199071429D02*
X529806900Y-199142857D01*
X529806900Y-199142857D02*
X529878328Y-199285714D01*
X529878328Y-199285714D02*
X529878328Y-199428571D01*
X529878328Y-199428571D02*
X529806900Y-199571429D01*
X529806900Y-199571429D02*
X529735471Y-199642857D01*
X529735471Y-199642857D02*
X529592614Y-199714286D01*
X529592614Y-199714286D02*
X529306900Y-199785714D01*
X529306900Y-199785714D02*
X528949757Y-199785714D01*
X528949757Y-199785714D02*
X528664042Y-199714286D01*
X528664042Y-199714286D02*
X528521185Y-199642857D01*
X528521185Y-199642857D02*
X528449757Y-199571429D01*
X528449757Y-199571429D02*
X528378328Y-199428571D01*
X528378328Y-198000000D02*
X528378328Y-197857143D01*
X528378328Y-197857143D02*
X528449757Y-197714286D01*
X528449757Y-197714286D02*
X528521185Y-197642858D01*
X528521185Y-197642858D02*
X528664042Y-197571429D01*
X528664042Y-197571429D02*
X528949757Y-197500000D01*
X528949757Y-197500000D02*
X529306900Y-197500000D01*
X529306900Y-197500000D02*
X529592614Y-197571429D01*
X529592614Y-197571429D02*
X529735471Y-197642858D01*
X529735471Y-197642858D02*
X529806900Y-197714286D01*
X529806900Y-197714286D02*
X529878328Y-197857143D01*
X529878328Y-197857143D02*
X529878328Y-198000000D01*
X529878328Y-198000000D02*
X529806900Y-198142858D01*
X529806900Y-198142858D02*
X529735471Y-198214286D01*
X529735471Y-198214286D02*
X529592614Y-198285715D01*
X529592614Y-198285715D02*
X529306900Y-198357143D01*
X529306900Y-198357143D02*
X528949757Y-198357143D01*
X528949757Y-198357143D02*
X528664042Y-198285715D01*
X528664042Y-198285715D02*
X528521185Y-198214286D01*
X528521185Y-198214286D02*
X528449757Y-198142858D01*
X528449757Y-198142858D02*
X528378328Y-198000000D01*
X529878328Y-195714287D02*
X528878328Y-195714287D01*
X529021185Y-195714287D02*
X528949757Y-195642858D01*
X528949757Y-195642858D02*
X528878328Y-195500001D01*
X528878328Y-195500001D02*
X528878328Y-195285715D01*
X528878328Y-195285715D02*
X528949757Y-195142858D01*
X528949757Y-195142858D02*
X529092614Y-195071430D01*
X529092614Y-195071430D02*
X529878328Y-195071430D01*
X529092614Y-195071430D02*
X528949757Y-195000001D01*
X528949757Y-195000001D02*
X528878328Y-194857144D01*
X528878328Y-194857144D02*
X528878328Y-194642858D01*
X528878328Y-194642858D02*
X528949757Y-194500001D01*
X528949757Y-194500001D02*
X529092614Y-194428572D01*
X529092614Y-194428572D02*
X529878328Y-194428572D01*
X529878328Y-193714287D02*
X528878328Y-193714287D01*
X529021185Y-193714287D02*
X528949757Y-193642858D01*
X528949757Y-193642858D02*
X528878328Y-193500001D01*
X528878328Y-193500001D02*
X528878328Y-193285715D01*
X528878328Y-193285715D02*
X528949757Y-193142858D01*
X528949757Y-193142858D02*
X529092614Y-193071430D01*
X529092614Y-193071430D02*
X529878328Y-193071430D01*
X529092614Y-193071430D02*
X528949757Y-193000001D01*
X528949757Y-193000001D02*
X528878328Y-192857144D01*
X528878328Y-192857144D02*
X528878328Y-192642858D01*
X528878328Y-192642858D02*
X528949757Y-192500001D01*
X528949757Y-192500001D02*
X529092614Y-192428572D01*
X529092614Y-192428572D02*
X529878328Y-192428572D01*
D10*
X499500000Y-100000000D02*
X531586420Y-100000000D01*
X499500000Y-300000000D02*
X531586420Y-300000000D01*
X531000000Y-100000000D02*
X531000000Y-300000000D01*
X531000000Y-100000000D02*
X531000000Y-300000000D01*
X531000000Y-100000000D02*
X531586421Y-101126504D01*
X531000000Y-100000000D02*
X530413579Y-101126504D01*
X531000000Y-300000000D02*
X530413579Y-298873496D01*
X531000000Y-300000000D02*
X531586421Y-298873496D01*
D13*
%TO.P,,1*%
%TO.N,VCC*%
X364800000Y-158500000D03*
%TD*%
%TO.P,,1*%
%TO.N,VCC*%
X361000000Y-158400000D03*
%TD*%
%TO.P,,1*%
%TO.N,N/C*%
X315000000Y-163600000D03*
%TD*%
D14*
%TO.P,REF\u002A\u002A,1*%
%TO.N,GND*%
X351500000Y-212750000D03*
D15*
%TO.P,REF\u002A\u002A,2*%
%TO.N,VCC*%
X351500000Y-215290000D03*
%TO.P,REF\u002A\u002A,3*%
%TO.N,N/C*%
X351500000Y-217830000D03*
%TO.P,REF\u002A\u002A,4*%
X351500000Y-220370000D03*
%TO.P,REF\u002A\u002A,5*%
X351500000Y-222910000D03*
%TO.P,REF\u002A\u002A,6*%
X351500000Y-225450000D03*
%TD*%
D16*
%TO.P,REF\u002A\u002A,1*%
%TO.N,N/C*%
X374000000Y-162000000D03*
%TO.P,REF\u002A\u002A,2*%
X364000000Y-162000000D03*
%TD*%
D13*
%TO.P,,1*%
%TO.N,N/C*%
X315000000Y-183900000D03*
%TD*%
%TO.P,,1*%
%TO.N,N/C*%
X316900000Y-178900000D03*
%TD*%
%TO.P,REF\u002A\u002A,1*%
%TO.N,N/C*%
X347000000Y-178800000D03*
%TD*%
%TO.P,,1*%
%TO.N,N/C*%
X315000000Y-171300000D03*
%TD*%
%TO.P,,1*%
%TO.N,N/C*%
X337000000Y-205000000D03*
%TD*%
%TO.P,,1*%
%TO.N,N/C*%
X309000000Y-170000000D03*
%TD*%
%TO.P,,1*%
%TO.N,N/C*%
X315000000Y-189000000D03*
%TD*%
%TO.P,,1*%
%TO.N,N/C*%
X347000000Y-166100000D03*
%TD*%
%TO.P,,1*%
%TO.N,N/C*%
X317000000Y-166200000D03*
%TD*%
D14*
%TO.P,REF\u002A\u002A,1*%
%TO.N,GND*%
X381000000Y-187000000D03*
D15*
%TO.P,REF\u002A\u002A,2*%
%TO.N,VCC*%
X378460000Y-187000000D03*
%TO.P,REF\u002A\u002A,3*%
%TO.N,N/C*%
X375920000Y-187000000D03*
%TO.P,REF\u002A\u002A,4*%
X373380000Y-187000000D03*
%TO.P,REF\u002A\u002A,5*%
X370840000Y-187000000D03*
%TO.P,REF\u002A\u002A,6*%
X368300000Y-187000000D03*
%TD*%
D13*
%TO.P,,1*%
%TO.N,N/C*%
X327000000Y-205000000D03*
%TD*%
D17*
%TO.P,REF\u002A\u002A,1*%
%TO.N,VCC*%
X355500000Y-159500000D03*
%TO.P,REF\u002A\u002A,2*%
%TO.N,GND*%
X355500000Y-157500000D03*
%TD*%
D13*
%TO.P,,1*%
%TO.N,N/C*%
X359000000Y-152000000D03*
%TD*%
%TO.P,,1*%
%TO.N,N/C*%
X332000000Y-205000000D03*
%TD*%
%TO.P,,1*%
%TO.N,VCC*%
X351600000Y-204400000D03*
%TD*%
D16*
%TO.P,REF\u002A\u002A,1*%
%TO.N,N/C*%
X374000000Y-172500000D03*
%TO.P,REF\u002A\u002A,2*%
X364000000Y-172500000D03*
%TD*%
D13*
%TO.P,,1*%
%TO.N,N/C*%
X317000000Y-173700000D03*
%TD*%
D18*
%TO.P,REF\u002A\u002A,1*%
%TO.N,GND*%
X386040000Y-171500000D03*
D19*
%TO.P,REF\u002A\u002A,2*%
%TO.N,N/C*%
X383500000Y-171500000D03*
%TO.P,REF\u002A\u002A,3*%
X386040000Y-168960000D03*
%TO.P,REF\u002A\u002A,4*%
X383500000Y-168960000D03*
%TO.P,REF\u002A\u002A,5*%
X386040000Y-166420000D03*
%TO.P,REF\u002A\u002A,6*%
X383500000Y-166420000D03*
%TO.P,REF\u002A\u002A,7*%
X386040000Y-163880000D03*
%TO.P,REF\u002A\u002A,8*%
X383500000Y-163880000D03*
%TO.P,REF\u002A\u002A,9*%
X386040000Y-161340000D03*
%TO.P,REF\u002A\u002A,10*%
X383500000Y-161340000D03*
%TD*%
D13*
%TO.P,,1*%
%TO.N,N/C*%
X346000000Y-153300000D03*
%TD*%
%TO.P,,1*%
%TO.N,N/C*%
X315000000Y-176300000D03*
%TD*%
%TO.P,,1*%
%TO.N,N/C*%
X347000000Y-176200000D03*
%TD*%
D20*
%TO.P,REF\u002A\u002A,1*%
%TO.N,GND*%
X319000000Y-228300000D03*
D21*
%TO.P,REF\u002A\u002A,2*%
%TO.N,VCC*%
X324000000Y-223300000D03*
%TO.P,REF\u002A\u002A,3*%
X314000000Y-223300000D03*
%TO.P,REF\u002A\u002A,4*%
%TO.N,N/C*%
X321500000Y-223300000D03*
%TD*%
D13*
%TO.P,,1*%
%TO.N,N/C*%
X347000000Y-158400000D03*
%TD*%
D16*
%TO.P,REF\u002A\u002A,1*%
%TO.N,N/C*%
X374000000Y-165500000D03*
%TO.P,REF\u002A\u002A,2*%
X364000000Y-165500000D03*
%TD*%
%TO.P,REF\u002A\u002A,1*%
%TO.N,N/C*%
X374000000Y-169000000D03*
%TO.P,REF\u002A\u002A,2*%
X364000000Y-169000000D03*
%TD*%
D22*
%TO.P,REF\u002A\u002A,1*%
%TO.N,N/C*%
X348885001Y-150975001D03*
%TO.P,REF\u002A\u002A,2*%
X348885001Y-153024999D03*
%TO.P,REF\u002A\u002A,3*%
X350775000Y-152000000D03*
%TD*%
D16*
%TO.P,REF\u002A\u002A,1*%
%TO.N,N/C*%
X374000000Y-175900000D03*
%TO.P,REF\u002A\u002A,2*%
X364000000Y-175900000D03*
%TD*%
D13*
%TO.P,,1*%
%TO.N,N/C*%
X347000000Y-163500000D03*
%TD*%
%TO.P,,1*%
%TO.N,N/C*%
X317000000Y-186500000D03*
%TD*%
D15*
%TO.P,REF\u002A\u002A,1*%
%TO.N,N/C*%
X323110000Y-150870000D03*
D23*
X322210000Y-150870000D03*
D15*
%TO.P,REF\u002A\u002A,2*%
X323110000Y-153410000D03*
D23*
X322210000Y-153410000D03*
D14*
%TO.P,REF\u002A\u002A,3*%
%TO.N,GND*%
X323110000Y-155950000D03*
D23*
X322210000Y-155950000D03*
D15*
%TO.P,REF\u002A\u002A,4*%
%TO.N,N/C*%
X323110000Y-158490000D03*
D23*
X322210000Y-158490000D03*
D15*
%TO.P,REF\u002A\u002A,5*%
X323110000Y-161030000D03*
D23*
X322210000Y-161030000D03*
D15*
%TO.P,REF\u002A\u002A,6*%
X323110000Y-163570000D03*
D23*
X322210000Y-163570000D03*
D15*
%TO.P,REF\u002A\u002A,7*%
X323110000Y-166110000D03*
D23*
X322210000Y-166110000D03*
D14*
%TO.P,REF\u002A\u002A,8*%
%TO.N,GND*%
X323110000Y-168650000D03*
D23*
%TO.N,N/C*%
X322210000Y-168650000D03*
D15*
%TO.P,REF\u002A\u002A,9*%
X323110000Y-171190000D03*
D23*
X322210000Y-171190000D03*
D15*
%TO.P,REF\u002A\u002A,10*%
X323110000Y-173730000D03*
D23*
X322210000Y-173730000D03*
D15*
%TO.P,REF\u002A\u002A,11*%
X323110000Y-176270000D03*
D23*
X322210000Y-176270000D03*
D15*
%TO.P,REF\u002A\u002A,12*%
X323110000Y-178810000D03*
D23*
X322210000Y-178810000D03*
D14*
%TO.P,REF\u002A\u002A,13*%
%TO.N,GND*%
X323110000Y-181350000D03*
D23*
%TO.N,N/C*%
X322210000Y-181350000D03*
D15*
%TO.P,REF\u002A\u002A,14*%
X323110000Y-183890000D03*
D23*
X322210000Y-183890000D03*
D15*
%TO.P,REF\u002A\u002A,15*%
X323110000Y-186430000D03*
D23*
X322210000Y-186430000D03*
D15*
%TO.P,REF\u002A\u002A,16*%
X323110000Y-188970000D03*
D23*
X322210000Y-188970000D03*
D15*
%TO.P,REF\u002A\u002A,17*%
X323110000Y-191510000D03*
D23*
X322210000Y-191510000D03*
D14*
%TO.P,REF\u002A\u002A,18*%
%TO.N,GND*%
X323110000Y-194050000D03*
D23*
%TO.N,N/C*%
X322210000Y-194050000D03*
D15*
%TO.P,REF\u002A\u002A,19*%
X323110000Y-196590000D03*
D23*
X322210000Y-196590000D03*
D15*
%TO.P,REF\u002A\u002A,20*%
X323110000Y-199130000D03*
D23*
X322210000Y-199130000D03*
D15*
%TO.P,REF\u002A\u002A,21*%
X340890000Y-199130000D03*
D23*
X341790000Y-199130000D03*
D15*
%TO.P,REF\u002A\u002A,22*%
X340890000Y-196590000D03*
D23*
X341790000Y-196590000D03*
D14*
%TO.P,REF\u002A\u002A,23*%
%TO.N,GND*%
X340890000Y-194050000D03*
D23*
X341790000Y-194050000D03*
D15*
%TO.P,REF\u002A\u002A,24*%
%TO.N,N/C*%
X340890000Y-191510000D03*
D23*
X341790000Y-191510000D03*
D15*
%TO.P,REF\u002A\u002A,25*%
X340890000Y-188970000D03*
D23*
X341790000Y-188970000D03*
D15*
%TO.P,REF\u002A\u002A,26*%
X340890000Y-186430000D03*
D23*
X341790000Y-186430000D03*
D15*
%TO.P,REF\u002A\u002A,27*%
X340890000Y-183890000D03*
D23*
X341790000Y-183890000D03*
D14*
%TO.P,REF\u002A\u002A,28*%
%TO.N,GND*%
X340890000Y-181350000D03*
D23*
X341790000Y-181350000D03*
D15*
%TO.P,REF\u002A\u002A,29*%
%TO.N,N/C*%
X340890000Y-178810000D03*
D23*
X341790000Y-178810000D03*
D15*
%TO.P,REF\u002A\u002A,30*%
X340890000Y-176270000D03*
D23*
X341790000Y-176270000D03*
D15*
%TO.P,REF\u002A\u002A,31*%
X340890000Y-173730000D03*
D23*
X341790000Y-173730000D03*
D15*
%TO.P,REF\u002A\u002A,32*%
X340890000Y-171190000D03*
D23*
X341790000Y-171190000D03*
D14*
%TO.P,REF\u002A\u002A,33*%
%TO.N,GND*%
X340890000Y-168650000D03*
D23*
X341790000Y-168650000D03*
D15*
%TO.P,REF\u002A\u002A,34*%
%TO.N,N/C*%
X340890000Y-166110000D03*
D23*
X341790000Y-166110000D03*
D15*
%TO.P,REF\u002A\u002A,35*%
X340890000Y-163570000D03*
D23*
X341790000Y-163570000D03*
D15*
%TO.P,REF\u002A\u002A,36*%
%TO.N,VCC*%
X340890000Y-161030000D03*
D23*
X341790000Y-161030000D03*
D15*
%TO.P,REF\u002A\u002A,37*%
%TO.N,N/C*%
X340890000Y-158490000D03*
D23*
X341790000Y-158490000D03*
D14*
%TO.P,REF\u002A\u002A,38*%
%TO.N,GND*%
X340890000Y-155950000D03*
D23*
X341790000Y-155950000D03*
D15*
%TO.P,REF\u002A\u002A,39*%
%TO.N,N/C*%
X340890000Y-153410000D03*
D23*
X341790000Y-153410000D03*
D15*
%TO.P,REF\u002A\u002A,40*%
X340890000Y-150870000D03*
D23*
X341790000Y-150870000D03*
D15*
%TO.P,REF\u002A\u002A,41*%
X329460000Y-198900000D03*
D24*
X329460000Y-199800000D03*
D14*
%TO.P,REF\u002A\u002A,42*%
X332000000Y-198900000D03*
D24*
X332000000Y-199800000D03*
D15*
%TO.P,REF\u002A\u002A,43*%
X334540000Y-198900000D03*
D24*
X334540000Y-199800000D03*
%TD*%
D25*
%TO.P,REF\u002A\u002A,1*%
%TO.N,GND*%
X351200000Y-170500000D03*
%TO.P,REF\u002A\u002A,2*%
%TO.N,N/C*%
X351200000Y-172499999D03*
%TO.P,REF\u002A\u002A,3*%
X351200000Y-174500000D03*
%TO.P,REF\u002A\u002A,4*%
%TO.N,GND*%
X351200000Y-176499998D03*
%TD*%
D26*
%TO.N,*%
X340890000Y-199130000D02*
X353370000Y-199130000D01*
X314000000Y-206500000D02*
X314000000Y-194000000D01*
D27*
X319500000Y-163600000D02*
X323080000Y-163600000D01*
D26*
X358000000Y-184500000D02*
X358000000Y-171500000D01*
X347430000Y-173730000D02*
X340890000Y-173730000D01*
D27*
X323110000Y-176270000D02*
X323080000Y-176300000D01*
D26*
X310010000Y-158490000D02*
X323110000Y-158490000D01*
X317870000Y-199130000D02*
X323110000Y-199130000D01*
D27*
X332000000Y-198900000D02*
X332000000Y-205000000D01*
D26*
X311970000Y-161030000D02*
X323110000Y-161030000D01*
D27*
X346950000Y-158450000D02*
X347000000Y-158400000D01*
D26*
X387960000Y-168960000D02*
X389500000Y-170500000D01*
D27*
X323090000Y-188950000D02*
X323110000Y-188970000D01*
D26*
X357000000Y-169000000D02*
X364000000Y-162000000D01*
D27*
X345950000Y-153350000D02*
X346000000Y-153300000D01*
D26*
X327500000Y-215000000D02*
X311500000Y-215000000D01*
%TO.N,VCC*%
X355500000Y-181780000D02*
X353390000Y-183890000D01*
%TO.N,*%
X314000000Y-194000000D02*
X316490000Y-191510000D01*
X340890000Y-196590000D02*
X353410000Y-196590000D01*
X357000000Y-183500000D02*
X357000000Y-169000000D01*
X387000000Y-207500000D02*
X318000000Y-207500000D01*
D27*
X316950000Y-178850000D02*
X316900000Y-178900000D01*
D26*
X362000000Y-190500000D02*
X362000000Y-177900000D01*
D27*
X323110000Y-171190000D02*
X323050000Y-171250000D01*
D26*
X312500000Y-213500000D02*
X328500000Y-213500000D01*
X348195100Y-174495100D02*
X347430000Y-173730000D01*
D27*
X315050000Y-183850000D02*
X323070000Y-183850000D01*
D26*
X388000000Y-209500000D02*
X317000000Y-209500000D01*
X353490000Y-191510000D02*
X359000000Y-186000000D01*
X305000000Y-213500000D02*
X305000000Y-158000000D01*
X317500000Y-208500000D02*
X315000000Y-206000000D01*
X353370000Y-199130000D02*
X362000000Y-190500000D01*
X340890000Y-191510000D02*
X353490000Y-191510000D01*
D27*
X340890000Y-158490000D02*
X340930000Y-158450000D01*
X323080000Y-163600000D02*
X323110000Y-163570000D01*
X340890000Y-163570000D02*
X340960000Y-163500000D01*
D26*
X348885001Y-153024999D02*
X349024999Y-153024999D01*
D27*
X315000000Y-189000000D02*
X315050000Y-188950000D01*
X334540000Y-202540000D02*
X337000000Y-205000000D01*
D26*
X315000000Y-206000000D02*
X315000000Y-198500000D01*
D27*
X315000000Y-184000000D02*
X315000000Y-183900000D01*
D26*
X349024999Y-153024999D02*
X350000000Y-154000000D01*
X309000000Y-210000000D02*
X312500000Y-213500000D01*
X353410000Y-196590000D02*
X361000000Y-189000000D01*
D27*
X323090000Y-186450000D02*
X317050000Y-186450000D01*
X340960000Y-176200000D02*
X346810000Y-176200000D01*
D26*
%TO.N,VCC*%
X355500000Y-164000000D02*
X355500000Y-181780000D01*
%TO.N,*%
X390500000Y-169000000D02*
X390500000Y-205500000D01*
X350775000Y-152000000D02*
X359000000Y-152000000D01*
X310500000Y-216500000D02*
X306000000Y-212000000D01*
X387500000Y-208500000D02*
X317500000Y-208500000D01*
D27*
X340890000Y-153410000D02*
X340950000Y-153350000D01*
X340890000Y-176270000D02*
X340960000Y-176200000D01*
X323080000Y-176300000D02*
X315000000Y-176300000D01*
D26*
X351500000Y-222910000D02*
X332910000Y-222910000D01*
X326500000Y-216500000D02*
X310500000Y-216500000D01*
X309500000Y-218000000D02*
X305000000Y-213500000D01*
X390500000Y-205500000D02*
X387500000Y-208500000D01*
X311500000Y-215000000D02*
X307000000Y-210500000D01*
D27*
X329460000Y-202540000D02*
X329460000Y-198900000D01*
D26*
X307000000Y-166000000D02*
X311970000Y-161030000D01*
X387880000Y-163880000D02*
X391500000Y-167500000D01*
X306000000Y-212000000D02*
X306000000Y-162500000D01*
X332910000Y-222910000D02*
X326500000Y-216500000D01*
D27*
X323110000Y-163570000D02*
X315030000Y-163570000D01*
D26*
X358000000Y-171500000D02*
X364000000Y-165500000D01*
X332830000Y-217830000D02*
X351500000Y-217830000D01*
D27*
X327000000Y-205000000D02*
X329460000Y-202540000D01*
D26*
X306000000Y-162500000D02*
X310010000Y-158490000D01*
X325500000Y-218000000D02*
X309500000Y-218000000D01*
D27*
X315000000Y-183900000D02*
X315050000Y-183850000D01*
D26*
X362000000Y-177900000D02*
X364000000Y-175900000D01*
X389500000Y-205000000D02*
X387000000Y-207500000D01*
D27*
X315030000Y-163570000D02*
X315000000Y-163600000D01*
D26*
X359000000Y-174000000D02*
X364000000Y-169000000D01*
D27*
X340890000Y-166110000D02*
X340930000Y-166150000D01*
D26*
X307000000Y-210500000D02*
X307000000Y-166000000D01*
X317000000Y-196500000D02*
X323020000Y-196500000D01*
X340995001Y-150975001D02*
X348885001Y-150975001D01*
D27*
X323070000Y-178850000D02*
X316950000Y-178850000D01*
X315050000Y-188950000D02*
X323090000Y-188950000D01*
X317050000Y-186450000D02*
X317100000Y-186400000D01*
X315050000Y-171250000D02*
X315000000Y-171200000D01*
X323070000Y-183850000D02*
X323110000Y-183890000D01*
D26*
X349195099Y-172495099D02*
X347890000Y-171190000D01*
X351500000Y-225450000D02*
X332950000Y-225450000D01*
X391500000Y-167500000D02*
X391500000Y-206000000D01*
X350000000Y-154000000D02*
X378700000Y-154000000D01*
D27*
X340930000Y-166150000D02*
X346810000Y-166150000D01*
D26*
X353530000Y-188970000D02*
X358000000Y-184500000D01*
X316000000Y-201000000D02*
X317870000Y-199130000D01*
D27*
X340960000Y-163500000D02*
X346810000Y-163500000D01*
X323110000Y-173730000D02*
X323080000Y-173700000D01*
X323110000Y-186430000D02*
X323090000Y-186450000D01*
D26*
X347890000Y-171190000D02*
X340890000Y-171190000D01*
X351500000Y-220370000D02*
X332870000Y-220370000D01*
X386040000Y-163880000D02*
X387880000Y-163880000D01*
D27*
X323050000Y-171250000D02*
X315050000Y-171250000D01*
D26*
X361000000Y-189000000D02*
X361000000Y-175500000D01*
X318000000Y-207500000D02*
X316000000Y-205500000D01*
X328500000Y-213500000D02*
X332830000Y-217830000D01*
X332870000Y-220370000D02*
X327500000Y-215000000D01*
X351382600Y-172495099D02*
X349195099Y-172495099D01*
X340890000Y-186430000D02*
X354070000Y-186430000D01*
X315000000Y-198500000D02*
X317000000Y-196500000D01*
X387920000Y-166420000D02*
X390500000Y-169000000D01*
X354070000Y-186430000D02*
X357000000Y-183500000D01*
X359000000Y-186000000D02*
X359000000Y-174000000D01*
X378700000Y-154000000D02*
X386040000Y-161340000D01*
X340890000Y-188970000D02*
X353530000Y-188970000D01*
X389500000Y-170500000D02*
X389500000Y-205000000D01*
X386040000Y-166420000D02*
X387920000Y-166420000D01*
X316490000Y-191510000D02*
X323110000Y-191510000D01*
X317000000Y-209500000D02*
X314000000Y-206500000D01*
X361000000Y-175500000D02*
X364000000Y-172500000D01*
%TO.N,VCC*%
X361000000Y-158500000D02*
X355500000Y-164000000D01*
%TO.N,*%
X309590000Y-153410000D02*
X323110000Y-153410000D01*
X309000000Y-170000000D02*
X309000000Y-210000000D01*
D27*
X323110000Y-166110000D02*
X317090000Y-166110000D01*
X340900000Y-178800000D02*
X346810000Y-178800000D01*
D26*
X305000000Y-158000000D02*
X309590000Y-153410000D01*
D27*
X334540000Y-198900000D02*
X334540000Y-202540000D01*
D26*
X323020000Y-196500000D02*
X323110000Y-196590000D01*
D27*
X340930000Y-158450000D02*
X346950000Y-158450000D01*
D26*
X351382600Y-174495100D02*
X348195100Y-174495100D01*
D27*
X323080000Y-173700000D02*
X317000000Y-173700000D01*
X323110000Y-178810000D02*
X323070000Y-178850000D01*
D26*
X391500000Y-206000000D02*
X388000000Y-209500000D01*
%TO.N,VCC*%
X353390000Y-183890000D02*
X340890000Y-183890000D01*
D27*
%TO.N,*%
X340950000Y-153350000D02*
X345950000Y-153350000D01*
D26*
X340890000Y-150870000D02*
X340995001Y-150975001D01*
D27*
X317090000Y-166110000D02*
X317000000Y-166200000D01*
D26*
X332950000Y-225450000D02*
X325500000Y-218000000D01*
X316000000Y-205500000D02*
X316000000Y-201000000D01*
X386040000Y-168960000D02*
X387960000Y-168960000D01*
D27*
X340890000Y-178810000D02*
X340900000Y-178800000D01*
%TO.N,VCC*%
X340890000Y-161030000D02*
X353000000Y-161030000D01*
X366000000Y-156000000D02*
X368500000Y-158500000D01*
X359000000Y-156000000D02*
X366000000Y-156000000D01*
X354500000Y-160500000D02*
X355500000Y-159500000D01*
X355300000Y-204400000D02*
X351600000Y-204400000D01*
X364500000Y-185500000D02*
X364500000Y-195200000D01*
X368500000Y-181500000D02*
X364500000Y-185500000D01*
X364500000Y-195200000D02*
X355300000Y-204400000D01*
X353970000Y-161030000D02*
X354500000Y-160500000D01*
X355500000Y-159500000D02*
X359000000Y-156000000D01*
X353000000Y-161030000D02*
X353970000Y-161030000D01*
X368500000Y-158500000D02*
X368500000Y-181500000D01*
%TD*%
M02*
