%TF.GenerationSoftware,KiCad,Pcbnew,8.0.2*%
%TF.CreationDate,2024-05-27T09:17:52-04:00*%
%TF.ProjectId,GlassBreaker_KiCAD,476c6173-7342-4726-9561-6b65725f4b69,rev?*%
%TF.SameCoordinates,Original*%
%TF.FileFunction,Legend,Top*%
%TF.FilePolarity,Positive*%
%FSLAX46Y46*%
G04 Gerber Fmt 4.6, Leading zero omitted, Abs format (unit mm)*
G04 Created by KiCad (PCBNEW 8.0.2) date 2024-05-27 09:17:52*
%MOMM*%
%LPD*%
G01*
G04 APERTURE LIST*
%ADD10C,0.200000*%
%ADD11C,0.150000*%
%ADD12C,0.300000*%
%ADD13C,0.120000*%
%ADD14C,0.100000*%
%ADD15C,0.127000*%
%ADD16C,0.340000*%
%ADD17C,0.152400*%
G04 APERTURE END LIST*
D10*
X355500000Y-191000000D02*
X385500000Y-191000000D01*
X385500000Y-233000000D01*
X355500000Y-233000000D01*
X355500000Y-191000000D01*
D11*
X390170112Y-163846009D02*
X390312969Y-163893628D01*
X390312969Y-163893628D02*
X390360588Y-163941247D01*
X390360588Y-163941247D02*
X390408207Y-164036485D01*
X390408207Y-164036485D02*
X390408207Y-164179342D01*
X390408207Y-164179342D02*
X390360588Y-164274580D01*
X390360588Y-164274580D02*
X390312969Y-164322200D01*
X390312969Y-164322200D02*
X390217731Y-164369819D01*
X390217731Y-164369819D02*
X389836779Y-164369819D01*
X389836779Y-164369819D02*
X389836779Y-163369819D01*
X389836779Y-163369819D02*
X390170112Y-163369819D01*
X390170112Y-163369819D02*
X390265350Y-163417438D01*
X390265350Y-163417438D02*
X390312969Y-163465057D01*
X390312969Y-163465057D02*
X390360588Y-163560295D01*
X390360588Y-163560295D02*
X390360588Y-163655533D01*
X390360588Y-163655533D02*
X390312969Y-163750771D01*
X390312969Y-163750771D02*
X390265350Y-163798390D01*
X390265350Y-163798390D02*
X390170112Y-163846009D01*
X390170112Y-163846009D02*
X389836779Y-163846009D01*
X390693922Y-163369819D02*
X391265350Y-163369819D01*
X390979636Y-164369819D02*
X390979636Y-163369819D01*
X391598684Y-164369819D02*
X391598684Y-163369819D01*
X391598684Y-163369819D02*
X392170112Y-164369819D01*
X392170112Y-164369819D02*
X392170112Y-163369819D01*
X393170112Y-164369819D02*
X392598684Y-164369819D01*
X392884398Y-164369819D02*
X392884398Y-163369819D01*
X392884398Y-163369819D02*
X392789160Y-163512676D01*
X392789160Y-163512676D02*
X392693922Y-163607914D01*
X392693922Y-163607914D02*
X392598684Y-163655533D01*
D12*
X348516917Y-222270600D02*
X348302632Y-222199171D01*
X348302632Y-222199171D02*
X347945489Y-222199171D01*
X347945489Y-222199171D02*
X347802632Y-222270600D01*
X347802632Y-222270600D02*
X347731203Y-222342028D01*
X347731203Y-222342028D02*
X347659774Y-222484885D01*
X347659774Y-222484885D02*
X347659774Y-222627742D01*
X347659774Y-222627742D02*
X347731203Y-222770600D01*
X347731203Y-222770600D02*
X347802632Y-222842028D01*
X347802632Y-222842028D02*
X347945489Y-222913457D01*
X347945489Y-222913457D02*
X348231203Y-222984885D01*
X348231203Y-222984885D02*
X348374060Y-223056314D01*
X348374060Y-223056314D02*
X348445489Y-223127742D01*
X348445489Y-223127742D02*
X348516917Y-223270600D01*
X348516917Y-223270600D02*
X348516917Y-223413457D01*
X348516917Y-223413457D02*
X348445489Y-223556314D01*
X348445489Y-223556314D02*
X348374060Y-223627742D01*
X348374060Y-223627742D02*
X348231203Y-223699171D01*
X348231203Y-223699171D02*
X347874060Y-223699171D01*
X347874060Y-223699171D02*
X347659774Y-223627742D01*
X346159775Y-222342028D02*
X346231203Y-222270600D01*
X346231203Y-222270600D02*
X346445489Y-222199171D01*
X346445489Y-222199171D02*
X346588346Y-222199171D01*
X346588346Y-222199171D02*
X346802632Y-222270600D01*
X346802632Y-222270600D02*
X346945489Y-222413457D01*
X346945489Y-222413457D02*
X347016918Y-222556314D01*
X347016918Y-222556314D02*
X347088346Y-222842028D01*
X347088346Y-222842028D02*
X347088346Y-223056314D01*
X347088346Y-223056314D02*
X347016918Y-223342028D01*
X347016918Y-223342028D02*
X346945489Y-223484885D01*
X346945489Y-223484885D02*
X346802632Y-223627742D01*
X346802632Y-223627742D02*
X346588346Y-223699171D01*
X346588346Y-223699171D02*
X346445489Y-223699171D01*
X346445489Y-223699171D02*
X346231203Y-223627742D01*
X346231203Y-223627742D02*
X346159775Y-223556314D01*
X345516918Y-222199171D02*
X345516918Y-223699171D01*
X344659775Y-222199171D02*
X345302632Y-223056314D01*
X344659775Y-223699171D02*
X345516918Y-222842028D01*
D10*
X353774435Y-151367219D02*
X354393482Y-151367219D01*
X354393482Y-151367219D02*
X354060149Y-151748171D01*
X354060149Y-151748171D02*
X354203006Y-151748171D01*
X354203006Y-151748171D02*
X354298244Y-151795790D01*
X354298244Y-151795790D02*
X354345863Y-151843409D01*
X354345863Y-151843409D02*
X354393482Y-151938647D01*
X354393482Y-151938647D02*
X354393482Y-152176742D01*
X354393482Y-152176742D02*
X354345863Y-152271980D01*
X354345863Y-152271980D02*
X354298244Y-152319600D01*
X354298244Y-152319600D02*
X354203006Y-152367219D01*
X354203006Y-152367219D02*
X353917292Y-152367219D01*
X353917292Y-152367219D02*
X353822054Y-152319600D01*
X353822054Y-152319600D02*
X353774435Y-152271980D01*
X354726816Y-152367219D02*
X355250625Y-151700552D01*
X354726816Y-151700552D02*
X355250625Y-152367219D01*
X355583959Y-152081504D02*
X356060149Y-152081504D01*
X355488721Y-152367219D02*
X355822054Y-151367219D01*
X355822054Y-151367219D02*
X356155387Y-152367219D01*
X356441102Y-152081504D02*
X356917292Y-152081504D01*
X356345864Y-152367219D02*
X356679197Y-151367219D01*
X356679197Y-151367219D02*
X357012530Y-152367219D01*
X357298245Y-152081504D02*
X357774435Y-152081504D01*
X357203007Y-152367219D02*
X357536340Y-151367219D01*
X357536340Y-151367219D02*
X357869673Y-152367219D01*
D12*
X366983082Y-159229400D02*
X367197368Y-159300828D01*
X367197368Y-159300828D02*
X367554510Y-159300828D01*
X367554510Y-159300828D02*
X367697368Y-159229400D01*
X367697368Y-159229400D02*
X367768796Y-159157971D01*
X367768796Y-159157971D02*
X367840225Y-159015114D01*
X367840225Y-159015114D02*
X367840225Y-158872257D01*
X367840225Y-158872257D02*
X367768796Y-158729400D01*
X367768796Y-158729400D02*
X367697368Y-158657971D01*
X367697368Y-158657971D02*
X367554510Y-158586542D01*
X367554510Y-158586542D02*
X367268796Y-158515114D01*
X367268796Y-158515114D02*
X367125939Y-158443685D01*
X367125939Y-158443685D02*
X367054510Y-158372257D01*
X367054510Y-158372257D02*
X366983082Y-158229400D01*
X366983082Y-158229400D02*
X366983082Y-158086542D01*
X366983082Y-158086542D02*
X367054510Y-157943685D01*
X367054510Y-157943685D02*
X367125939Y-157872257D01*
X367125939Y-157872257D02*
X367268796Y-157800828D01*
X367268796Y-157800828D02*
X367625939Y-157800828D01*
X367625939Y-157800828D02*
X367840225Y-157872257D01*
X368697367Y-159300828D02*
X368554510Y-159229400D01*
X368554510Y-159229400D02*
X368483081Y-159157971D01*
X368483081Y-159157971D02*
X368411653Y-159015114D01*
X368411653Y-159015114D02*
X368411653Y-158586542D01*
X368411653Y-158586542D02*
X368483081Y-158443685D01*
X368483081Y-158443685D02*
X368554510Y-158372257D01*
X368554510Y-158372257D02*
X368697367Y-158300828D01*
X368697367Y-158300828D02*
X368911653Y-158300828D01*
X368911653Y-158300828D02*
X369054510Y-158372257D01*
X369054510Y-158372257D02*
X369125939Y-158443685D01*
X369125939Y-158443685D02*
X369197367Y-158586542D01*
X369197367Y-158586542D02*
X369197367Y-159015114D01*
X369197367Y-159015114D02*
X369125939Y-159157971D01*
X369125939Y-159157971D02*
X369054510Y-159229400D01*
X369054510Y-159229400D02*
X368911653Y-159300828D01*
X368911653Y-159300828D02*
X368697367Y-159300828D01*
X369840224Y-158300828D02*
X369840224Y-159300828D01*
X369840224Y-158443685D02*
X369911653Y-158372257D01*
X369911653Y-158372257D02*
X370054510Y-158300828D01*
X370054510Y-158300828D02*
X370268796Y-158300828D01*
X370268796Y-158300828D02*
X370411653Y-158372257D01*
X370411653Y-158372257D02*
X370483082Y-158515114D01*
X370483082Y-158515114D02*
X370483082Y-159300828D01*
X376550828Y-184445489D02*
X375050828Y-184445489D01*
X375050828Y-184445489D02*
X376122257Y-183945489D01*
X376122257Y-183945489D02*
X375050828Y-183445489D01*
X375050828Y-183445489D02*
X376550828Y-183445489D01*
X376550828Y-182731203D02*
X375050828Y-182731203D01*
X376479400Y-182088345D02*
X376550828Y-181874060D01*
X376550828Y-181874060D02*
X376550828Y-181516917D01*
X376550828Y-181516917D02*
X376479400Y-181374060D01*
X376479400Y-181374060D02*
X376407971Y-181302631D01*
X376407971Y-181302631D02*
X376265114Y-181231202D01*
X376265114Y-181231202D02*
X376122257Y-181231202D01*
X376122257Y-181231202D02*
X375979400Y-181302631D01*
X375979400Y-181302631D02*
X375907971Y-181374060D01*
X375907971Y-181374060D02*
X375836542Y-181516917D01*
X375836542Y-181516917D02*
X375765114Y-181802631D01*
X375765114Y-181802631D02*
X375693685Y-181945488D01*
X375693685Y-181945488D02*
X375622257Y-182016917D01*
X375622257Y-182016917D02*
X375479400Y-182088345D01*
X375479400Y-182088345D02*
X375336542Y-182088345D01*
X375336542Y-182088345D02*
X375193685Y-182016917D01*
X375193685Y-182016917D02*
X375122257Y-181945488D01*
X375122257Y-181945488D02*
X375050828Y-181802631D01*
X375050828Y-181802631D02*
X375050828Y-181445488D01*
X375050828Y-181445488D02*
X375122257Y-181231202D01*
X375050828Y-180302631D02*
X375050828Y-180016917D01*
X375050828Y-180016917D02*
X375122257Y-179874060D01*
X375122257Y-179874060D02*
X375265114Y-179731203D01*
X375265114Y-179731203D02*
X375550828Y-179659774D01*
X375550828Y-179659774D02*
X376050828Y-179659774D01*
X376050828Y-179659774D02*
X376336542Y-179731203D01*
X376336542Y-179731203D02*
X376479400Y-179874060D01*
X376479400Y-179874060D02*
X376550828Y-180016917D01*
X376550828Y-180016917D02*
X376550828Y-180302631D01*
X376550828Y-180302631D02*
X376479400Y-180445489D01*
X376479400Y-180445489D02*
X376336542Y-180588346D01*
X376336542Y-180588346D02*
X376050828Y-180659774D01*
X376050828Y-180659774D02*
X375550828Y-180659774D01*
X375550828Y-180659774D02*
X375265114Y-180588346D01*
X375265114Y-180588346D02*
X375122257Y-180445489D01*
X375122257Y-180445489D02*
X375050828Y-180302631D01*
X347659774Y-213377742D02*
X347802632Y-213449171D01*
X347802632Y-213449171D02*
X348016917Y-213449171D01*
X348016917Y-213449171D02*
X348231203Y-213377742D01*
X348231203Y-213377742D02*
X348374060Y-213234885D01*
X348374060Y-213234885D02*
X348445489Y-213092028D01*
X348445489Y-213092028D02*
X348516917Y-212806314D01*
X348516917Y-212806314D02*
X348516917Y-212592028D01*
X348516917Y-212592028D02*
X348445489Y-212306314D01*
X348445489Y-212306314D02*
X348374060Y-212163457D01*
X348374060Y-212163457D02*
X348231203Y-212020600D01*
X348231203Y-212020600D02*
X348016917Y-211949171D01*
X348016917Y-211949171D02*
X347874060Y-211949171D01*
X347874060Y-211949171D02*
X347659774Y-212020600D01*
X347659774Y-212020600D02*
X347588346Y-212092028D01*
X347588346Y-212092028D02*
X347588346Y-212592028D01*
X347588346Y-212592028D02*
X347874060Y-212592028D01*
X346945489Y-211949171D02*
X346945489Y-213449171D01*
X346945489Y-213449171D02*
X346088346Y-211949171D01*
X346088346Y-211949171D02*
X346088346Y-213449171D01*
X345374060Y-211949171D02*
X345374060Y-213449171D01*
X345374060Y-213449171D02*
X345016917Y-213449171D01*
X345016917Y-213449171D02*
X344802631Y-213377742D01*
X344802631Y-213377742D02*
X344659774Y-213234885D01*
X344659774Y-213234885D02*
X344588345Y-213092028D01*
X344588345Y-213092028D02*
X344516917Y-212806314D01*
X344516917Y-212806314D02*
X344516917Y-212592028D01*
X344516917Y-212592028D02*
X344588345Y-212306314D01*
X344588345Y-212306314D02*
X344659774Y-212163457D01*
X344659774Y-212163457D02*
X344802631Y-212020600D01*
X344802631Y-212020600D02*
X345016917Y-211949171D01*
X345016917Y-211949171D02*
X345374060Y-211949171D01*
X347588346Y-224842028D02*
X347659774Y-224770600D01*
X347659774Y-224770600D02*
X347874060Y-224699171D01*
X347874060Y-224699171D02*
X348016917Y-224699171D01*
X348016917Y-224699171D02*
X348231203Y-224770600D01*
X348231203Y-224770600D02*
X348374060Y-224913457D01*
X348374060Y-224913457D02*
X348445489Y-225056314D01*
X348445489Y-225056314D02*
X348516917Y-225342028D01*
X348516917Y-225342028D02*
X348516917Y-225556314D01*
X348516917Y-225556314D02*
X348445489Y-225842028D01*
X348445489Y-225842028D02*
X348374060Y-225984885D01*
X348374060Y-225984885D02*
X348231203Y-226127742D01*
X348231203Y-226127742D02*
X348016917Y-226199171D01*
X348016917Y-226199171D02*
X347874060Y-226199171D01*
X347874060Y-226199171D02*
X347659774Y-226127742D01*
X347659774Y-226127742D02*
X347588346Y-226056314D01*
X347016917Y-224770600D02*
X346802632Y-224699171D01*
X346802632Y-224699171D02*
X346445489Y-224699171D01*
X346445489Y-224699171D02*
X346302632Y-224770600D01*
X346302632Y-224770600D02*
X346231203Y-224842028D01*
X346231203Y-224842028D02*
X346159774Y-224984885D01*
X346159774Y-224984885D02*
X346159774Y-225127742D01*
X346159774Y-225127742D02*
X346231203Y-225270600D01*
X346231203Y-225270600D02*
X346302632Y-225342028D01*
X346302632Y-225342028D02*
X346445489Y-225413457D01*
X346445489Y-225413457D02*
X346731203Y-225484885D01*
X346731203Y-225484885D02*
X346874060Y-225556314D01*
X346874060Y-225556314D02*
X346945489Y-225627742D01*
X346945489Y-225627742D02*
X347016917Y-225770600D01*
X347016917Y-225770600D02*
X347016917Y-225913457D01*
X347016917Y-225913457D02*
X346945489Y-226056314D01*
X346945489Y-226056314D02*
X346874060Y-226127742D01*
X346874060Y-226127742D02*
X346731203Y-226199171D01*
X346731203Y-226199171D02*
X346374060Y-226199171D01*
X346374060Y-226199171D02*
X346159774Y-226127742D01*
D11*
X389693922Y-160869819D02*
X390027255Y-161869819D01*
X390027255Y-161869819D02*
X390360588Y-160869819D01*
X391265350Y-161774580D02*
X391217731Y-161822200D01*
X391217731Y-161822200D02*
X391074874Y-161869819D01*
X391074874Y-161869819D02*
X390979636Y-161869819D01*
X390979636Y-161869819D02*
X390836779Y-161822200D01*
X390836779Y-161822200D02*
X390741541Y-161726961D01*
X390741541Y-161726961D02*
X390693922Y-161631723D01*
X390693922Y-161631723D02*
X390646303Y-161441247D01*
X390646303Y-161441247D02*
X390646303Y-161298390D01*
X390646303Y-161298390D02*
X390693922Y-161107914D01*
X390693922Y-161107914D02*
X390741541Y-161012676D01*
X390741541Y-161012676D02*
X390836779Y-160917438D01*
X390836779Y-160917438D02*
X390979636Y-160869819D01*
X390979636Y-160869819D02*
X391074874Y-160869819D01*
X391074874Y-160869819D02*
X391217731Y-160917438D01*
X391217731Y-160917438D02*
X391265350Y-160965057D01*
X392265350Y-161774580D02*
X392217731Y-161822200D01*
X392217731Y-161822200D02*
X392074874Y-161869819D01*
X392074874Y-161869819D02*
X391979636Y-161869819D01*
X391979636Y-161869819D02*
X391836779Y-161822200D01*
X391836779Y-161822200D02*
X391741541Y-161726961D01*
X391741541Y-161726961D02*
X391693922Y-161631723D01*
X391693922Y-161631723D02*
X391646303Y-161441247D01*
X391646303Y-161441247D02*
X391646303Y-161298390D01*
X391646303Y-161298390D02*
X391693922Y-161107914D01*
X391693922Y-161107914D02*
X391741541Y-161012676D01*
X391741541Y-161012676D02*
X391836779Y-160917438D01*
X391836779Y-160917438D02*
X391979636Y-160869819D01*
X391979636Y-160869819D02*
X392074874Y-160869819D01*
X392074874Y-160869819D02*
X392217731Y-160917438D01*
X392217731Y-160917438D02*
X392265350Y-160965057D01*
D12*
X380372257Y-183659774D02*
X380300828Y-183802632D01*
X380300828Y-183802632D02*
X380300828Y-184016917D01*
X380300828Y-184016917D02*
X380372257Y-184231203D01*
X380372257Y-184231203D02*
X380515114Y-184374060D01*
X380515114Y-184374060D02*
X380657971Y-184445489D01*
X380657971Y-184445489D02*
X380943685Y-184516917D01*
X380943685Y-184516917D02*
X381157971Y-184516917D01*
X381157971Y-184516917D02*
X381443685Y-184445489D01*
X381443685Y-184445489D02*
X381586542Y-184374060D01*
X381586542Y-184374060D02*
X381729400Y-184231203D01*
X381729400Y-184231203D02*
X381800828Y-184016917D01*
X381800828Y-184016917D02*
X381800828Y-183874060D01*
X381800828Y-183874060D02*
X381729400Y-183659774D01*
X381729400Y-183659774D02*
X381657971Y-183588346D01*
X381657971Y-183588346D02*
X381157971Y-183588346D01*
X381157971Y-183588346D02*
X381157971Y-183874060D01*
X381800828Y-182945489D02*
X380300828Y-182945489D01*
X380300828Y-182945489D02*
X381800828Y-182088346D01*
X381800828Y-182088346D02*
X380300828Y-182088346D01*
X381800828Y-181374060D02*
X380300828Y-181374060D01*
X380300828Y-181374060D02*
X380300828Y-181016917D01*
X380300828Y-181016917D02*
X380372257Y-180802631D01*
X380372257Y-180802631D02*
X380515114Y-180659774D01*
X380515114Y-180659774D02*
X380657971Y-180588345D01*
X380657971Y-180588345D02*
X380943685Y-180516917D01*
X380943685Y-180516917D02*
X381157971Y-180516917D01*
X381157971Y-180516917D02*
X381443685Y-180588345D01*
X381443685Y-180588345D02*
X381586542Y-180659774D01*
X381586542Y-180659774D02*
X381729400Y-180802631D01*
X381729400Y-180802631D02*
X381800828Y-181016917D01*
X381800828Y-181016917D02*
X381800828Y-181374060D01*
D11*
X390360588Y-170917438D02*
X390265350Y-170869819D01*
X390265350Y-170869819D02*
X390122493Y-170869819D01*
X390122493Y-170869819D02*
X389979636Y-170917438D01*
X389979636Y-170917438D02*
X389884398Y-171012676D01*
X389884398Y-171012676D02*
X389836779Y-171107914D01*
X389836779Y-171107914D02*
X389789160Y-171298390D01*
X389789160Y-171298390D02*
X389789160Y-171441247D01*
X389789160Y-171441247D02*
X389836779Y-171631723D01*
X389836779Y-171631723D02*
X389884398Y-171726961D01*
X389884398Y-171726961D02*
X389979636Y-171822200D01*
X389979636Y-171822200D02*
X390122493Y-171869819D01*
X390122493Y-171869819D02*
X390217731Y-171869819D01*
X390217731Y-171869819D02*
X390360588Y-171822200D01*
X390360588Y-171822200D02*
X390408207Y-171774580D01*
X390408207Y-171774580D02*
X390408207Y-171441247D01*
X390408207Y-171441247D02*
X390217731Y-171441247D01*
X390836779Y-171869819D02*
X390836779Y-170869819D01*
X390836779Y-170869819D02*
X391408207Y-171869819D01*
X391408207Y-171869819D02*
X391408207Y-170869819D01*
X391884398Y-171869819D02*
X391884398Y-170869819D01*
X391884398Y-170869819D02*
X392122493Y-170869819D01*
X392122493Y-170869819D02*
X392265350Y-170917438D01*
X392265350Y-170917438D02*
X392360588Y-171012676D01*
X392360588Y-171012676D02*
X392408207Y-171107914D01*
X392408207Y-171107914D02*
X392455826Y-171298390D01*
X392455826Y-171298390D02*
X392455826Y-171441247D01*
X392455826Y-171441247D02*
X392408207Y-171631723D01*
X392408207Y-171631723D02*
X392360588Y-171726961D01*
X392360588Y-171726961D02*
X392265350Y-171822200D01*
X392265350Y-171822200D02*
X392122493Y-171869819D01*
X392122493Y-171869819D02*
X391884398Y-171869819D01*
X376812969Y-161869819D02*
X376336779Y-161869819D01*
X376336779Y-161869819D02*
X376336779Y-160869819D01*
X377146303Y-161346009D02*
X377479636Y-161346009D01*
X377622493Y-161869819D02*
X377146303Y-161869819D01*
X377146303Y-161869819D02*
X377146303Y-160869819D01*
X377146303Y-160869819D02*
X377622493Y-160869819D01*
X378051065Y-161869819D02*
X378051065Y-160869819D01*
X378051065Y-160869819D02*
X378289160Y-160869819D01*
X378289160Y-160869819D02*
X378432017Y-160917438D01*
X378432017Y-160917438D02*
X378527255Y-161012676D01*
X378527255Y-161012676D02*
X378574874Y-161107914D01*
X378574874Y-161107914D02*
X378622493Y-161298390D01*
X378622493Y-161298390D02*
X378622493Y-161441247D01*
X378622493Y-161441247D02*
X378574874Y-161631723D01*
X378574874Y-161631723D02*
X378527255Y-161726961D01*
X378527255Y-161726961D02*
X378432017Y-161822200D01*
X378432017Y-161822200D02*
X378289160Y-161869819D01*
X378289160Y-161869819D02*
X378051065Y-161869819D01*
X379574874Y-161869819D02*
X379003446Y-161869819D01*
X379289160Y-161869819D02*
X379289160Y-160869819D01*
X379289160Y-160869819D02*
X379193922Y-161012676D01*
X379193922Y-161012676D02*
X379098684Y-161107914D01*
X379098684Y-161107914D02*
X379003446Y-161155533D01*
X376812969Y-171869819D02*
X376336779Y-171869819D01*
X376336779Y-171869819D02*
X376336779Y-170869819D01*
X377146303Y-171346009D02*
X377479636Y-171346009D01*
X377622493Y-171869819D02*
X377146303Y-171869819D01*
X377146303Y-171869819D02*
X377146303Y-170869819D01*
X377146303Y-170869819D02*
X377622493Y-170869819D01*
X378051065Y-171869819D02*
X378051065Y-170869819D01*
X378051065Y-170869819D02*
X378289160Y-170869819D01*
X378289160Y-170869819D02*
X378432017Y-170917438D01*
X378432017Y-170917438D02*
X378527255Y-171012676D01*
X378527255Y-171012676D02*
X378574874Y-171107914D01*
X378574874Y-171107914D02*
X378622493Y-171298390D01*
X378622493Y-171298390D02*
X378622493Y-171441247D01*
X378622493Y-171441247D02*
X378574874Y-171631723D01*
X378574874Y-171631723D02*
X378527255Y-171726961D01*
X378527255Y-171726961D02*
X378432017Y-171822200D01*
X378432017Y-171822200D02*
X378289160Y-171869819D01*
X378289160Y-171869819D02*
X378051065Y-171869819D01*
X379527255Y-170869819D02*
X379051065Y-170869819D01*
X379051065Y-170869819D02*
X379003446Y-171346009D01*
X379003446Y-171346009D02*
X379051065Y-171298390D01*
X379051065Y-171298390D02*
X379146303Y-171250771D01*
X379146303Y-171250771D02*
X379384398Y-171250771D01*
X379384398Y-171250771D02*
X379479636Y-171298390D01*
X379479636Y-171298390D02*
X379527255Y-171346009D01*
X379527255Y-171346009D02*
X379574874Y-171441247D01*
X379574874Y-171441247D02*
X379574874Y-171679342D01*
X379574874Y-171679342D02*
X379527255Y-171774580D01*
X379527255Y-171774580D02*
X379479636Y-171822200D01*
X379479636Y-171822200D02*
X379384398Y-171869819D01*
X379384398Y-171869819D02*
X379146303Y-171869819D01*
X379146303Y-171869819D02*
X379051065Y-171822200D01*
X379051065Y-171822200D02*
X379003446Y-171774580D01*
X376812969Y-169369819D02*
X376336779Y-169369819D01*
X376336779Y-169369819D02*
X376336779Y-168369819D01*
X377146303Y-168846009D02*
X377479636Y-168846009D01*
X377622493Y-169369819D02*
X377146303Y-169369819D01*
X377146303Y-169369819D02*
X377146303Y-168369819D01*
X377146303Y-168369819D02*
X377622493Y-168369819D01*
X378051065Y-169369819D02*
X378051065Y-168369819D01*
X378051065Y-168369819D02*
X378289160Y-168369819D01*
X378289160Y-168369819D02*
X378432017Y-168417438D01*
X378432017Y-168417438D02*
X378527255Y-168512676D01*
X378527255Y-168512676D02*
X378574874Y-168607914D01*
X378574874Y-168607914D02*
X378622493Y-168798390D01*
X378622493Y-168798390D02*
X378622493Y-168941247D01*
X378622493Y-168941247D02*
X378574874Y-169131723D01*
X378574874Y-169131723D02*
X378527255Y-169226961D01*
X378527255Y-169226961D02*
X378432017Y-169322200D01*
X378432017Y-169322200D02*
X378289160Y-169369819D01*
X378289160Y-169369819D02*
X378051065Y-169369819D01*
X379479636Y-168703152D02*
X379479636Y-169369819D01*
X379241541Y-168322200D02*
X379003446Y-169036485D01*
X379003446Y-169036485D02*
X379622493Y-169036485D01*
D12*
X348659774Y-216199171D02*
X348159774Y-214699171D01*
X348159774Y-214699171D02*
X347659774Y-216199171D01*
X346302632Y-214842028D02*
X346374060Y-214770600D01*
X346374060Y-214770600D02*
X346588346Y-214699171D01*
X346588346Y-214699171D02*
X346731203Y-214699171D01*
X346731203Y-214699171D02*
X346945489Y-214770600D01*
X346945489Y-214770600D02*
X347088346Y-214913457D01*
X347088346Y-214913457D02*
X347159775Y-215056314D01*
X347159775Y-215056314D02*
X347231203Y-215342028D01*
X347231203Y-215342028D02*
X347231203Y-215556314D01*
X347231203Y-215556314D02*
X347159775Y-215842028D01*
X347159775Y-215842028D02*
X347088346Y-215984885D01*
X347088346Y-215984885D02*
X346945489Y-216127742D01*
X346945489Y-216127742D02*
X346731203Y-216199171D01*
X346731203Y-216199171D02*
X346588346Y-216199171D01*
X346588346Y-216199171D02*
X346374060Y-216127742D01*
X346374060Y-216127742D02*
X346302632Y-216056314D01*
X344802632Y-214842028D02*
X344874060Y-214770600D01*
X344874060Y-214770600D02*
X345088346Y-214699171D01*
X345088346Y-214699171D02*
X345231203Y-214699171D01*
X345231203Y-214699171D02*
X345445489Y-214770600D01*
X345445489Y-214770600D02*
X345588346Y-214913457D01*
X345588346Y-214913457D02*
X345659775Y-215056314D01*
X345659775Y-215056314D02*
X345731203Y-215342028D01*
X345731203Y-215342028D02*
X345731203Y-215556314D01*
X345731203Y-215556314D02*
X345659775Y-215842028D01*
X345659775Y-215842028D02*
X345588346Y-215984885D01*
X345588346Y-215984885D02*
X345445489Y-216127742D01*
X345445489Y-216127742D02*
X345231203Y-216199171D01*
X345231203Y-216199171D02*
X345088346Y-216199171D01*
X345088346Y-216199171D02*
X344874060Y-216127742D01*
X344874060Y-216127742D02*
X344802632Y-216056314D01*
X374050828Y-184445489D02*
X372550828Y-184445489D01*
X372550828Y-184445489D02*
X373622257Y-183945489D01*
X373622257Y-183945489D02*
X372550828Y-183445489D01*
X372550828Y-183445489D02*
X374050828Y-183445489D01*
X372550828Y-182445488D02*
X372550828Y-182159774D01*
X372550828Y-182159774D02*
X372622257Y-182016917D01*
X372622257Y-182016917D02*
X372765114Y-181874060D01*
X372765114Y-181874060D02*
X373050828Y-181802631D01*
X373050828Y-181802631D02*
X373550828Y-181802631D01*
X373550828Y-181802631D02*
X373836542Y-181874060D01*
X373836542Y-181874060D02*
X373979400Y-182016917D01*
X373979400Y-182016917D02*
X374050828Y-182159774D01*
X374050828Y-182159774D02*
X374050828Y-182445488D01*
X374050828Y-182445488D02*
X373979400Y-182588346D01*
X373979400Y-182588346D02*
X373836542Y-182731203D01*
X373836542Y-182731203D02*
X373550828Y-182802631D01*
X373550828Y-182802631D02*
X373050828Y-182802631D01*
X373050828Y-182802631D02*
X372765114Y-182731203D01*
X372765114Y-182731203D02*
X372622257Y-182588346D01*
X372622257Y-182588346D02*
X372550828Y-182445488D01*
X373979400Y-181231202D02*
X374050828Y-181016917D01*
X374050828Y-181016917D02*
X374050828Y-180659774D01*
X374050828Y-180659774D02*
X373979400Y-180516917D01*
X373979400Y-180516917D02*
X373907971Y-180445488D01*
X373907971Y-180445488D02*
X373765114Y-180374059D01*
X373765114Y-180374059D02*
X373622257Y-180374059D01*
X373622257Y-180374059D02*
X373479400Y-180445488D01*
X373479400Y-180445488D02*
X373407971Y-180516917D01*
X373407971Y-180516917D02*
X373336542Y-180659774D01*
X373336542Y-180659774D02*
X373265114Y-180945488D01*
X373265114Y-180945488D02*
X373193685Y-181088345D01*
X373193685Y-181088345D02*
X373122257Y-181159774D01*
X373122257Y-181159774D02*
X372979400Y-181231202D01*
X372979400Y-181231202D02*
X372836542Y-181231202D01*
X372836542Y-181231202D02*
X372693685Y-181159774D01*
X372693685Y-181159774D02*
X372622257Y-181088345D01*
X372622257Y-181088345D02*
X372550828Y-180945488D01*
X372550828Y-180945488D02*
X372550828Y-180588345D01*
X372550828Y-180588345D02*
X372622257Y-180374059D01*
X374050828Y-179731203D02*
X372550828Y-179731203D01*
X377550828Y-184659774D02*
X379050828Y-184159774D01*
X379050828Y-184159774D02*
X377550828Y-183659774D01*
X378907971Y-182302632D02*
X378979400Y-182374060D01*
X378979400Y-182374060D02*
X379050828Y-182588346D01*
X379050828Y-182588346D02*
X379050828Y-182731203D01*
X379050828Y-182731203D02*
X378979400Y-182945489D01*
X378979400Y-182945489D02*
X378836542Y-183088346D01*
X378836542Y-183088346D02*
X378693685Y-183159775D01*
X378693685Y-183159775D02*
X378407971Y-183231203D01*
X378407971Y-183231203D02*
X378193685Y-183231203D01*
X378193685Y-183231203D02*
X377907971Y-183159775D01*
X377907971Y-183159775D02*
X377765114Y-183088346D01*
X377765114Y-183088346D02*
X377622257Y-182945489D01*
X377622257Y-182945489D02*
X377550828Y-182731203D01*
X377550828Y-182731203D02*
X377550828Y-182588346D01*
X377550828Y-182588346D02*
X377622257Y-182374060D01*
X377622257Y-182374060D02*
X377693685Y-182302632D01*
X378907971Y-180802632D02*
X378979400Y-180874060D01*
X378979400Y-180874060D02*
X379050828Y-181088346D01*
X379050828Y-181088346D02*
X379050828Y-181231203D01*
X379050828Y-181231203D02*
X378979400Y-181445489D01*
X378979400Y-181445489D02*
X378836542Y-181588346D01*
X378836542Y-181588346D02*
X378693685Y-181659775D01*
X378693685Y-181659775D02*
X378407971Y-181731203D01*
X378407971Y-181731203D02*
X378193685Y-181731203D01*
X378193685Y-181731203D02*
X377907971Y-181659775D01*
X377907971Y-181659775D02*
X377765114Y-181588346D01*
X377765114Y-181588346D02*
X377622257Y-181445489D01*
X377622257Y-181445489D02*
X377550828Y-181231203D01*
X377550828Y-181231203D02*
X377550828Y-181088346D01*
X377550828Y-181088346D02*
X377622257Y-180874060D01*
X377622257Y-180874060D02*
X377693685Y-180802632D01*
X348445489Y-219699171D02*
X348445489Y-221199171D01*
X348445489Y-221199171D02*
X347945489Y-220127742D01*
X347945489Y-220127742D02*
X347445489Y-221199171D01*
X347445489Y-221199171D02*
X347445489Y-219699171D01*
X346445488Y-221199171D02*
X346159774Y-221199171D01*
X346159774Y-221199171D02*
X346016917Y-221127742D01*
X346016917Y-221127742D02*
X345874060Y-220984885D01*
X345874060Y-220984885D02*
X345802631Y-220699171D01*
X345802631Y-220699171D02*
X345802631Y-220199171D01*
X345802631Y-220199171D02*
X345874060Y-219913457D01*
X345874060Y-219913457D02*
X346016917Y-219770600D01*
X346016917Y-219770600D02*
X346159774Y-219699171D01*
X346159774Y-219699171D02*
X346445488Y-219699171D01*
X346445488Y-219699171D02*
X346588346Y-219770600D01*
X346588346Y-219770600D02*
X346731203Y-219913457D01*
X346731203Y-219913457D02*
X346802631Y-220199171D01*
X346802631Y-220199171D02*
X346802631Y-220699171D01*
X346802631Y-220699171D02*
X346731203Y-220984885D01*
X346731203Y-220984885D02*
X346588346Y-221127742D01*
X346588346Y-221127742D02*
X346445488Y-221199171D01*
X345231202Y-219770600D02*
X345016917Y-219699171D01*
X345016917Y-219699171D02*
X344659774Y-219699171D01*
X344659774Y-219699171D02*
X344516917Y-219770600D01*
X344516917Y-219770600D02*
X344445488Y-219842028D01*
X344445488Y-219842028D02*
X344374059Y-219984885D01*
X344374059Y-219984885D02*
X344374059Y-220127742D01*
X344374059Y-220127742D02*
X344445488Y-220270600D01*
X344445488Y-220270600D02*
X344516917Y-220342028D01*
X344516917Y-220342028D02*
X344659774Y-220413457D01*
X344659774Y-220413457D02*
X344945488Y-220484885D01*
X344945488Y-220484885D02*
X345088345Y-220556314D01*
X345088345Y-220556314D02*
X345159774Y-220627742D01*
X345159774Y-220627742D02*
X345231202Y-220770600D01*
X345231202Y-220770600D02*
X345231202Y-220913457D01*
X345231202Y-220913457D02*
X345159774Y-221056314D01*
X345159774Y-221056314D02*
X345088345Y-221127742D01*
X345088345Y-221127742D02*
X344945488Y-221199171D01*
X344945488Y-221199171D02*
X344588345Y-221199171D01*
X344588345Y-221199171D02*
X344374059Y-221127742D01*
X343731203Y-219699171D02*
X343731203Y-221199171D01*
D11*
X376812969Y-164369819D02*
X376336779Y-164369819D01*
X376336779Y-164369819D02*
X376336779Y-163369819D01*
X377146303Y-163846009D02*
X377479636Y-163846009D01*
X377622493Y-164369819D02*
X377146303Y-164369819D01*
X377146303Y-164369819D02*
X377146303Y-163369819D01*
X377146303Y-163369819D02*
X377622493Y-163369819D01*
X378051065Y-164369819D02*
X378051065Y-163369819D01*
X378051065Y-163369819D02*
X378289160Y-163369819D01*
X378289160Y-163369819D02*
X378432017Y-163417438D01*
X378432017Y-163417438D02*
X378527255Y-163512676D01*
X378527255Y-163512676D02*
X378574874Y-163607914D01*
X378574874Y-163607914D02*
X378622493Y-163798390D01*
X378622493Y-163798390D02*
X378622493Y-163941247D01*
X378622493Y-163941247D02*
X378574874Y-164131723D01*
X378574874Y-164131723D02*
X378527255Y-164226961D01*
X378527255Y-164226961D02*
X378432017Y-164322200D01*
X378432017Y-164322200D02*
X378289160Y-164369819D01*
X378289160Y-164369819D02*
X378051065Y-164369819D01*
X379003446Y-163465057D02*
X379051065Y-163417438D01*
X379051065Y-163417438D02*
X379146303Y-163369819D01*
X379146303Y-163369819D02*
X379384398Y-163369819D01*
X379384398Y-163369819D02*
X379479636Y-163417438D01*
X379479636Y-163417438D02*
X379527255Y-163465057D01*
X379527255Y-163465057D02*
X379574874Y-163560295D01*
X379574874Y-163560295D02*
X379574874Y-163655533D01*
X379574874Y-163655533D02*
X379527255Y-163798390D01*
X379527255Y-163798390D02*
X378955827Y-164369819D01*
X378955827Y-164369819D02*
X379574874Y-164369819D01*
X390170112Y-168846009D02*
X390312969Y-168893628D01*
X390312969Y-168893628D02*
X390360588Y-168941247D01*
X390360588Y-168941247D02*
X390408207Y-169036485D01*
X390408207Y-169036485D02*
X390408207Y-169179342D01*
X390408207Y-169179342D02*
X390360588Y-169274580D01*
X390360588Y-169274580D02*
X390312969Y-169322200D01*
X390312969Y-169322200D02*
X390217731Y-169369819D01*
X390217731Y-169369819D02*
X389836779Y-169369819D01*
X389836779Y-169369819D02*
X389836779Y-168369819D01*
X389836779Y-168369819D02*
X390170112Y-168369819D01*
X390170112Y-168369819D02*
X390265350Y-168417438D01*
X390265350Y-168417438D02*
X390312969Y-168465057D01*
X390312969Y-168465057D02*
X390360588Y-168560295D01*
X390360588Y-168560295D02*
X390360588Y-168655533D01*
X390360588Y-168655533D02*
X390312969Y-168750771D01*
X390312969Y-168750771D02*
X390265350Y-168798390D01*
X390265350Y-168798390D02*
X390170112Y-168846009D01*
X390170112Y-168846009D02*
X389836779Y-168846009D01*
X390693922Y-168369819D02*
X391265350Y-168369819D01*
X390979636Y-169369819D02*
X390979636Y-168369819D01*
X391598684Y-169369819D02*
X391598684Y-168369819D01*
X391598684Y-168369819D02*
X392170112Y-169369819D01*
X392170112Y-169369819D02*
X392170112Y-168369819D01*
X392551065Y-168369819D02*
X393170112Y-168369819D01*
X393170112Y-168369819D02*
X392836779Y-168750771D01*
X392836779Y-168750771D02*
X392979636Y-168750771D01*
X392979636Y-168750771D02*
X393074874Y-168798390D01*
X393074874Y-168798390D02*
X393122493Y-168846009D01*
X393122493Y-168846009D02*
X393170112Y-168941247D01*
X393170112Y-168941247D02*
X393170112Y-169179342D01*
X393170112Y-169179342D02*
X393122493Y-169274580D01*
X393122493Y-169274580D02*
X393074874Y-169322200D01*
X393074874Y-169322200D02*
X392979636Y-169369819D01*
X392979636Y-169369819D02*
X392693922Y-169369819D01*
X392693922Y-169369819D02*
X392598684Y-169322200D01*
X392598684Y-169322200D02*
X392551065Y-169274580D01*
D10*
X352869673Y-175367219D02*
X352869673Y-174367219D01*
X352869673Y-174367219D02*
X353203006Y-175081504D01*
X353203006Y-175081504D02*
X353536339Y-174367219D01*
X353536339Y-174367219D02*
X353536339Y-175367219D01*
X354155387Y-175367219D02*
X354060149Y-175319600D01*
X354060149Y-175319600D02*
X354012530Y-175271980D01*
X354012530Y-175271980D02*
X353964911Y-175176742D01*
X353964911Y-175176742D02*
X353964911Y-174891028D01*
X353964911Y-174891028D02*
X354012530Y-174795790D01*
X354012530Y-174795790D02*
X354060149Y-174748171D01*
X354060149Y-174748171D02*
X354155387Y-174700552D01*
X354155387Y-174700552D02*
X354298244Y-174700552D01*
X354298244Y-174700552D02*
X354393482Y-174748171D01*
X354393482Y-174748171D02*
X354441101Y-174795790D01*
X354441101Y-174795790D02*
X354488720Y-174891028D01*
X354488720Y-174891028D02*
X354488720Y-175176742D01*
X354488720Y-175176742D02*
X354441101Y-175271980D01*
X354441101Y-175271980D02*
X354393482Y-175319600D01*
X354393482Y-175319600D02*
X354298244Y-175367219D01*
X354298244Y-175367219D02*
X354155387Y-175367219D01*
X354774435Y-174700552D02*
X355155387Y-174700552D01*
X354917292Y-174367219D02*
X354917292Y-175224361D01*
X354917292Y-175224361D02*
X354964911Y-175319600D01*
X354964911Y-175319600D02*
X355060149Y-175367219D01*
X355060149Y-175367219D02*
X355155387Y-175367219D01*
X355869673Y-175319600D02*
X355774435Y-175367219D01*
X355774435Y-175367219D02*
X355583959Y-175367219D01*
X355583959Y-175367219D02*
X355488721Y-175319600D01*
X355488721Y-175319600D02*
X355441102Y-175224361D01*
X355441102Y-175224361D02*
X355441102Y-174843409D01*
X355441102Y-174843409D02*
X355488721Y-174748171D01*
X355488721Y-174748171D02*
X355583959Y-174700552D01*
X355583959Y-174700552D02*
X355774435Y-174700552D01*
X355774435Y-174700552D02*
X355869673Y-174748171D01*
X355869673Y-174748171D02*
X355917292Y-174843409D01*
X355917292Y-174843409D02*
X355917292Y-174938647D01*
X355917292Y-174938647D02*
X355441102Y-175033885D01*
X356774435Y-174700552D02*
X356774435Y-175367219D01*
X356345864Y-174700552D02*
X356345864Y-175224361D01*
X356345864Y-175224361D02*
X356393483Y-175319600D01*
X356393483Y-175319600D02*
X356488721Y-175367219D01*
X356488721Y-175367219D02*
X356631578Y-175367219D01*
X356631578Y-175367219D02*
X356726816Y-175319600D01*
X356726816Y-175319600D02*
X356774435Y-175271980D01*
X357250626Y-175367219D02*
X357250626Y-174700552D01*
X357250626Y-174891028D02*
X357298245Y-174795790D01*
X357298245Y-174795790D02*
X357345864Y-174748171D01*
X357345864Y-174748171D02*
X357441102Y-174700552D01*
X357441102Y-174700552D02*
X357536340Y-174700552D01*
X358631579Y-175367219D02*
X358631579Y-174367219D01*
X358631579Y-174367219D02*
X358869674Y-174367219D01*
X358869674Y-174367219D02*
X359012531Y-174414838D01*
X359012531Y-174414838D02*
X359107769Y-174510076D01*
X359107769Y-174510076D02*
X359155388Y-174605314D01*
X359155388Y-174605314D02*
X359203007Y-174795790D01*
X359203007Y-174795790D02*
X359203007Y-174938647D01*
X359203007Y-174938647D02*
X359155388Y-175129123D01*
X359155388Y-175129123D02*
X359107769Y-175224361D01*
X359107769Y-175224361D02*
X359012531Y-175319600D01*
X359012531Y-175319600D02*
X358869674Y-175367219D01*
X358869674Y-175367219D02*
X358631579Y-175367219D01*
D12*
X368907971Y-183588346D02*
X368979400Y-183659774D01*
X368979400Y-183659774D02*
X369050828Y-183874060D01*
X369050828Y-183874060D02*
X369050828Y-184016917D01*
X369050828Y-184016917D02*
X368979400Y-184231203D01*
X368979400Y-184231203D02*
X368836542Y-184374060D01*
X368836542Y-184374060D02*
X368693685Y-184445489D01*
X368693685Y-184445489D02*
X368407971Y-184516917D01*
X368407971Y-184516917D02*
X368193685Y-184516917D01*
X368193685Y-184516917D02*
X367907971Y-184445489D01*
X367907971Y-184445489D02*
X367765114Y-184374060D01*
X367765114Y-184374060D02*
X367622257Y-184231203D01*
X367622257Y-184231203D02*
X367550828Y-184016917D01*
X367550828Y-184016917D02*
X367550828Y-183874060D01*
X367550828Y-183874060D02*
X367622257Y-183659774D01*
X367622257Y-183659774D02*
X367693685Y-183588346D01*
X368979400Y-183016917D02*
X369050828Y-182802632D01*
X369050828Y-182802632D02*
X369050828Y-182445489D01*
X369050828Y-182445489D02*
X368979400Y-182302632D01*
X368979400Y-182302632D02*
X368907971Y-182231203D01*
X368907971Y-182231203D02*
X368765114Y-182159774D01*
X368765114Y-182159774D02*
X368622257Y-182159774D01*
X368622257Y-182159774D02*
X368479400Y-182231203D01*
X368479400Y-182231203D02*
X368407971Y-182302632D01*
X368407971Y-182302632D02*
X368336542Y-182445489D01*
X368336542Y-182445489D02*
X368265114Y-182731203D01*
X368265114Y-182731203D02*
X368193685Y-182874060D01*
X368193685Y-182874060D02*
X368122257Y-182945489D01*
X368122257Y-182945489D02*
X367979400Y-183016917D01*
X367979400Y-183016917D02*
X367836542Y-183016917D01*
X367836542Y-183016917D02*
X367693685Y-182945489D01*
X367693685Y-182945489D02*
X367622257Y-182874060D01*
X367622257Y-182874060D02*
X367550828Y-182731203D01*
X367550828Y-182731203D02*
X367550828Y-182374060D01*
X367550828Y-182374060D02*
X367622257Y-182159774D01*
D11*
X376812969Y-166869819D02*
X376336779Y-166869819D01*
X376336779Y-166869819D02*
X376336779Y-165869819D01*
X377146303Y-166346009D02*
X377479636Y-166346009D01*
X377622493Y-166869819D02*
X377146303Y-166869819D01*
X377146303Y-166869819D02*
X377146303Y-165869819D01*
X377146303Y-165869819D02*
X377622493Y-165869819D01*
X378051065Y-166869819D02*
X378051065Y-165869819D01*
X378051065Y-165869819D02*
X378289160Y-165869819D01*
X378289160Y-165869819D02*
X378432017Y-165917438D01*
X378432017Y-165917438D02*
X378527255Y-166012676D01*
X378527255Y-166012676D02*
X378574874Y-166107914D01*
X378574874Y-166107914D02*
X378622493Y-166298390D01*
X378622493Y-166298390D02*
X378622493Y-166441247D01*
X378622493Y-166441247D02*
X378574874Y-166631723D01*
X378574874Y-166631723D02*
X378527255Y-166726961D01*
X378527255Y-166726961D02*
X378432017Y-166822200D01*
X378432017Y-166822200D02*
X378289160Y-166869819D01*
X378289160Y-166869819D02*
X378051065Y-166869819D01*
X378955827Y-165869819D02*
X379574874Y-165869819D01*
X379574874Y-165869819D02*
X379241541Y-166250771D01*
X379241541Y-166250771D02*
X379384398Y-166250771D01*
X379384398Y-166250771D02*
X379479636Y-166298390D01*
X379479636Y-166298390D02*
X379527255Y-166346009D01*
X379527255Y-166346009D02*
X379574874Y-166441247D01*
X379574874Y-166441247D02*
X379574874Y-166679342D01*
X379574874Y-166679342D02*
X379527255Y-166774580D01*
X379527255Y-166774580D02*
X379479636Y-166822200D01*
X379479636Y-166822200D02*
X379384398Y-166869819D01*
X379384398Y-166869819D02*
X379098684Y-166869819D01*
X379098684Y-166869819D02*
X379003446Y-166822200D01*
X379003446Y-166822200D02*
X378955827Y-166774580D01*
X390170112Y-166346009D02*
X390312969Y-166393628D01*
X390312969Y-166393628D02*
X390360588Y-166441247D01*
X390360588Y-166441247D02*
X390408207Y-166536485D01*
X390408207Y-166536485D02*
X390408207Y-166679342D01*
X390408207Y-166679342D02*
X390360588Y-166774580D01*
X390360588Y-166774580D02*
X390312969Y-166822200D01*
X390312969Y-166822200D02*
X390217731Y-166869819D01*
X390217731Y-166869819D02*
X389836779Y-166869819D01*
X389836779Y-166869819D02*
X389836779Y-165869819D01*
X389836779Y-165869819D02*
X390170112Y-165869819D01*
X390170112Y-165869819D02*
X390265350Y-165917438D01*
X390265350Y-165917438D02*
X390312969Y-165965057D01*
X390312969Y-165965057D02*
X390360588Y-166060295D01*
X390360588Y-166060295D02*
X390360588Y-166155533D01*
X390360588Y-166155533D02*
X390312969Y-166250771D01*
X390312969Y-166250771D02*
X390265350Y-166298390D01*
X390265350Y-166298390D02*
X390170112Y-166346009D01*
X390170112Y-166346009D02*
X389836779Y-166346009D01*
X390693922Y-165869819D02*
X391265350Y-165869819D01*
X390979636Y-166869819D02*
X390979636Y-165869819D01*
X391598684Y-166869819D02*
X391598684Y-165869819D01*
X391598684Y-165869819D02*
X392170112Y-166869819D01*
X392170112Y-166869819D02*
X392170112Y-165869819D01*
X392598684Y-165965057D02*
X392646303Y-165917438D01*
X392646303Y-165917438D02*
X392741541Y-165869819D01*
X392741541Y-165869819D02*
X392979636Y-165869819D01*
X392979636Y-165869819D02*
X393074874Y-165917438D01*
X393074874Y-165917438D02*
X393122493Y-165965057D01*
X393122493Y-165965057D02*
X393170112Y-166060295D01*
X393170112Y-166060295D02*
X393170112Y-166155533D01*
X393170112Y-166155533D02*
X393122493Y-166298390D01*
X393122493Y-166298390D02*
X392551065Y-166869819D01*
X392551065Y-166869819D02*
X393170112Y-166869819D01*
D10*
X367393482Y-151414838D02*
X367298244Y-151367219D01*
X367298244Y-151367219D02*
X367155387Y-151367219D01*
X367155387Y-151367219D02*
X367012530Y-151414838D01*
X367012530Y-151414838D02*
X366917292Y-151510076D01*
X366917292Y-151510076D02*
X366869673Y-151605314D01*
X366869673Y-151605314D02*
X366822054Y-151795790D01*
X366822054Y-151795790D02*
X366822054Y-151938647D01*
X366822054Y-151938647D02*
X366869673Y-152129123D01*
X366869673Y-152129123D02*
X366917292Y-152224361D01*
X366917292Y-152224361D02*
X367012530Y-152319600D01*
X367012530Y-152319600D02*
X367155387Y-152367219D01*
X367155387Y-152367219D02*
X367250625Y-152367219D01*
X367250625Y-152367219D02*
X367393482Y-152319600D01*
X367393482Y-152319600D02*
X367441101Y-152271980D01*
X367441101Y-152271980D02*
X367441101Y-151938647D01*
X367441101Y-151938647D02*
X367250625Y-151938647D01*
X367869673Y-152367219D02*
X367869673Y-151367219D01*
X367869673Y-151367219D02*
X368441101Y-152367219D01*
X368441101Y-152367219D02*
X368441101Y-151367219D01*
X368917292Y-152367219D02*
X368917292Y-151367219D01*
X368917292Y-151367219D02*
X369155387Y-151367219D01*
X369155387Y-151367219D02*
X369298244Y-151414838D01*
X369298244Y-151414838D02*
X369393482Y-151510076D01*
X369393482Y-151510076D02*
X369441101Y-151605314D01*
X369441101Y-151605314D02*
X369488720Y-151795790D01*
X369488720Y-151795790D02*
X369488720Y-151938647D01*
X369488720Y-151938647D02*
X369441101Y-152129123D01*
X369441101Y-152129123D02*
X369393482Y-152224361D01*
X369393482Y-152224361D02*
X369298244Y-152319600D01*
X369298244Y-152319600D02*
X369155387Y-152367219D01*
X369155387Y-152367219D02*
X368917292Y-152367219D01*
D12*
X348445489Y-217199171D02*
X348445489Y-218699171D01*
X348445489Y-218699171D02*
X347945489Y-217627742D01*
X347945489Y-217627742D02*
X347445489Y-218699171D01*
X347445489Y-218699171D02*
X347445489Y-217199171D01*
X346731203Y-217199171D02*
X346731203Y-218699171D01*
X346088345Y-217270600D02*
X345874060Y-217199171D01*
X345874060Y-217199171D02*
X345516917Y-217199171D01*
X345516917Y-217199171D02*
X345374060Y-217270600D01*
X345374060Y-217270600D02*
X345302631Y-217342028D01*
X345302631Y-217342028D02*
X345231202Y-217484885D01*
X345231202Y-217484885D02*
X345231202Y-217627742D01*
X345231202Y-217627742D02*
X345302631Y-217770600D01*
X345302631Y-217770600D02*
X345374060Y-217842028D01*
X345374060Y-217842028D02*
X345516917Y-217913457D01*
X345516917Y-217913457D02*
X345802631Y-217984885D01*
X345802631Y-217984885D02*
X345945488Y-218056314D01*
X345945488Y-218056314D02*
X346016917Y-218127742D01*
X346016917Y-218127742D02*
X346088345Y-218270600D01*
X346088345Y-218270600D02*
X346088345Y-218413457D01*
X346088345Y-218413457D02*
X346016917Y-218556314D01*
X346016917Y-218556314D02*
X345945488Y-218627742D01*
X345945488Y-218627742D02*
X345802631Y-218699171D01*
X345802631Y-218699171D02*
X345445488Y-218699171D01*
X345445488Y-218699171D02*
X345231202Y-218627742D01*
X344302631Y-218699171D02*
X344016917Y-218699171D01*
X344016917Y-218699171D02*
X343874060Y-218627742D01*
X343874060Y-218627742D02*
X343731203Y-218484885D01*
X343731203Y-218484885D02*
X343659774Y-218199171D01*
X343659774Y-218199171D02*
X343659774Y-217699171D01*
X343659774Y-217699171D02*
X343731203Y-217413457D01*
X343731203Y-217413457D02*
X343874060Y-217270600D01*
X343874060Y-217270600D02*
X344016917Y-217199171D01*
X344016917Y-217199171D02*
X344302631Y-217199171D01*
X344302631Y-217199171D02*
X344445489Y-217270600D01*
X344445489Y-217270600D02*
X344588346Y-217413457D01*
X344588346Y-217413457D02*
X344659774Y-217699171D01*
X344659774Y-217699171D02*
X344659774Y-218199171D01*
X344659774Y-218199171D02*
X344588346Y-218484885D01*
X344588346Y-218484885D02*
X344445489Y-218627742D01*
X344445489Y-218627742D02*
X344302631Y-218699171D01*
D10*
X352869673Y-172867219D02*
X352869673Y-171867219D01*
X352869673Y-171867219D02*
X353203006Y-172581504D01*
X353203006Y-172581504D02*
X353536339Y-171867219D01*
X353536339Y-171867219D02*
X353536339Y-172867219D01*
X354155387Y-172867219D02*
X354060149Y-172819600D01*
X354060149Y-172819600D02*
X354012530Y-172771980D01*
X354012530Y-172771980D02*
X353964911Y-172676742D01*
X353964911Y-172676742D02*
X353964911Y-172391028D01*
X353964911Y-172391028D02*
X354012530Y-172295790D01*
X354012530Y-172295790D02*
X354060149Y-172248171D01*
X354060149Y-172248171D02*
X354155387Y-172200552D01*
X354155387Y-172200552D02*
X354298244Y-172200552D01*
X354298244Y-172200552D02*
X354393482Y-172248171D01*
X354393482Y-172248171D02*
X354441101Y-172295790D01*
X354441101Y-172295790D02*
X354488720Y-172391028D01*
X354488720Y-172391028D02*
X354488720Y-172676742D01*
X354488720Y-172676742D02*
X354441101Y-172771980D01*
X354441101Y-172771980D02*
X354393482Y-172819600D01*
X354393482Y-172819600D02*
X354298244Y-172867219D01*
X354298244Y-172867219D02*
X354155387Y-172867219D01*
X354774435Y-172200552D02*
X355155387Y-172200552D01*
X354917292Y-171867219D02*
X354917292Y-172724361D01*
X354917292Y-172724361D02*
X354964911Y-172819600D01*
X354964911Y-172819600D02*
X355060149Y-172867219D01*
X355060149Y-172867219D02*
X355155387Y-172867219D01*
X355869673Y-172819600D02*
X355774435Y-172867219D01*
X355774435Y-172867219D02*
X355583959Y-172867219D01*
X355583959Y-172867219D02*
X355488721Y-172819600D01*
X355488721Y-172819600D02*
X355441102Y-172724361D01*
X355441102Y-172724361D02*
X355441102Y-172343409D01*
X355441102Y-172343409D02*
X355488721Y-172248171D01*
X355488721Y-172248171D02*
X355583959Y-172200552D01*
X355583959Y-172200552D02*
X355774435Y-172200552D01*
X355774435Y-172200552D02*
X355869673Y-172248171D01*
X355869673Y-172248171D02*
X355917292Y-172343409D01*
X355917292Y-172343409D02*
X355917292Y-172438647D01*
X355917292Y-172438647D02*
X355441102Y-172533885D01*
X356774435Y-172200552D02*
X356774435Y-172867219D01*
X356345864Y-172200552D02*
X356345864Y-172724361D01*
X356345864Y-172724361D02*
X356393483Y-172819600D01*
X356393483Y-172819600D02*
X356488721Y-172867219D01*
X356488721Y-172867219D02*
X356631578Y-172867219D01*
X356631578Y-172867219D02*
X356726816Y-172819600D01*
X356726816Y-172819600D02*
X356774435Y-172771980D01*
X357250626Y-172867219D02*
X357250626Y-172200552D01*
X357250626Y-172391028D02*
X357298245Y-172295790D01*
X357298245Y-172295790D02*
X357345864Y-172248171D01*
X357345864Y-172248171D02*
X357441102Y-172200552D01*
X357441102Y-172200552D02*
X357536340Y-172200552D01*
X359155388Y-171914838D02*
X359060150Y-171867219D01*
X359060150Y-171867219D02*
X358917293Y-171867219D01*
X358917293Y-171867219D02*
X358774436Y-171914838D01*
X358774436Y-171914838D02*
X358679198Y-172010076D01*
X358679198Y-172010076D02*
X358631579Y-172105314D01*
X358631579Y-172105314D02*
X358583960Y-172295790D01*
X358583960Y-172295790D02*
X358583960Y-172438647D01*
X358583960Y-172438647D02*
X358631579Y-172629123D01*
X358631579Y-172629123D02*
X358679198Y-172724361D01*
X358679198Y-172724361D02*
X358774436Y-172819600D01*
X358774436Y-172819600D02*
X358917293Y-172867219D01*
X358917293Y-172867219D02*
X359012531Y-172867219D01*
X359012531Y-172867219D02*
X359155388Y-172819600D01*
X359155388Y-172819600D02*
X359203007Y-172771980D01*
X359203007Y-172771980D02*
X359203007Y-172438647D01*
X359203007Y-172438647D02*
X359012531Y-172438647D01*
D12*
X371479400Y-184516917D02*
X371550828Y-184302632D01*
X371550828Y-184302632D02*
X371550828Y-183945489D01*
X371550828Y-183945489D02*
X371479400Y-183802632D01*
X371479400Y-183802632D02*
X371407971Y-183731203D01*
X371407971Y-183731203D02*
X371265114Y-183659774D01*
X371265114Y-183659774D02*
X371122257Y-183659774D01*
X371122257Y-183659774D02*
X370979400Y-183731203D01*
X370979400Y-183731203D02*
X370907971Y-183802632D01*
X370907971Y-183802632D02*
X370836542Y-183945489D01*
X370836542Y-183945489D02*
X370765114Y-184231203D01*
X370765114Y-184231203D02*
X370693685Y-184374060D01*
X370693685Y-184374060D02*
X370622257Y-184445489D01*
X370622257Y-184445489D02*
X370479400Y-184516917D01*
X370479400Y-184516917D02*
X370336542Y-184516917D01*
X370336542Y-184516917D02*
X370193685Y-184445489D01*
X370193685Y-184445489D02*
X370122257Y-184374060D01*
X370122257Y-184374060D02*
X370050828Y-184231203D01*
X370050828Y-184231203D02*
X370050828Y-183874060D01*
X370050828Y-183874060D02*
X370122257Y-183659774D01*
X371407971Y-182159775D02*
X371479400Y-182231203D01*
X371479400Y-182231203D02*
X371550828Y-182445489D01*
X371550828Y-182445489D02*
X371550828Y-182588346D01*
X371550828Y-182588346D02*
X371479400Y-182802632D01*
X371479400Y-182802632D02*
X371336542Y-182945489D01*
X371336542Y-182945489D02*
X371193685Y-183016918D01*
X371193685Y-183016918D02*
X370907971Y-183088346D01*
X370907971Y-183088346D02*
X370693685Y-183088346D01*
X370693685Y-183088346D02*
X370407971Y-183016918D01*
X370407971Y-183016918D02*
X370265114Y-182945489D01*
X370265114Y-182945489D02*
X370122257Y-182802632D01*
X370122257Y-182802632D02*
X370050828Y-182588346D01*
X370050828Y-182588346D02*
X370050828Y-182445489D01*
X370050828Y-182445489D02*
X370122257Y-182231203D01*
X370122257Y-182231203D02*
X370193685Y-182159775D01*
X371550828Y-181516918D02*
X370050828Y-181516918D01*
X371550828Y-180659775D02*
X370693685Y-181302632D01*
X370050828Y-180659775D02*
X370907971Y-181516918D01*
D11*
X371519818Y-170562856D02*
X371519818Y-169896190D01*
X371519818Y-169896190D02*
X372519818Y-170324761D01*
X371519818Y-169324761D02*
X371519818Y-169229523D01*
X371519818Y-169229523D02*
X371567437Y-169134285D01*
X371567437Y-169134285D02*
X371615056Y-169086666D01*
X371615056Y-169086666D02*
X371710294Y-169039047D01*
X371710294Y-169039047D02*
X371900770Y-168991428D01*
X371900770Y-168991428D02*
X372138865Y-168991428D01*
X372138865Y-168991428D02*
X372329341Y-169039047D01*
X372329341Y-169039047D02*
X372424579Y-169086666D01*
X372424579Y-169086666D02*
X372472199Y-169134285D01*
X372472199Y-169134285D02*
X372519818Y-169229523D01*
X372519818Y-169229523D02*
X372519818Y-169324761D01*
X372519818Y-169324761D02*
X372472199Y-169419999D01*
X372472199Y-169419999D02*
X372424579Y-169467618D01*
X372424579Y-169467618D02*
X372329341Y-169515237D01*
X372329341Y-169515237D02*
X372138865Y-169562856D01*
X372138865Y-169562856D02*
X371900770Y-169562856D01*
X371900770Y-169562856D02*
X371710294Y-169515237D01*
X371710294Y-169515237D02*
X371615056Y-169467618D01*
X371615056Y-169467618D02*
X371567437Y-169419999D01*
X371567437Y-169419999D02*
X371519818Y-169324761D01*
X371615056Y-168610475D02*
X371567437Y-168562856D01*
X371567437Y-168562856D02*
X371519818Y-168467618D01*
X371519818Y-168467618D02*
X371519818Y-168229523D01*
X371519818Y-168229523D02*
X371567437Y-168134285D01*
X371567437Y-168134285D02*
X371615056Y-168086666D01*
X371615056Y-168086666D02*
X371710294Y-168039047D01*
X371710294Y-168039047D02*
X371805532Y-168039047D01*
X371805532Y-168039047D02*
X371948389Y-168086666D01*
X371948389Y-168086666D02*
X372519818Y-168658094D01*
X372519818Y-168658094D02*
X372519818Y-168039047D01*
X371853151Y-167181904D02*
X372519818Y-167181904D01*
X371472199Y-167419999D02*
X372186484Y-167658094D01*
X372186484Y-167658094D02*
X372186484Y-167039047D01*
X371519818Y-166229523D02*
X371519818Y-166419999D01*
X371519818Y-166419999D02*
X371567437Y-166515237D01*
X371567437Y-166515237D02*
X371615056Y-166562856D01*
X371615056Y-166562856D02*
X371757913Y-166658094D01*
X371757913Y-166658094D02*
X371948389Y-166705713D01*
X371948389Y-166705713D02*
X372329341Y-166705713D01*
X372329341Y-166705713D02*
X372424579Y-166658094D01*
X372424579Y-166658094D02*
X372472199Y-166610475D01*
X372472199Y-166610475D02*
X372519818Y-166515237D01*
X372519818Y-166515237D02*
X372519818Y-166324761D01*
X372519818Y-166324761D02*
X372472199Y-166229523D01*
X372472199Y-166229523D02*
X372424579Y-166181904D01*
X372424579Y-166181904D02*
X372329341Y-166134285D01*
X372329341Y-166134285D02*
X372091246Y-166134285D01*
X372091246Y-166134285D02*
X371996008Y-166181904D01*
X371996008Y-166181904D02*
X371948389Y-166229523D01*
X371948389Y-166229523D02*
X371900770Y-166324761D01*
X371900770Y-166324761D02*
X371900770Y-166515237D01*
X371900770Y-166515237D02*
X371948389Y-166610475D01*
X371948389Y-166610475D02*
X371996008Y-166658094D01*
X371996008Y-166658094D02*
X372091246Y-166705713D01*
X372519818Y-165181904D02*
X372519818Y-165753332D01*
X372519818Y-165467618D02*
X371519818Y-165467618D01*
X371519818Y-165467618D02*
X371662675Y-165562856D01*
X371662675Y-165562856D02*
X371757913Y-165658094D01*
X371757913Y-165658094D02*
X371805532Y-165753332D01*
X371519818Y-164562856D02*
X371519818Y-164467618D01*
X371519818Y-164467618D02*
X371567437Y-164372380D01*
X371567437Y-164372380D02*
X371615056Y-164324761D01*
X371615056Y-164324761D02*
X371710294Y-164277142D01*
X371710294Y-164277142D02*
X371900770Y-164229523D01*
X371900770Y-164229523D02*
X372138865Y-164229523D01*
X372138865Y-164229523D02*
X372329341Y-164277142D01*
X372329341Y-164277142D02*
X372424579Y-164324761D01*
X372424579Y-164324761D02*
X372472199Y-164372380D01*
X372472199Y-164372380D02*
X372519818Y-164467618D01*
X372519818Y-164467618D02*
X372519818Y-164562856D01*
X372519818Y-164562856D02*
X372472199Y-164658094D01*
X372472199Y-164658094D02*
X372424579Y-164705713D01*
X372424579Y-164705713D02*
X372329341Y-164753332D01*
X372329341Y-164753332D02*
X372138865Y-164800951D01*
X372138865Y-164800951D02*
X371900770Y-164800951D01*
X371900770Y-164800951D02*
X371710294Y-164753332D01*
X371710294Y-164753332D02*
X371615056Y-164705713D01*
X371615056Y-164705713D02*
X371567437Y-164658094D01*
X371567437Y-164658094D02*
X371519818Y-164562856D01*
X371519818Y-163610475D02*
X371519818Y-163515237D01*
X371519818Y-163515237D02*
X371567437Y-163419999D01*
X371567437Y-163419999D02*
X371615056Y-163372380D01*
X371615056Y-163372380D02*
X371710294Y-163324761D01*
X371710294Y-163324761D02*
X371900770Y-163277142D01*
X371900770Y-163277142D02*
X372138865Y-163277142D01*
X372138865Y-163277142D02*
X372329341Y-163324761D01*
X372329341Y-163324761D02*
X372424579Y-163372380D01*
X372424579Y-163372380D02*
X372472199Y-163419999D01*
X372472199Y-163419999D02*
X372519818Y-163515237D01*
X372519818Y-163515237D02*
X372519818Y-163610475D01*
X372519818Y-163610475D02*
X372472199Y-163705713D01*
X372472199Y-163705713D02*
X372424579Y-163753332D01*
X372424579Y-163753332D02*
X372329341Y-163800951D01*
X372329341Y-163800951D02*
X372138865Y-163848570D01*
X372138865Y-163848570D02*
X371900770Y-163848570D01*
X371900770Y-163848570D02*
X371710294Y-163800951D01*
X371710294Y-163800951D02*
X371615056Y-163753332D01*
X371615056Y-163753332D02*
X371567437Y-163705713D01*
X371567437Y-163705713D02*
X371519818Y-163610475D01*
X371853151Y-162419999D02*
X372519818Y-162419999D01*
X371472199Y-162658094D02*
X372186484Y-162896189D01*
X372186484Y-162896189D02*
X372186484Y-162277142D01*
X330666666Y-175454819D02*
X330333333Y-174978628D01*
X330095238Y-175454819D02*
X330095238Y-174454819D01*
X330095238Y-174454819D02*
X330476190Y-174454819D01*
X330476190Y-174454819D02*
X330571428Y-174502438D01*
X330571428Y-174502438D02*
X330619047Y-174550057D01*
X330619047Y-174550057D02*
X330666666Y-174645295D01*
X330666666Y-174645295D02*
X330666666Y-174788152D01*
X330666666Y-174788152D02*
X330619047Y-174883390D01*
X330619047Y-174883390D02*
X330571428Y-174931009D01*
X330571428Y-174931009D02*
X330476190Y-174978628D01*
X330476190Y-174978628D02*
X330095238Y-174978628D01*
X331095238Y-174931009D02*
X331428571Y-174931009D01*
X331571428Y-175454819D02*
X331095238Y-175454819D01*
X331095238Y-175454819D02*
X331095238Y-174454819D01*
X331095238Y-174454819D02*
X331571428Y-174454819D01*
X332333333Y-174931009D02*
X332000000Y-174931009D01*
X332000000Y-175454819D02*
X332000000Y-174454819D01*
X332000000Y-174454819D02*
X332476190Y-174454819D01*
X333000000Y-174454819D02*
X333000000Y-174692914D01*
X332761905Y-174597676D02*
X333000000Y-174692914D01*
X333000000Y-174692914D02*
X333238095Y-174597676D01*
X332857143Y-174883390D02*
X333000000Y-174692914D01*
X333000000Y-174692914D02*
X333142857Y-174883390D01*
X333761905Y-174454819D02*
X333761905Y-174692914D01*
X333523810Y-174597676D02*
X333761905Y-174692914D01*
X333761905Y-174692914D02*
X334000000Y-174597676D01*
X333619048Y-174883390D02*
X333761905Y-174692914D01*
X333761905Y-174692914D02*
X333904762Y-174883390D01*
X318513372Y-178931494D02*
X318432560Y-178958431D01*
X318432560Y-178958431D02*
X318351748Y-179039243D01*
X318351748Y-179039243D02*
X318297873Y-179146993D01*
X318297873Y-179146993D02*
X318297873Y-179254742D01*
X318297873Y-179254742D02*
X318324810Y-179335555D01*
X318324810Y-179335555D02*
X318405623Y-179470242D01*
X318405623Y-179470242D02*
X318486435Y-179551054D01*
X318486435Y-179551054D02*
X318621122Y-179631866D01*
X318621122Y-179631866D02*
X318701934Y-179658803D01*
X318701934Y-179658803D02*
X318809684Y-179658803D01*
X318809684Y-179658803D02*
X318917433Y-179604929D01*
X318917433Y-179604929D02*
X318971308Y-179551054D01*
X318971308Y-179551054D02*
X319025183Y-179443304D01*
X319025183Y-179443304D02*
X319025183Y-179389429D01*
X319025183Y-179389429D02*
X318836621Y-179200868D01*
X318836621Y-179200868D02*
X318728871Y-179308617D01*
X319321494Y-179200868D02*
X318755809Y-178635182D01*
X318755809Y-178635182D02*
X318971308Y-178419683D01*
X318971308Y-178419683D02*
X319052120Y-178392746D01*
X319052120Y-178392746D02*
X319105995Y-178392746D01*
X319105995Y-178392746D02*
X319186807Y-178419683D01*
X319186807Y-178419683D02*
X319267619Y-178500495D01*
X319267619Y-178500495D02*
X319294557Y-178581307D01*
X319294557Y-178581307D02*
X319294557Y-178635182D01*
X319294557Y-178635182D02*
X319267619Y-178715994D01*
X319267619Y-178715994D02*
X319052120Y-178931494D01*
X319914117Y-178608245D02*
X320021867Y-178500495D01*
X320021867Y-178500495D02*
X320048804Y-178419683D01*
X320048804Y-178419683D02*
X320048804Y-178365808D01*
X320048804Y-178365808D02*
X320021867Y-178231121D01*
X320021867Y-178231121D02*
X319941054Y-178096434D01*
X319941054Y-178096434D02*
X319725555Y-177880935D01*
X319725555Y-177880935D02*
X319644743Y-177853998D01*
X319644743Y-177853998D02*
X319590868Y-177853998D01*
X319590868Y-177853998D02*
X319510056Y-177880935D01*
X319510056Y-177880935D02*
X319402306Y-177988685D01*
X319402306Y-177988685D02*
X319375369Y-178069497D01*
X319375369Y-178069497D02*
X319375369Y-178123372D01*
X319375369Y-178123372D02*
X319402306Y-178204184D01*
X319402306Y-178204184D02*
X319536993Y-178338871D01*
X319536993Y-178338871D02*
X319617806Y-178365808D01*
X319617806Y-178365808D02*
X319671680Y-178365808D01*
X319671680Y-178365808D02*
X319752493Y-178338871D01*
X319752493Y-178338871D02*
X319860242Y-178231121D01*
X319860242Y-178231121D02*
X319887180Y-178150309D01*
X319887180Y-178150309D02*
X319887180Y-178096434D01*
X319887180Y-178096434D02*
X319860242Y-178015622D01*
X344097998Y-171590868D02*
X344017185Y-171617805D01*
X344017185Y-171617805D02*
X343936373Y-171698618D01*
X343936373Y-171698618D02*
X343882498Y-171806367D01*
X343882498Y-171806367D02*
X343882498Y-171914117D01*
X343882498Y-171914117D02*
X343909436Y-171994929D01*
X343909436Y-171994929D02*
X343990248Y-172129616D01*
X343990248Y-172129616D02*
X344071060Y-172210428D01*
X344071060Y-172210428D02*
X344205747Y-172291241D01*
X344205747Y-172291241D02*
X344286560Y-172318178D01*
X344286560Y-172318178D02*
X344394309Y-172318178D01*
X344394309Y-172318178D02*
X344502059Y-172264303D01*
X344502059Y-172264303D02*
X344555934Y-172210428D01*
X344555934Y-172210428D02*
X344609808Y-172102679D01*
X344609808Y-172102679D02*
X344609808Y-172048804D01*
X344609808Y-172048804D02*
X344421247Y-171860242D01*
X344421247Y-171860242D02*
X344313497Y-171967992D01*
X344906120Y-171860242D02*
X344340434Y-171294557D01*
X344340434Y-171294557D02*
X344555934Y-171079057D01*
X344555934Y-171079057D02*
X344636746Y-171052120D01*
X344636746Y-171052120D02*
X344690621Y-171052120D01*
X344690621Y-171052120D02*
X344771433Y-171079057D01*
X344771433Y-171079057D02*
X344852245Y-171159870D01*
X344852245Y-171159870D02*
X344879182Y-171240682D01*
X344879182Y-171240682D02*
X344879182Y-171294557D01*
X344879182Y-171294557D02*
X344852245Y-171375369D01*
X344852245Y-171375369D02*
X344636746Y-171590868D01*
X344933057Y-170809683D02*
X344933057Y-170755809D01*
X344933057Y-170755809D02*
X344959995Y-170674996D01*
X344959995Y-170674996D02*
X345094682Y-170540309D01*
X345094682Y-170540309D02*
X345175494Y-170513372D01*
X345175494Y-170513372D02*
X345229369Y-170513372D01*
X345229369Y-170513372D02*
X345310181Y-170540309D01*
X345310181Y-170540309D02*
X345364056Y-170594184D01*
X345364056Y-170594184D02*
X345417930Y-170701934D01*
X345417930Y-170701934D02*
X345417930Y-171348431D01*
X345417930Y-171348431D02*
X345768117Y-170998245D01*
X345390993Y-170243998D02*
X345768117Y-169866874D01*
X345768117Y-169866874D02*
X346091366Y-170674996D01*
X317989998Y-184280868D02*
X317909185Y-184307805D01*
X317909185Y-184307805D02*
X317828373Y-184388618D01*
X317828373Y-184388618D02*
X317774498Y-184496367D01*
X317774498Y-184496367D02*
X317774498Y-184604117D01*
X317774498Y-184604117D02*
X317801436Y-184684929D01*
X317801436Y-184684929D02*
X317882248Y-184819616D01*
X317882248Y-184819616D02*
X317963060Y-184900428D01*
X317963060Y-184900428D02*
X318097747Y-184981241D01*
X318097747Y-184981241D02*
X318178560Y-185008178D01*
X318178560Y-185008178D02*
X318286309Y-185008178D01*
X318286309Y-185008178D02*
X318394059Y-184954303D01*
X318394059Y-184954303D02*
X318447934Y-184900428D01*
X318447934Y-184900428D02*
X318501808Y-184792679D01*
X318501808Y-184792679D02*
X318501808Y-184738804D01*
X318501808Y-184738804D02*
X318313247Y-184550242D01*
X318313247Y-184550242D02*
X318205497Y-184657992D01*
X318798120Y-184550242D02*
X318232434Y-183984557D01*
X318232434Y-183984557D02*
X318447934Y-183769057D01*
X318447934Y-183769057D02*
X318528746Y-183742120D01*
X318528746Y-183742120D02*
X318582621Y-183742120D01*
X318582621Y-183742120D02*
X318663433Y-183769057D01*
X318663433Y-183769057D02*
X318744245Y-183849870D01*
X318744245Y-183849870D02*
X318771182Y-183930682D01*
X318771182Y-183930682D02*
X318771182Y-183984557D01*
X318771182Y-183984557D02*
X318744245Y-184065369D01*
X318744245Y-184065369D02*
X318528746Y-184280868D01*
X319660117Y-183688245D02*
X319336868Y-184011494D01*
X319498492Y-183849870D02*
X318932807Y-183284184D01*
X318932807Y-183284184D02*
X318959744Y-183418871D01*
X318959744Y-183418871D02*
X318959744Y-183526621D01*
X318959744Y-183526621D02*
X318932807Y-183607433D01*
X319444618Y-182772373D02*
X319498492Y-182718499D01*
X319498492Y-182718499D02*
X319579305Y-182691561D01*
X319579305Y-182691561D02*
X319633179Y-182691561D01*
X319633179Y-182691561D02*
X319713992Y-182718499D01*
X319713992Y-182718499D02*
X319848679Y-182799311D01*
X319848679Y-182799311D02*
X319983366Y-182933998D01*
X319983366Y-182933998D02*
X320064178Y-183068685D01*
X320064178Y-183068685D02*
X320091115Y-183149497D01*
X320091115Y-183149497D02*
X320091115Y-183203372D01*
X320091115Y-183203372D02*
X320064178Y-183284184D01*
X320064178Y-183284184D02*
X320010303Y-183338059D01*
X320010303Y-183338059D02*
X319929491Y-183364996D01*
X319929491Y-183364996D02*
X319875616Y-183364996D01*
X319875616Y-183364996D02*
X319794804Y-183338059D01*
X319794804Y-183338059D02*
X319660117Y-183257247D01*
X319660117Y-183257247D02*
X319525430Y-183122560D01*
X319525430Y-183122560D02*
X319444618Y-182987873D01*
X319444618Y-182987873D02*
X319417680Y-182907060D01*
X319417680Y-182907060D02*
X319417680Y-182853186D01*
X319417680Y-182853186D02*
X319444618Y-182772373D01*
X318413372Y-153521494D02*
X318332560Y-153548431D01*
X318332560Y-153548431D02*
X318251748Y-153629243D01*
X318251748Y-153629243D02*
X318197873Y-153736993D01*
X318197873Y-153736993D02*
X318197873Y-153844742D01*
X318197873Y-153844742D02*
X318224810Y-153925555D01*
X318224810Y-153925555D02*
X318305623Y-154060242D01*
X318305623Y-154060242D02*
X318386435Y-154141054D01*
X318386435Y-154141054D02*
X318521122Y-154221866D01*
X318521122Y-154221866D02*
X318601934Y-154248803D01*
X318601934Y-154248803D02*
X318709684Y-154248803D01*
X318709684Y-154248803D02*
X318817433Y-154194929D01*
X318817433Y-154194929D02*
X318871308Y-154141054D01*
X318871308Y-154141054D02*
X318925183Y-154033304D01*
X318925183Y-154033304D02*
X318925183Y-153979429D01*
X318925183Y-153979429D02*
X318736621Y-153790868D01*
X318736621Y-153790868D02*
X318628871Y-153898617D01*
X319221494Y-153790868D02*
X318655809Y-153225182D01*
X318655809Y-153225182D02*
X318871308Y-153009683D01*
X318871308Y-153009683D02*
X318952120Y-152982746D01*
X318952120Y-152982746D02*
X319005995Y-152982746D01*
X319005995Y-152982746D02*
X319086807Y-153009683D01*
X319086807Y-153009683D02*
X319167619Y-153090495D01*
X319167619Y-153090495D02*
X319194557Y-153171307D01*
X319194557Y-153171307D02*
X319194557Y-153225182D01*
X319194557Y-153225182D02*
X319167619Y-153305994D01*
X319167619Y-153305994D02*
X318952120Y-153521494D01*
X320083491Y-152928871D02*
X319760242Y-153252120D01*
X319921867Y-153090495D02*
X319356181Y-152524810D01*
X319356181Y-152524810D02*
X319383119Y-152659497D01*
X319383119Y-152659497D02*
X319383119Y-152767246D01*
X319383119Y-152767246D02*
X319356181Y-152848059D01*
X344151873Y-169741240D02*
X344421247Y-169471866D01*
X344259623Y-169956739D02*
X343882499Y-169202492D01*
X343882499Y-169202492D02*
X344636746Y-169579615D01*
X344582871Y-168555994D02*
X344502059Y-168582932D01*
X344502059Y-168582932D02*
X344421247Y-168663744D01*
X344421247Y-168663744D02*
X344367372Y-168771494D01*
X344367372Y-168771494D02*
X344367372Y-168879243D01*
X344367372Y-168879243D02*
X344394310Y-168960055D01*
X344394310Y-168960055D02*
X344475122Y-169094742D01*
X344475122Y-169094742D02*
X344555934Y-169175555D01*
X344555934Y-169175555D02*
X344690621Y-169256367D01*
X344690621Y-169256367D02*
X344771433Y-169283304D01*
X344771433Y-169283304D02*
X344879183Y-169283304D01*
X344879183Y-169283304D02*
X344986932Y-169229429D01*
X344986932Y-169229429D02*
X345040807Y-169175555D01*
X345040807Y-169175555D02*
X345094682Y-169067805D01*
X345094682Y-169067805D02*
X345094682Y-169013930D01*
X345094682Y-169013930D02*
X344906120Y-168825368D01*
X344906120Y-168825368D02*
X344798371Y-168933118D01*
X345390993Y-168825368D02*
X344825308Y-168259683D01*
X344825308Y-168259683D02*
X345714242Y-168502120D01*
X345714242Y-168502120D02*
X345148557Y-167936434D01*
X345983616Y-168232746D02*
X345417931Y-167667060D01*
X345417931Y-167667060D02*
X345552618Y-167532373D01*
X345552618Y-167532373D02*
X345660367Y-167478498D01*
X345660367Y-167478498D02*
X345768117Y-167478498D01*
X345768117Y-167478498D02*
X345848929Y-167505436D01*
X345848929Y-167505436D02*
X345983616Y-167586248D01*
X345983616Y-167586248D02*
X346064428Y-167667060D01*
X346064428Y-167667060D02*
X346145241Y-167801747D01*
X346145241Y-167801747D02*
X346172178Y-167882560D01*
X346172178Y-167882560D02*
X346172178Y-167990309D01*
X346172178Y-167990309D02*
X346118303Y-168098059D01*
X346118303Y-168098059D02*
X345983616Y-168232746D01*
X317843998Y-186820868D02*
X317763185Y-186847805D01*
X317763185Y-186847805D02*
X317682373Y-186928618D01*
X317682373Y-186928618D02*
X317628498Y-187036367D01*
X317628498Y-187036367D02*
X317628498Y-187144117D01*
X317628498Y-187144117D02*
X317655436Y-187224929D01*
X317655436Y-187224929D02*
X317736248Y-187359616D01*
X317736248Y-187359616D02*
X317817060Y-187440428D01*
X317817060Y-187440428D02*
X317951747Y-187521241D01*
X317951747Y-187521241D02*
X318032560Y-187548178D01*
X318032560Y-187548178D02*
X318140309Y-187548178D01*
X318140309Y-187548178D02*
X318248059Y-187494303D01*
X318248059Y-187494303D02*
X318301934Y-187440428D01*
X318301934Y-187440428D02*
X318355808Y-187332679D01*
X318355808Y-187332679D02*
X318355808Y-187278804D01*
X318355808Y-187278804D02*
X318167247Y-187090242D01*
X318167247Y-187090242D02*
X318059497Y-187197992D01*
X318652120Y-187090242D02*
X318086434Y-186524557D01*
X318086434Y-186524557D02*
X318301934Y-186309057D01*
X318301934Y-186309057D02*
X318382746Y-186282120D01*
X318382746Y-186282120D02*
X318436621Y-186282120D01*
X318436621Y-186282120D02*
X318517433Y-186309057D01*
X318517433Y-186309057D02*
X318598245Y-186389870D01*
X318598245Y-186389870D02*
X318625182Y-186470682D01*
X318625182Y-186470682D02*
X318625182Y-186524557D01*
X318625182Y-186524557D02*
X318598245Y-186605369D01*
X318598245Y-186605369D02*
X318382746Y-186820868D01*
X319514117Y-186228245D02*
X319190868Y-186551494D01*
X319352492Y-186389870D02*
X318786807Y-185824184D01*
X318786807Y-185824184D02*
X318813744Y-185958871D01*
X318813744Y-185958871D02*
X318813744Y-186066621D01*
X318813744Y-186066621D02*
X318786807Y-186147433D01*
X320052865Y-185689497D02*
X319729616Y-186012746D01*
X319891240Y-185851121D02*
X319325555Y-185285436D01*
X319325555Y-185285436D02*
X319352492Y-185420123D01*
X319352492Y-185420123D02*
X319352492Y-185527873D01*
X319352492Y-185527873D02*
X319325555Y-185608685D01*
X344097998Y-166246868D02*
X344017185Y-166273805D01*
X344017185Y-166273805D02*
X343936373Y-166354618D01*
X343936373Y-166354618D02*
X343882498Y-166462367D01*
X343882498Y-166462367D02*
X343882498Y-166570117D01*
X343882498Y-166570117D02*
X343909436Y-166650929D01*
X343909436Y-166650929D02*
X343990248Y-166785616D01*
X343990248Y-166785616D02*
X344071060Y-166866428D01*
X344071060Y-166866428D02*
X344205747Y-166947241D01*
X344205747Y-166947241D02*
X344286560Y-166974178D01*
X344286560Y-166974178D02*
X344394309Y-166974178D01*
X344394309Y-166974178D02*
X344502059Y-166920303D01*
X344502059Y-166920303D02*
X344555934Y-166866428D01*
X344555934Y-166866428D02*
X344609808Y-166758679D01*
X344609808Y-166758679D02*
X344609808Y-166704804D01*
X344609808Y-166704804D02*
X344421247Y-166516242D01*
X344421247Y-166516242D02*
X344313497Y-166623992D01*
X344906120Y-166516242D02*
X344340434Y-165950557D01*
X344340434Y-165950557D02*
X344555934Y-165735057D01*
X344555934Y-165735057D02*
X344636746Y-165708120D01*
X344636746Y-165708120D02*
X344690621Y-165708120D01*
X344690621Y-165708120D02*
X344771433Y-165735057D01*
X344771433Y-165735057D02*
X344852245Y-165815870D01*
X344852245Y-165815870D02*
X344879182Y-165896682D01*
X344879182Y-165896682D02*
X344879182Y-165950557D01*
X344879182Y-165950557D02*
X344852245Y-166031369D01*
X344852245Y-166031369D02*
X344636746Y-166246868D01*
X344933057Y-165465683D02*
X344933057Y-165411809D01*
X344933057Y-165411809D02*
X344959995Y-165330996D01*
X344959995Y-165330996D02*
X345094682Y-165196309D01*
X345094682Y-165196309D02*
X345175494Y-165169372D01*
X345175494Y-165169372D02*
X345229369Y-165169372D01*
X345229369Y-165169372D02*
X345310181Y-165196309D01*
X345310181Y-165196309D02*
X345364056Y-165250184D01*
X345364056Y-165250184D02*
X345417930Y-165357934D01*
X345417930Y-165357934D02*
X345417930Y-166004431D01*
X345417930Y-166004431D02*
X345768117Y-165654245D01*
X345768117Y-165007747D02*
X345687305Y-165034685D01*
X345687305Y-165034685D02*
X345633430Y-165034685D01*
X345633430Y-165034685D02*
X345552618Y-165007747D01*
X345552618Y-165007747D02*
X345525680Y-164980810D01*
X345525680Y-164980810D02*
X345498743Y-164899998D01*
X345498743Y-164899998D02*
X345498743Y-164846123D01*
X345498743Y-164846123D02*
X345525680Y-164765311D01*
X345525680Y-164765311D02*
X345633430Y-164657561D01*
X345633430Y-164657561D02*
X345714242Y-164630624D01*
X345714242Y-164630624D02*
X345768117Y-164630624D01*
X345768117Y-164630624D02*
X345848929Y-164657561D01*
X345848929Y-164657561D02*
X345875866Y-164684499D01*
X345875866Y-164684499D02*
X345902804Y-164765311D01*
X345902804Y-164765311D02*
X345902804Y-164819186D01*
X345902804Y-164819186D02*
X345875866Y-164899998D01*
X345875866Y-164899998D02*
X345768117Y-165007747D01*
X345768117Y-165007747D02*
X345741179Y-165088560D01*
X345741179Y-165088560D02*
X345741179Y-165142434D01*
X345741179Y-165142434D02*
X345768117Y-165223247D01*
X345768117Y-165223247D02*
X345875866Y-165330996D01*
X345875866Y-165330996D02*
X345956679Y-165357934D01*
X345956679Y-165357934D02*
X346010553Y-165357934D01*
X346010553Y-165357934D02*
X346091366Y-165330996D01*
X346091366Y-165330996D02*
X346199115Y-165223247D01*
X346199115Y-165223247D02*
X346226053Y-165142434D01*
X346226053Y-165142434D02*
X346226053Y-165088560D01*
X346226053Y-165088560D02*
X346199115Y-165007747D01*
X346199115Y-165007747D02*
X346091366Y-164899998D01*
X346091366Y-164899998D02*
X346010553Y-164873060D01*
X346010553Y-164873060D02*
X345956679Y-164873060D01*
X345956679Y-164873060D02*
X345875866Y-164899998D01*
X318513372Y-176391494D02*
X318432560Y-176418431D01*
X318432560Y-176418431D02*
X318351748Y-176499243D01*
X318351748Y-176499243D02*
X318297873Y-176606993D01*
X318297873Y-176606993D02*
X318297873Y-176714742D01*
X318297873Y-176714742D02*
X318324810Y-176795555D01*
X318324810Y-176795555D02*
X318405623Y-176930242D01*
X318405623Y-176930242D02*
X318486435Y-177011054D01*
X318486435Y-177011054D02*
X318621122Y-177091866D01*
X318621122Y-177091866D02*
X318701934Y-177118803D01*
X318701934Y-177118803D02*
X318809684Y-177118803D01*
X318809684Y-177118803D02*
X318917433Y-177064929D01*
X318917433Y-177064929D02*
X318971308Y-177011054D01*
X318971308Y-177011054D02*
X319025183Y-176903304D01*
X319025183Y-176903304D02*
X319025183Y-176849429D01*
X319025183Y-176849429D02*
X318836621Y-176660868D01*
X318836621Y-176660868D02*
X318728871Y-176768617D01*
X319321494Y-176660868D02*
X318755809Y-176095182D01*
X318755809Y-176095182D02*
X318971308Y-175879683D01*
X318971308Y-175879683D02*
X319052120Y-175852746D01*
X319052120Y-175852746D02*
X319105995Y-175852746D01*
X319105995Y-175852746D02*
X319186807Y-175879683D01*
X319186807Y-175879683D02*
X319267619Y-175960495D01*
X319267619Y-175960495D02*
X319294557Y-176041307D01*
X319294557Y-176041307D02*
X319294557Y-176095182D01*
X319294557Y-176095182D02*
X319267619Y-176175994D01*
X319267619Y-176175994D02*
X319052120Y-176391494D01*
X319644743Y-175691121D02*
X319563931Y-175718059D01*
X319563931Y-175718059D02*
X319510056Y-175718059D01*
X319510056Y-175718059D02*
X319429244Y-175691121D01*
X319429244Y-175691121D02*
X319402306Y-175664184D01*
X319402306Y-175664184D02*
X319375369Y-175583372D01*
X319375369Y-175583372D02*
X319375369Y-175529497D01*
X319375369Y-175529497D02*
X319402306Y-175448685D01*
X319402306Y-175448685D02*
X319510056Y-175340935D01*
X319510056Y-175340935D02*
X319590868Y-175313998D01*
X319590868Y-175313998D02*
X319644743Y-175313998D01*
X319644743Y-175313998D02*
X319725555Y-175340935D01*
X319725555Y-175340935D02*
X319752493Y-175367872D01*
X319752493Y-175367872D02*
X319779430Y-175448685D01*
X319779430Y-175448685D02*
X319779430Y-175502559D01*
X319779430Y-175502559D02*
X319752493Y-175583372D01*
X319752493Y-175583372D02*
X319644743Y-175691121D01*
X319644743Y-175691121D02*
X319617806Y-175771933D01*
X319617806Y-175771933D02*
X319617806Y-175825808D01*
X319617806Y-175825808D02*
X319644743Y-175906620D01*
X319644743Y-175906620D02*
X319752493Y-176014370D01*
X319752493Y-176014370D02*
X319833305Y-176041307D01*
X319833305Y-176041307D02*
X319887180Y-176041307D01*
X319887180Y-176041307D02*
X319967992Y-176014370D01*
X319967992Y-176014370D02*
X320075741Y-175906620D01*
X320075741Y-175906620D02*
X320102679Y-175825808D01*
X320102679Y-175825808D02*
X320102679Y-175771933D01*
X320102679Y-175771933D02*
X320075741Y-175691121D01*
X320075741Y-175691121D02*
X319967992Y-175583372D01*
X319967992Y-175583372D02*
X319887180Y-175556434D01*
X319887180Y-175556434D02*
X319833305Y-175556434D01*
X319833305Y-175556434D02*
X319752493Y-175583372D01*
X344097998Y-174120868D02*
X344017185Y-174147805D01*
X344017185Y-174147805D02*
X343936373Y-174228618D01*
X343936373Y-174228618D02*
X343882498Y-174336367D01*
X343882498Y-174336367D02*
X343882498Y-174444117D01*
X343882498Y-174444117D02*
X343909436Y-174524929D01*
X343909436Y-174524929D02*
X343990248Y-174659616D01*
X343990248Y-174659616D02*
X344071060Y-174740428D01*
X344071060Y-174740428D02*
X344205747Y-174821241D01*
X344205747Y-174821241D02*
X344286560Y-174848178D01*
X344286560Y-174848178D02*
X344394309Y-174848178D01*
X344394309Y-174848178D02*
X344502059Y-174794303D01*
X344502059Y-174794303D02*
X344555934Y-174740428D01*
X344555934Y-174740428D02*
X344609808Y-174632679D01*
X344609808Y-174632679D02*
X344609808Y-174578804D01*
X344609808Y-174578804D02*
X344421247Y-174390242D01*
X344421247Y-174390242D02*
X344313497Y-174497992D01*
X344906120Y-174390242D02*
X344340434Y-173824557D01*
X344340434Y-173824557D02*
X344555934Y-173609057D01*
X344555934Y-173609057D02*
X344636746Y-173582120D01*
X344636746Y-173582120D02*
X344690621Y-173582120D01*
X344690621Y-173582120D02*
X344771433Y-173609057D01*
X344771433Y-173609057D02*
X344852245Y-173689870D01*
X344852245Y-173689870D02*
X344879182Y-173770682D01*
X344879182Y-173770682D02*
X344879182Y-173824557D01*
X344879182Y-173824557D02*
X344852245Y-173905369D01*
X344852245Y-173905369D02*
X344636746Y-174120868D01*
X344933057Y-173339683D02*
X344933057Y-173285809D01*
X344933057Y-173285809D02*
X344959995Y-173204996D01*
X344959995Y-173204996D02*
X345094682Y-173070309D01*
X345094682Y-173070309D02*
X345175494Y-173043372D01*
X345175494Y-173043372D02*
X345229369Y-173043372D01*
X345229369Y-173043372D02*
X345310181Y-173070309D01*
X345310181Y-173070309D02*
X345364056Y-173124184D01*
X345364056Y-173124184D02*
X345417930Y-173231934D01*
X345417930Y-173231934D02*
X345417930Y-173878431D01*
X345417930Y-173878431D02*
X345768117Y-173528245D01*
X345687305Y-172477686D02*
X345579555Y-172585436D01*
X345579555Y-172585436D02*
X345552618Y-172666248D01*
X345552618Y-172666248D02*
X345552618Y-172720123D01*
X345552618Y-172720123D02*
X345579555Y-172854810D01*
X345579555Y-172854810D02*
X345660367Y-172989497D01*
X345660367Y-172989497D02*
X345875866Y-173204996D01*
X345875866Y-173204996D02*
X345956679Y-173231934D01*
X345956679Y-173231934D02*
X346010553Y-173231934D01*
X346010553Y-173231934D02*
X346091366Y-173204996D01*
X346091366Y-173204996D02*
X346199115Y-173097247D01*
X346199115Y-173097247D02*
X346226053Y-173016434D01*
X346226053Y-173016434D02*
X346226053Y-172962560D01*
X346226053Y-172962560D02*
X346199115Y-172881747D01*
X346199115Y-172881747D02*
X346064428Y-172747060D01*
X346064428Y-172747060D02*
X345983616Y-172720123D01*
X345983616Y-172720123D02*
X345929741Y-172720123D01*
X345929741Y-172720123D02*
X345848929Y-172747060D01*
X345848929Y-172747060D02*
X345741179Y-172854810D01*
X345741179Y-172854810D02*
X345714242Y-172935622D01*
X345714242Y-172935622D02*
X345714242Y-172989497D01*
X345714242Y-172989497D02*
X345741179Y-173070309D01*
X343953406Y-151527585D02*
X344707653Y-151904709D01*
X344707653Y-151904709D02*
X344330529Y-151150462D01*
X344977027Y-151042712D02*
X345084776Y-150988838D01*
X345084776Y-150988838D02*
X345138651Y-150988838D01*
X345138651Y-150988838D02*
X345219463Y-151015775D01*
X345219463Y-151015775D02*
X345300276Y-151096587D01*
X345300276Y-151096587D02*
X345327213Y-151177399D01*
X345327213Y-151177399D02*
X345327213Y-151231274D01*
X345327213Y-151231274D02*
X345300276Y-151312086D01*
X345300276Y-151312086D02*
X345084776Y-151527586D01*
X345084776Y-151527586D02*
X344519091Y-150961900D01*
X344519091Y-150961900D02*
X344707653Y-150773338D01*
X344707653Y-150773338D02*
X344788465Y-150746401D01*
X344788465Y-150746401D02*
X344842340Y-150746401D01*
X344842340Y-150746401D02*
X344923152Y-150773338D01*
X344923152Y-150773338D02*
X344977027Y-150827213D01*
X344977027Y-150827213D02*
X345003964Y-150908025D01*
X345003964Y-150908025D02*
X345003964Y-150961900D01*
X345003964Y-150961900D02*
X344977027Y-151042712D01*
X344977027Y-151042712D02*
X344788465Y-151231274D01*
X345084776Y-150396215D02*
X345542712Y-150854151D01*
X345542712Y-150854151D02*
X345623524Y-150881088D01*
X345623524Y-150881088D02*
X345677399Y-150881088D01*
X345677399Y-150881088D02*
X345758211Y-150854151D01*
X345758211Y-150854151D02*
X345865961Y-150746401D01*
X345865961Y-150746401D02*
X345892898Y-150665589D01*
X345892898Y-150665589D02*
X345892898Y-150611714D01*
X345892898Y-150611714D02*
X345865961Y-150530902D01*
X345865961Y-150530902D02*
X345408025Y-150072966D01*
X346189210Y-150369277D02*
X346296959Y-150315403D01*
X346296959Y-150315403D02*
X346431646Y-150180716D01*
X346431646Y-150180716D02*
X346458584Y-150099903D01*
X346458584Y-150099903D02*
X346458584Y-150046029D01*
X346458584Y-150046029D02*
X346431646Y-149965216D01*
X346431646Y-149965216D02*
X346377771Y-149911342D01*
X346377771Y-149911342D02*
X346296959Y-149884404D01*
X346296959Y-149884404D02*
X346243084Y-149884404D01*
X346243084Y-149884404D02*
X346162272Y-149911342D01*
X346162272Y-149911342D02*
X346027585Y-149992154D01*
X346027585Y-149992154D02*
X345946773Y-150019091D01*
X345946773Y-150019091D02*
X345892898Y-150019091D01*
X345892898Y-150019091D02*
X345812086Y-149992154D01*
X345812086Y-149992154D02*
X345758211Y-149938279D01*
X345758211Y-149938279D02*
X345731274Y-149857467D01*
X345731274Y-149857467D02*
X345731274Y-149803592D01*
X345731274Y-149803592D02*
X345758211Y-149722780D01*
X345758211Y-149722780D02*
X345892898Y-149588093D01*
X345892898Y-149588093D02*
X346000648Y-149534218D01*
X324490475Y-201524200D02*
X324604761Y-201562295D01*
X324604761Y-201562295D02*
X324795237Y-201562295D01*
X324795237Y-201562295D02*
X324871428Y-201524200D01*
X324871428Y-201524200D02*
X324909523Y-201486104D01*
X324909523Y-201486104D02*
X324947618Y-201409914D01*
X324947618Y-201409914D02*
X324947618Y-201333723D01*
X324947618Y-201333723D02*
X324909523Y-201257533D01*
X324909523Y-201257533D02*
X324871428Y-201219438D01*
X324871428Y-201219438D02*
X324795237Y-201181342D01*
X324795237Y-201181342D02*
X324642856Y-201143247D01*
X324642856Y-201143247D02*
X324566666Y-201105152D01*
X324566666Y-201105152D02*
X324528571Y-201067057D01*
X324528571Y-201067057D02*
X324490475Y-200990866D01*
X324490475Y-200990866D02*
X324490475Y-200914676D01*
X324490475Y-200914676D02*
X324528571Y-200838485D01*
X324528571Y-200838485D02*
X324566666Y-200800390D01*
X324566666Y-200800390D02*
X324642856Y-200762295D01*
X324642856Y-200762295D02*
X324833333Y-200762295D01*
X324833333Y-200762295D02*
X324947618Y-200800390D01*
X325214285Y-200762295D02*
X325404761Y-201562295D01*
X325404761Y-201562295D02*
X325557142Y-200990866D01*
X325557142Y-200990866D02*
X325709523Y-201562295D01*
X325709523Y-201562295D02*
X325900000Y-200762295D01*
X326661905Y-201486104D02*
X326623809Y-201524200D01*
X326623809Y-201524200D02*
X326509524Y-201562295D01*
X326509524Y-201562295D02*
X326433333Y-201562295D01*
X326433333Y-201562295D02*
X326319047Y-201524200D01*
X326319047Y-201524200D02*
X326242857Y-201448009D01*
X326242857Y-201448009D02*
X326204762Y-201371819D01*
X326204762Y-201371819D02*
X326166666Y-201219438D01*
X326166666Y-201219438D02*
X326166666Y-201105152D01*
X326166666Y-201105152D02*
X326204762Y-200952771D01*
X326204762Y-200952771D02*
X326242857Y-200876580D01*
X326242857Y-200876580D02*
X326319047Y-200800390D01*
X326319047Y-200800390D02*
X326433333Y-200762295D01*
X326433333Y-200762295D02*
X326509524Y-200762295D01*
X326509524Y-200762295D02*
X326623809Y-200800390D01*
X326623809Y-200800390D02*
X326661905Y-200838485D01*
X327385714Y-201562295D02*
X327004762Y-201562295D01*
X327004762Y-201562295D02*
X327004762Y-200762295D01*
X327652381Y-201562295D02*
X327652381Y-200762295D01*
X328109524Y-201562295D02*
X327766666Y-201105152D01*
X328109524Y-200762295D02*
X327652381Y-201219438D01*
X343920749Y-154070242D02*
X344674996Y-154447366D01*
X344674996Y-154447366D02*
X344297873Y-153693118D01*
X344998245Y-154070242D02*
X345105995Y-154016367D01*
X345105995Y-154016367D02*
X345240682Y-153881680D01*
X345240682Y-153881680D02*
X345267619Y-153800868D01*
X345267619Y-153800868D02*
X345267619Y-153746993D01*
X345267619Y-153746993D02*
X345240682Y-153666181D01*
X345240682Y-153666181D02*
X345186807Y-153612306D01*
X345186807Y-153612306D02*
X345105995Y-153585369D01*
X345105995Y-153585369D02*
X345052120Y-153585369D01*
X345052120Y-153585369D02*
X344971308Y-153612306D01*
X344971308Y-153612306D02*
X344836621Y-153693118D01*
X344836621Y-153693118D02*
X344755808Y-153720056D01*
X344755808Y-153720056D02*
X344701934Y-153720056D01*
X344701934Y-153720056D02*
X344621121Y-153693118D01*
X344621121Y-153693118D02*
X344567247Y-153639244D01*
X344567247Y-153639244D02*
X344540309Y-153558431D01*
X344540309Y-153558431D02*
X344540309Y-153504557D01*
X344540309Y-153504557D02*
X344567247Y-153423744D01*
X344567247Y-153423744D02*
X344701934Y-153289057D01*
X344701934Y-153289057D02*
X344809683Y-153235183D01*
X345429244Y-153154370D02*
X345698618Y-153423744D01*
X344944370Y-153046621D02*
X345429244Y-153154370D01*
X345429244Y-153154370D02*
X345321494Y-152669497D01*
X346021866Y-153046621D02*
X346129616Y-152992746D01*
X346129616Y-152992746D02*
X346264303Y-152858059D01*
X346264303Y-152858059D02*
X346291240Y-152777247D01*
X346291240Y-152777247D02*
X346291240Y-152723372D01*
X346291240Y-152723372D02*
X346264303Y-152642560D01*
X346264303Y-152642560D02*
X346210428Y-152588685D01*
X346210428Y-152588685D02*
X346129616Y-152561748D01*
X346129616Y-152561748D02*
X346075741Y-152561748D01*
X346075741Y-152561748D02*
X345994929Y-152588685D01*
X345994929Y-152588685D02*
X345860242Y-152669497D01*
X345860242Y-152669497D02*
X345779430Y-152696435D01*
X345779430Y-152696435D02*
X345725555Y-152696435D01*
X345725555Y-152696435D02*
X345644743Y-152669497D01*
X345644743Y-152669497D02*
X345590868Y-152615622D01*
X345590868Y-152615622D02*
X345563930Y-152534810D01*
X345563930Y-152534810D02*
X345563930Y-152480935D01*
X345563930Y-152480935D02*
X345590868Y-152400123D01*
X345590868Y-152400123D02*
X345725555Y-152265436D01*
X345725555Y-152265436D02*
X345833304Y-152211561D01*
X318613372Y-173821494D02*
X318532560Y-173848431D01*
X318532560Y-173848431D02*
X318451748Y-173929243D01*
X318451748Y-173929243D02*
X318397873Y-174036993D01*
X318397873Y-174036993D02*
X318397873Y-174144742D01*
X318397873Y-174144742D02*
X318424810Y-174225555D01*
X318424810Y-174225555D02*
X318505623Y-174360242D01*
X318505623Y-174360242D02*
X318586435Y-174441054D01*
X318586435Y-174441054D02*
X318721122Y-174521866D01*
X318721122Y-174521866D02*
X318801934Y-174548803D01*
X318801934Y-174548803D02*
X318909684Y-174548803D01*
X318909684Y-174548803D02*
X319017433Y-174494929D01*
X319017433Y-174494929D02*
X319071308Y-174441054D01*
X319071308Y-174441054D02*
X319125183Y-174333304D01*
X319125183Y-174333304D02*
X319125183Y-174279429D01*
X319125183Y-174279429D02*
X318936621Y-174090868D01*
X318936621Y-174090868D02*
X318828871Y-174198617D01*
X319421494Y-174090868D02*
X318855809Y-173525182D01*
X318855809Y-173525182D02*
X319071308Y-173309683D01*
X319071308Y-173309683D02*
X319152120Y-173282746D01*
X319152120Y-173282746D02*
X319205995Y-173282746D01*
X319205995Y-173282746D02*
X319286807Y-173309683D01*
X319286807Y-173309683D02*
X319367619Y-173390495D01*
X319367619Y-173390495D02*
X319394557Y-173471307D01*
X319394557Y-173471307D02*
X319394557Y-173525182D01*
X319394557Y-173525182D02*
X319367619Y-173605994D01*
X319367619Y-173605994D02*
X319152120Y-173821494D01*
X319367619Y-173013372D02*
X319744743Y-172636248D01*
X319744743Y-172636248D02*
X320067992Y-173444370D01*
X335904761Y-201524200D02*
X336019047Y-201562295D01*
X336019047Y-201562295D02*
X336209523Y-201562295D01*
X336209523Y-201562295D02*
X336285714Y-201524200D01*
X336285714Y-201524200D02*
X336323809Y-201486104D01*
X336323809Y-201486104D02*
X336361904Y-201409914D01*
X336361904Y-201409914D02*
X336361904Y-201333723D01*
X336361904Y-201333723D02*
X336323809Y-201257533D01*
X336323809Y-201257533D02*
X336285714Y-201219438D01*
X336285714Y-201219438D02*
X336209523Y-201181342D01*
X336209523Y-201181342D02*
X336057142Y-201143247D01*
X336057142Y-201143247D02*
X335980952Y-201105152D01*
X335980952Y-201105152D02*
X335942857Y-201067057D01*
X335942857Y-201067057D02*
X335904761Y-200990866D01*
X335904761Y-200990866D02*
X335904761Y-200914676D01*
X335904761Y-200914676D02*
X335942857Y-200838485D01*
X335942857Y-200838485D02*
X335980952Y-200800390D01*
X335980952Y-200800390D02*
X336057142Y-200762295D01*
X336057142Y-200762295D02*
X336247619Y-200762295D01*
X336247619Y-200762295D02*
X336361904Y-200800390D01*
X336628571Y-200762295D02*
X336819047Y-201562295D01*
X336819047Y-201562295D02*
X336971428Y-200990866D01*
X336971428Y-200990866D02*
X337123809Y-201562295D01*
X337123809Y-201562295D02*
X337314286Y-200762295D01*
X337619048Y-201562295D02*
X337619048Y-200762295D01*
X337619048Y-200762295D02*
X337809524Y-200762295D01*
X337809524Y-200762295D02*
X337923810Y-200800390D01*
X337923810Y-200800390D02*
X338000000Y-200876580D01*
X338000000Y-200876580D02*
X338038095Y-200952771D01*
X338038095Y-200952771D02*
X338076191Y-201105152D01*
X338076191Y-201105152D02*
X338076191Y-201219438D01*
X338076191Y-201219438D02*
X338038095Y-201371819D01*
X338038095Y-201371819D02*
X338000000Y-201448009D01*
X338000000Y-201448009D02*
X337923810Y-201524200D01*
X337923810Y-201524200D02*
X337809524Y-201562295D01*
X337809524Y-201562295D02*
X337619048Y-201562295D01*
X338419048Y-201562295D02*
X338419048Y-200762295D01*
X338952381Y-200762295D02*
X339104762Y-200762295D01*
X339104762Y-200762295D02*
X339180952Y-200800390D01*
X339180952Y-200800390D02*
X339257143Y-200876580D01*
X339257143Y-200876580D02*
X339295238Y-201028961D01*
X339295238Y-201028961D02*
X339295238Y-201295628D01*
X339295238Y-201295628D02*
X339257143Y-201448009D01*
X339257143Y-201448009D02*
X339180952Y-201524200D01*
X339180952Y-201524200D02*
X339104762Y-201562295D01*
X339104762Y-201562295D02*
X338952381Y-201562295D01*
X338952381Y-201562295D02*
X338876190Y-201524200D01*
X338876190Y-201524200D02*
X338800000Y-201448009D01*
X338800000Y-201448009D02*
X338761904Y-201295628D01*
X338761904Y-201295628D02*
X338761904Y-201028961D01*
X338761904Y-201028961D02*
X338800000Y-200876580D01*
X338800000Y-200876580D02*
X338876190Y-200800390D01*
X338876190Y-200800390D02*
X338952381Y-200762295D01*
X344097998Y-199520868D02*
X344017185Y-199547805D01*
X344017185Y-199547805D02*
X343936373Y-199628618D01*
X343936373Y-199628618D02*
X343882498Y-199736367D01*
X343882498Y-199736367D02*
X343882498Y-199844117D01*
X343882498Y-199844117D02*
X343909436Y-199924929D01*
X343909436Y-199924929D02*
X343990248Y-200059616D01*
X343990248Y-200059616D02*
X344071060Y-200140428D01*
X344071060Y-200140428D02*
X344205747Y-200221241D01*
X344205747Y-200221241D02*
X344286560Y-200248178D01*
X344286560Y-200248178D02*
X344394309Y-200248178D01*
X344394309Y-200248178D02*
X344502059Y-200194303D01*
X344502059Y-200194303D02*
X344555934Y-200140428D01*
X344555934Y-200140428D02*
X344609808Y-200032679D01*
X344609808Y-200032679D02*
X344609808Y-199978804D01*
X344609808Y-199978804D02*
X344421247Y-199790242D01*
X344421247Y-199790242D02*
X344313497Y-199897992D01*
X344906120Y-199790242D02*
X344340434Y-199224557D01*
X344340434Y-199224557D02*
X344555934Y-199009057D01*
X344555934Y-199009057D02*
X344636746Y-198982120D01*
X344636746Y-198982120D02*
X344690621Y-198982120D01*
X344690621Y-198982120D02*
X344771433Y-199009057D01*
X344771433Y-199009057D02*
X344852245Y-199089870D01*
X344852245Y-199089870D02*
X344879182Y-199170682D01*
X344879182Y-199170682D02*
X344879182Y-199224557D01*
X344879182Y-199224557D02*
X344852245Y-199305369D01*
X344852245Y-199305369D02*
X344636746Y-199520868D01*
X345768117Y-198928245D02*
X345444868Y-199251494D01*
X345606492Y-199089870D02*
X345040807Y-198524184D01*
X345040807Y-198524184D02*
X345067744Y-198658871D01*
X345067744Y-198658871D02*
X345067744Y-198766621D01*
X345067744Y-198766621D02*
X345040807Y-198847433D01*
X345687305Y-197877686D02*
X345579555Y-197985436D01*
X345579555Y-197985436D02*
X345552618Y-198066248D01*
X345552618Y-198066248D02*
X345552618Y-198120123D01*
X345552618Y-198120123D02*
X345579555Y-198254810D01*
X345579555Y-198254810D02*
X345660367Y-198389497D01*
X345660367Y-198389497D02*
X345875866Y-198604996D01*
X345875866Y-198604996D02*
X345956679Y-198631934D01*
X345956679Y-198631934D02*
X346010553Y-198631934D01*
X346010553Y-198631934D02*
X346091366Y-198604996D01*
X346091366Y-198604996D02*
X346199115Y-198497247D01*
X346199115Y-198497247D02*
X346226053Y-198416434D01*
X346226053Y-198416434D02*
X346226053Y-198362560D01*
X346226053Y-198362560D02*
X346199115Y-198281747D01*
X346199115Y-198281747D02*
X346064428Y-198147060D01*
X346064428Y-198147060D02*
X345983616Y-198120123D01*
X345983616Y-198120123D02*
X345929741Y-198120123D01*
X345929741Y-198120123D02*
X345848929Y-198147060D01*
X345848929Y-198147060D02*
X345741179Y-198254810D01*
X345741179Y-198254810D02*
X345714242Y-198335622D01*
X345714242Y-198335622D02*
X345714242Y-198389497D01*
X345714242Y-198389497D02*
X345741179Y-198470309D01*
X317843998Y-189360868D02*
X317763185Y-189387805D01*
X317763185Y-189387805D02*
X317682373Y-189468618D01*
X317682373Y-189468618D02*
X317628498Y-189576367D01*
X317628498Y-189576367D02*
X317628498Y-189684117D01*
X317628498Y-189684117D02*
X317655436Y-189764929D01*
X317655436Y-189764929D02*
X317736248Y-189899616D01*
X317736248Y-189899616D02*
X317817060Y-189980428D01*
X317817060Y-189980428D02*
X317951747Y-190061241D01*
X317951747Y-190061241D02*
X318032560Y-190088178D01*
X318032560Y-190088178D02*
X318140309Y-190088178D01*
X318140309Y-190088178D02*
X318248059Y-190034303D01*
X318248059Y-190034303D02*
X318301934Y-189980428D01*
X318301934Y-189980428D02*
X318355808Y-189872679D01*
X318355808Y-189872679D02*
X318355808Y-189818804D01*
X318355808Y-189818804D02*
X318167247Y-189630242D01*
X318167247Y-189630242D02*
X318059497Y-189737992D01*
X318652120Y-189630242D02*
X318086434Y-189064557D01*
X318086434Y-189064557D02*
X318301934Y-188849057D01*
X318301934Y-188849057D02*
X318382746Y-188822120D01*
X318382746Y-188822120D02*
X318436621Y-188822120D01*
X318436621Y-188822120D02*
X318517433Y-188849057D01*
X318517433Y-188849057D02*
X318598245Y-188929870D01*
X318598245Y-188929870D02*
X318625182Y-189010682D01*
X318625182Y-189010682D02*
X318625182Y-189064557D01*
X318625182Y-189064557D02*
X318598245Y-189145369D01*
X318598245Y-189145369D02*
X318382746Y-189360868D01*
X319514117Y-188768245D02*
X319190868Y-189091494D01*
X319352492Y-188929870D02*
X318786807Y-188364184D01*
X318786807Y-188364184D02*
X318813744Y-188498871D01*
X318813744Y-188498871D02*
X318813744Y-188606621D01*
X318813744Y-188606621D02*
X318786807Y-188687433D01*
X319217805Y-188040935D02*
X319217805Y-187987060D01*
X319217805Y-187987060D02*
X319244743Y-187906248D01*
X319244743Y-187906248D02*
X319379430Y-187771561D01*
X319379430Y-187771561D02*
X319460242Y-187744624D01*
X319460242Y-187744624D02*
X319514117Y-187744624D01*
X319514117Y-187744624D02*
X319594929Y-187771561D01*
X319594929Y-187771561D02*
X319648804Y-187825436D01*
X319648804Y-187825436D02*
X319702679Y-187933186D01*
X319702679Y-187933186D02*
X319702679Y-188579683D01*
X319702679Y-188579683D02*
X320052865Y-188229497D01*
X344086435Y-181498431D02*
X344005623Y-181525368D01*
X344005623Y-181525368D02*
X343924811Y-181606180D01*
X343924811Y-181606180D02*
X343870936Y-181713930D01*
X343870936Y-181713930D02*
X343870936Y-181821680D01*
X343870936Y-181821680D02*
X343897873Y-181902492D01*
X343897873Y-181902492D02*
X343978685Y-182037179D01*
X343978685Y-182037179D02*
X344059498Y-182117991D01*
X344059498Y-182117991D02*
X344194185Y-182198803D01*
X344194185Y-182198803D02*
X344274997Y-182225741D01*
X344274997Y-182225741D02*
X344382746Y-182225741D01*
X344382746Y-182225741D02*
X344490496Y-182171866D01*
X344490496Y-182171866D02*
X344544371Y-182117991D01*
X344544371Y-182117991D02*
X344598246Y-182010241D01*
X344598246Y-182010241D02*
X344598246Y-181956367D01*
X344598246Y-181956367D02*
X344409684Y-181767805D01*
X344409684Y-181767805D02*
X344301934Y-181875554D01*
X344894557Y-181767805D02*
X344328872Y-181202119D01*
X344328872Y-181202119D02*
X345217806Y-181444556D01*
X345217806Y-181444556D02*
X344652120Y-180878871D01*
X345487180Y-181175182D02*
X344921494Y-180609497D01*
X344921494Y-180609497D02*
X345056181Y-180474810D01*
X345056181Y-180474810D02*
X345163931Y-180420935D01*
X345163931Y-180420935D02*
X345271680Y-180420935D01*
X345271680Y-180420935D02*
X345352493Y-180447872D01*
X345352493Y-180447872D02*
X345487180Y-180528685D01*
X345487180Y-180528685D02*
X345567992Y-180609497D01*
X345567992Y-180609497D02*
X345648804Y-180744184D01*
X345648804Y-180744184D02*
X345675741Y-180824996D01*
X345675741Y-180824996D02*
X345675741Y-180932746D01*
X345675741Y-180932746D02*
X345621867Y-181040495D01*
X345621867Y-181040495D02*
X345487180Y-181175182D01*
X318513372Y-166231494D02*
X318432560Y-166258431D01*
X318432560Y-166258431D02*
X318351748Y-166339243D01*
X318351748Y-166339243D02*
X318297873Y-166446993D01*
X318297873Y-166446993D02*
X318297873Y-166554742D01*
X318297873Y-166554742D02*
X318324810Y-166635555D01*
X318324810Y-166635555D02*
X318405623Y-166770242D01*
X318405623Y-166770242D02*
X318486435Y-166851054D01*
X318486435Y-166851054D02*
X318621122Y-166931866D01*
X318621122Y-166931866D02*
X318701934Y-166958803D01*
X318701934Y-166958803D02*
X318809684Y-166958803D01*
X318809684Y-166958803D02*
X318917433Y-166904929D01*
X318917433Y-166904929D02*
X318971308Y-166851054D01*
X318971308Y-166851054D02*
X319025183Y-166743304D01*
X319025183Y-166743304D02*
X319025183Y-166689429D01*
X319025183Y-166689429D02*
X318836621Y-166500868D01*
X318836621Y-166500868D02*
X318728871Y-166608617D01*
X319321494Y-166500868D02*
X318755809Y-165935182D01*
X318755809Y-165935182D02*
X318971308Y-165719683D01*
X318971308Y-165719683D02*
X319052120Y-165692746D01*
X319052120Y-165692746D02*
X319105995Y-165692746D01*
X319105995Y-165692746D02*
X319186807Y-165719683D01*
X319186807Y-165719683D02*
X319267619Y-165800495D01*
X319267619Y-165800495D02*
X319294557Y-165881307D01*
X319294557Y-165881307D02*
X319294557Y-165935182D01*
X319294557Y-165935182D02*
X319267619Y-166015994D01*
X319267619Y-166015994D02*
X319052120Y-166231494D01*
X319590868Y-165100123D02*
X319321494Y-165369497D01*
X319321494Y-165369497D02*
X319563931Y-165665808D01*
X319563931Y-165665808D02*
X319563931Y-165611933D01*
X319563931Y-165611933D02*
X319590868Y-165531121D01*
X319590868Y-165531121D02*
X319725555Y-165396434D01*
X319725555Y-165396434D02*
X319806367Y-165369497D01*
X319806367Y-165369497D02*
X319860242Y-165369497D01*
X319860242Y-165369497D02*
X319941054Y-165396434D01*
X319941054Y-165396434D02*
X320075741Y-165531121D01*
X320075741Y-165531121D02*
X320102679Y-165611933D01*
X320102679Y-165611933D02*
X320102679Y-165665808D01*
X320102679Y-165665808D02*
X320075741Y-165746620D01*
X320075741Y-165746620D02*
X319941054Y-165881307D01*
X319941054Y-165881307D02*
X319860242Y-165908245D01*
X319860242Y-165908245D02*
X319806367Y-165908245D01*
X344838651Y-176943710D02*
X344380716Y-176862898D01*
X344515403Y-177266959D02*
X343949717Y-176701274D01*
X343949717Y-176701274D02*
X344165216Y-176485775D01*
X344165216Y-176485775D02*
X344246029Y-176458837D01*
X344246029Y-176458837D02*
X344299903Y-176458837D01*
X344299903Y-176458837D02*
X344380716Y-176485775D01*
X344380716Y-176485775D02*
X344461528Y-176566587D01*
X344461528Y-176566587D02*
X344488465Y-176647399D01*
X344488465Y-176647399D02*
X344488465Y-176701274D01*
X344488465Y-176701274D02*
X344461528Y-176782086D01*
X344461528Y-176782086D02*
X344246029Y-176997585D01*
X344515403Y-176135588D02*
X344973338Y-176593524D01*
X344973338Y-176593524D02*
X345054151Y-176620462D01*
X345054151Y-176620462D02*
X345108025Y-176620462D01*
X345108025Y-176620462D02*
X345188838Y-176593524D01*
X345188838Y-176593524D02*
X345296587Y-176485775D01*
X345296587Y-176485775D02*
X345323525Y-176404962D01*
X345323525Y-176404962D02*
X345323525Y-176351088D01*
X345323525Y-176351088D02*
X345296587Y-176270275D01*
X345296587Y-176270275D02*
X344838651Y-175812340D01*
X345673711Y-176108651D02*
X345108025Y-175542966D01*
X345108025Y-175542966D02*
X345996959Y-175785402D01*
X345996959Y-175785402D02*
X345431274Y-175219717D01*
X344155064Y-164534049D02*
X344424438Y-164264675D01*
X344262813Y-164749549D02*
X343885690Y-163995301D01*
X343885690Y-163995301D02*
X344639937Y-164372425D01*
X344828499Y-164183863D02*
X344262813Y-163618178D01*
X344262813Y-163618178D02*
X344397500Y-163483491D01*
X344397500Y-163483491D02*
X344505250Y-163429616D01*
X344505250Y-163429616D02*
X344612999Y-163429616D01*
X344612999Y-163429616D02*
X344693812Y-163456553D01*
X344693812Y-163456553D02*
X344828499Y-163537366D01*
X344828499Y-163537366D02*
X344909311Y-163618178D01*
X344909311Y-163618178D02*
X344990123Y-163752865D01*
X344990123Y-163752865D02*
X345017060Y-163833677D01*
X345017060Y-163833677D02*
X345017060Y-163941427D01*
X345017060Y-163941427D02*
X344963186Y-164049176D01*
X344963186Y-164049176D02*
X344828499Y-164183863D01*
X345663558Y-163241054D02*
X345663558Y-163294929D01*
X345663558Y-163294929D02*
X345609683Y-163402679D01*
X345609683Y-163402679D02*
X345555808Y-163456553D01*
X345555808Y-163456553D02*
X345448059Y-163510428D01*
X345448059Y-163510428D02*
X345340309Y-163510428D01*
X345340309Y-163510428D02*
X345259497Y-163483491D01*
X345259497Y-163483491D02*
X345124810Y-163402679D01*
X345124810Y-163402679D02*
X345043998Y-163321866D01*
X345043998Y-163321866D02*
X344963186Y-163187179D01*
X344963186Y-163187179D02*
X344936248Y-163106367D01*
X344936248Y-163106367D02*
X344936248Y-162998618D01*
X344936248Y-162998618D02*
X344990123Y-162890868D01*
X344990123Y-162890868D02*
X345043998Y-162836993D01*
X345043998Y-162836993D02*
X345151747Y-162783118D01*
X345151747Y-162783118D02*
X345205622Y-162783118D01*
X345879057Y-163241054D02*
X346310056Y-162810056D01*
X345744370Y-162136621D02*
X346498618Y-162513744D01*
X346498618Y-162513744D02*
X346121494Y-161759497D01*
X347198990Y-161813372D02*
X346741054Y-161732560D01*
X346875741Y-162136621D02*
X346310056Y-161570935D01*
X346310056Y-161570935D02*
X346525555Y-161355436D01*
X346525555Y-161355436D02*
X346606367Y-161328499D01*
X346606367Y-161328499D02*
X346660242Y-161328499D01*
X346660242Y-161328499D02*
X346741054Y-161355436D01*
X346741054Y-161355436D02*
X346821866Y-161436248D01*
X346821866Y-161436248D02*
X346848804Y-161517061D01*
X346848804Y-161517061D02*
X346848804Y-161570935D01*
X346848804Y-161570935D02*
X346821866Y-161651748D01*
X346821866Y-161651748D02*
X346606367Y-161867247D01*
X347145115Y-161274624D02*
X347333677Y-161086062D01*
X347710800Y-161301561D02*
X347441426Y-161570935D01*
X347441426Y-161570935D02*
X346875741Y-161005250D01*
X346875741Y-161005250D02*
X347145115Y-160735876D01*
X347845488Y-160574251D02*
X347656926Y-160762813D01*
X347953237Y-161059125D02*
X347387552Y-160493439D01*
X347387552Y-160493439D02*
X347656926Y-160224065D01*
X343890123Y-161490868D02*
X344240309Y-161140682D01*
X344240309Y-161140682D02*
X344267247Y-161544743D01*
X344267247Y-161544743D02*
X344348059Y-161463931D01*
X344348059Y-161463931D02*
X344428871Y-161436993D01*
X344428871Y-161436993D02*
X344482746Y-161436993D01*
X344482746Y-161436993D02*
X344563558Y-161463931D01*
X344563558Y-161463931D02*
X344698245Y-161598618D01*
X344698245Y-161598618D02*
X344725182Y-161679430D01*
X344725182Y-161679430D02*
X344725182Y-161733305D01*
X344725182Y-161733305D02*
X344698245Y-161814117D01*
X344698245Y-161814117D02*
X344536621Y-161975741D01*
X344536621Y-161975741D02*
X344455808Y-162002679D01*
X344455808Y-162002679D02*
X344401934Y-162002679D01*
X344401934Y-160979057D02*
X345156181Y-161356181D01*
X345156181Y-161356181D02*
X344779057Y-160601934D01*
X344913744Y-160467247D02*
X345263930Y-160117061D01*
X345263930Y-160117061D02*
X345290868Y-160521122D01*
X345290868Y-160521122D02*
X345371680Y-160440309D01*
X345371680Y-160440309D02*
X345452492Y-160413372D01*
X345452492Y-160413372D02*
X345506367Y-160413372D01*
X345506367Y-160413372D02*
X345587179Y-160440309D01*
X345587179Y-160440309D02*
X345721866Y-160574996D01*
X345721866Y-160574996D02*
X345748804Y-160655809D01*
X345748804Y-160655809D02*
X345748804Y-160709683D01*
X345748804Y-160709683D02*
X345721866Y-160790496D01*
X345721866Y-160790496D02*
X345560242Y-160952120D01*
X345560242Y-160952120D02*
X345479430Y-160979057D01*
X345479430Y-160979057D02*
X345425555Y-160979057D01*
X318413372Y-158611494D02*
X318332560Y-158638431D01*
X318332560Y-158638431D02*
X318251748Y-158719243D01*
X318251748Y-158719243D02*
X318197873Y-158826993D01*
X318197873Y-158826993D02*
X318197873Y-158934742D01*
X318197873Y-158934742D02*
X318224810Y-159015555D01*
X318224810Y-159015555D02*
X318305623Y-159150242D01*
X318305623Y-159150242D02*
X318386435Y-159231054D01*
X318386435Y-159231054D02*
X318521122Y-159311866D01*
X318521122Y-159311866D02*
X318601934Y-159338803D01*
X318601934Y-159338803D02*
X318709684Y-159338803D01*
X318709684Y-159338803D02*
X318817433Y-159284929D01*
X318817433Y-159284929D02*
X318871308Y-159231054D01*
X318871308Y-159231054D02*
X318925183Y-159123304D01*
X318925183Y-159123304D02*
X318925183Y-159069429D01*
X318925183Y-159069429D02*
X318736621Y-158880868D01*
X318736621Y-158880868D02*
X318628871Y-158988617D01*
X319221494Y-158880868D02*
X318655809Y-158315182D01*
X318655809Y-158315182D02*
X318871308Y-158099683D01*
X318871308Y-158099683D02*
X318952120Y-158072746D01*
X318952120Y-158072746D02*
X319005995Y-158072746D01*
X319005995Y-158072746D02*
X319086807Y-158099683D01*
X319086807Y-158099683D02*
X319167619Y-158180495D01*
X319167619Y-158180495D02*
X319194557Y-158261307D01*
X319194557Y-158261307D02*
X319194557Y-158315182D01*
X319194557Y-158315182D02*
X319167619Y-158395994D01*
X319167619Y-158395994D02*
X318952120Y-158611494D01*
X319248432Y-157830309D02*
X319248432Y-157776434D01*
X319248432Y-157776434D02*
X319275369Y-157695622D01*
X319275369Y-157695622D02*
X319410056Y-157560935D01*
X319410056Y-157560935D02*
X319490868Y-157533998D01*
X319490868Y-157533998D02*
X319544743Y-157533998D01*
X319544743Y-157533998D02*
X319625555Y-157560935D01*
X319625555Y-157560935D02*
X319679430Y-157614810D01*
X319679430Y-157614810D02*
X319733305Y-157722559D01*
X319733305Y-157722559D02*
X319733305Y-158369057D01*
X319733305Y-158369057D02*
X320083491Y-158018871D01*
X317989998Y-199520868D02*
X317909185Y-199547805D01*
X317909185Y-199547805D02*
X317828373Y-199628618D01*
X317828373Y-199628618D02*
X317774498Y-199736367D01*
X317774498Y-199736367D02*
X317774498Y-199844117D01*
X317774498Y-199844117D02*
X317801436Y-199924929D01*
X317801436Y-199924929D02*
X317882248Y-200059616D01*
X317882248Y-200059616D02*
X317963060Y-200140428D01*
X317963060Y-200140428D02*
X318097747Y-200221241D01*
X318097747Y-200221241D02*
X318178560Y-200248178D01*
X318178560Y-200248178D02*
X318286309Y-200248178D01*
X318286309Y-200248178D02*
X318394059Y-200194303D01*
X318394059Y-200194303D02*
X318447934Y-200140428D01*
X318447934Y-200140428D02*
X318501808Y-200032679D01*
X318501808Y-200032679D02*
X318501808Y-199978804D01*
X318501808Y-199978804D02*
X318313247Y-199790242D01*
X318313247Y-199790242D02*
X318205497Y-199897992D01*
X318798120Y-199790242D02*
X318232434Y-199224557D01*
X318232434Y-199224557D02*
X318447934Y-199009057D01*
X318447934Y-199009057D02*
X318528746Y-198982120D01*
X318528746Y-198982120D02*
X318582621Y-198982120D01*
X318582621Y-198982120D02*
X318663433Y-199009057D01*
X318663433Y-199009057D02*
X318744245Y-199089870D01*
X318744245Y-199089870D02*
X318771182Y-199170682D01*
X318771182Y-199170682D02*
X318771182Y-199224557D01*
X318771182Y-199224557D02*
X318744245Y-199305369D01*
X318744245Y-199305369D02*
X318528746Y-199520868D01*
X319660117Y-198928245D02*
X319336868Y-199251494D01*
X319498492Y-199089870D02*
X318932807Y-198524184D01*
X318932807Y-198524184D02*
X318959744Y-198658871D01*
X318959744Y-198658871D02*
X318959744Y-198766621D01*
X318959744Y-198766621D02*
X318932807Y-198847433D01*
X319606242Y-197850749D02*
X319336868Y-198120123D01*
X319336868Y-198120123D02*
X319579305Y-198416434D01*
X319579305Y-198416434D02*
X319579305Y-198362560D01*
X319579305Y-198362560D02*
X319606242Y-198281747D01*
X319606242Y-198281747D02*
X319740929Y-198147060D01*
X319740929Y-198147060D02*
X319821741Y-198120123D01*
X319821741Y-198120123D02*
X319875616Y-198120123D01*
X319875616Y-198120123D02*
X319956428Y-198147060D01*
X319956428Y-198147060D02*
X320091115Y-198281747D01*
X320091115Y-198281747D02*
X320118053Y-198362560D01*
X320118053Y-198362560D02*
X320118053Y-198416434D01*
X320118053Y-198416434D02*
X320091115Y-198497247D01*
X320091115Y-198497247D02*
X319956428Y-198631934D01*
X319956428Y-198631934D02*
X319875616Y-198658871D01*
X319875616Y-198658871D02*
X319821741Y-198658871D01*
X318486435Y-168798431D02*
X318405623Y-168825368D01*
X318405623Y-168825368D02*
X318324811Y-168906180D01*
X318324811Y-168906180D02*
X318270936Y-169013930D01*
X318270936Y-169013930D02*
X318270936Y-169121680D01*
X318270936Y-169121680D02*
X318297873Y-169202492D01*
X318297873Y-169202492D02*
X318378685Y-169337179D01*
X318378685Y-169337179D02*
X318459498Y-169417991D01*
X318459498Y-169417991D02*
X318594185Y-169498803D01*
X318594185Y-169498803D02*
X318674997Y-169525741D01*
X318674997Y-169525741D02*
X318782746Y-169525741D01*
X318782746Y-169525741D02*
X318890496Y-169471866D01*
X318890496Y-169471866D02*
X318944371Y-169417991D01*
X318944371Y-169417991D02*
X318998246Y-169310241D01*
X318998246Y-169310241D02*
X318998246Y-169256367D01*
X318998246Y-169256367D02*
X318809684Y-169067805D01*
X318809684Y-169067805D02*
X318701934Y-169175554D01*
X319294557Y-169067805D02*
X318728872Y-168502119D01*
X318728872Y-168502119D02*
X319617806Y-168744556D01*
X319617806Y-168744556D02*
X319052120Y-168178871D01*
X319887180Y-168475182D02*
X319321494Y-167909497D01*
X319321494Y-167909497D02*
X319456181Y-167774810D01*
X319456181Y-167774810D02*
X319563931Y-167720935D01*
X319563931Y-167720935D02*
X319671680Y-167720935D01*
X319671680Y-167720935D02*
X319752493Y-167747872D01*
X319752493Y-167747872D02*
X319887180Y-167828685D01*
X319887180Y-167828685D02*
X319967992Y-167909497D01*
X319967992Y-167909497D02*
X320048804Y-168044184D01*
X320048804Y-168044184D02*
X320075741Y-168124996D01*
X320075741Y-168124996D02*
X320075741Y-168232746D01*
X320075741Y-168232746D02*
X320021867Y-168340495D01*
X320021867Y-168340495D02*
X319887180Y-168475182D01*
X344097998Y-196980868D02*
X344017185Y-197007805D01*
X344017185Y-197007805D02*
X343936373Y-197088618D01*
X343936373Y-197088618D02*
X343882498Y-197196367D01*
X343882498Y-197196367D02*
X343882498Y-197304117D01*
X343882498Y-197304117D02*
X343909436Y-197384929D01*
X343909436Y-197384929D02*
X343990248Y-197519616D01*
X343990248Y-197519616D02*
X344071060Y-197600428D01*
X344071060Y-197600428D02*
X344205747Y-197681241D01*
X344205747Y-197681241D02*
X344286560Y-197708178D01*
X344286560Y-197708178D02*
X344394309Y-197708178D01*
X344394309Y-197708178D02*
X344502059Y-197654303D01*
X344502059Y-197654303D02*
X344555934Y-197600428D01*
X344555934Y-197600428D02*
X344609808Y-197492679D01*
X344609808Y-197492679D02*
X344609808Y-197438804D01*
X344609808Y-197438804D02*
X344421247Y-197250242D01*
X344421247Y-197250242D02*
X344313497Y-197357992D01*
X344906120Y-197250242D02*
X344340434Y-196684557D01*
X344340434Y-196684557D02*
X344555934Y-196469057D01*
X344555934Y-196469057D02*
X344636746Y-196442120D01*
X344636746Y-196442120D02*
X344690621Y-196442120D01*
X344690621Y-196442120D02*
X344771433Y-196469057D01*
X344771433Y-196469057D02*
X344852245Y-196549870D01*
X344852245Y-196549870D02*
X344879182Y-196630682D01*
X344879182Y-196630682D02*
X344879182Y-196684557D01*
X344879182Y-196684557D02*
X344852245Y-196765369D01*
X344852245Y-196765369D02*
X344636746Y-196980868D01*
X345768117Y-196388245D02*
X345444868Y-196711494D01*
X345606492Y-196549870D02*
X345040807Y-195984184D01*
X345040807Y-195984184D02*
X345067744Y-196118871D01*
X345067744Y-196118871D02*
X345067744Y-196226621D01*
X345067744Y-196226621D02*
X345040807Y-196307433D01*
X345390993Y-195633998D02*
X345768117Y-195256874D01*
X345768117Y-195256874D02*
X346091366Y-196064996D01*
X317989998Y-191900868D02*
X317909185Y-191927805D01*
X317909185Y-191927805D02*
X317828373Y-192008618D01*
X317828373Y-192008618D02*
X317774498Y-192116367D01*
X317774498Y-192116367D02*
X317774498Y-192224117D01*
X317774498Y-192224117D02*
X317801436Y-192304929D01*
X317801436Y-192304929D02*
X317882248Y-192439616D01*
X317882248Y-192439616D02*
X317963060Y-192520428D01*
X317963060Y-192520428D02*
X318097747Y-192601241D01*
X318097747Y-192601241D02*
X318178560Y-192628178D01*
X318178560Y-192628178D02*
X318286309Y-192628178D01*
X318286309Y-192628178D02*
X318394059Y-192574303D01*
X318394059Y-192574303D02*
X318447934Y-192520428D01*
X318447934Y-192520428D02*
X318501808Y-192412679D01*
X318501808Y-192412679D02*
X318501808Y-192358804D01*
X318501808Y-192358804D02*
X318313247Y-192170242D01*
X318313247Y-192170242D02*
X318205497Y-192277992D01*
X318798120Y-192170242D02*
X318232434Y-191604557D01*
X318232434Y-191604557D02*
X318447934Y-191389057D01*
X318447934Y-191389057D02*
X318528746Y-191362120D01*
X318528746Y-191362120D02*
X318582621Y-191362120D01*
X318582621Y-191362120D02*
X318663433Y-191389057D01*
X318663433Y-191389057D02*
X318744245Y-191469870D01*
X318744245Y-191469870D02*
X318771182Y-191550682D01*
X318771182Y-191550682D02*
X318771182Y-191604557D01*
X318771182Y-191604557D02*
X318744245Y-191685369D01*
X318744245Y-191685369D02*
X318528746Y-191900868D01*
X319660117Y-191308245D02*
X319336868Y-191631494D01*
X319498492Y-191469870D02*
X318932807Y-190904184D01*
X318932807Y-190904184D02*
X318959744Y-191038871D01*
X318959744Y-191038871D02*
X318959744Y-191146621D01*
X318959744Y-191146621D02*
X318932807Y-191227433D01*
X319282993Y-190553998D02*
X319633179Y-190203812D01*
X319633179Y-190203812D02*
X319660117Y-190607873D01*
X319660117Y-190607873D02*
X319740929Y-190527060D01*
X319740929Y-190527060D02*
X319821741Y-190500123D01*
X319821741Y-190500123D02*
X319875616Y-190500123D01*
X319875616Y-190500123D02*
X319956428Y-190527060D01*
X319956428Y-190527060D02*
X320091115Y-190661747D01*
X320091115Y-190661747D02*
X320118053Y-190742560D01*
X320118053Y-190742560D02*
X320118053Y-190796434D01*
X320118053Y-190796434D02*
X320091115Y-190877247D01*
X320091115Y-190877247D02*
X319929491Y-191038871D01*
X319929491Y-191038871D02*
X319848679Y-191065808D01*
X319848679Y-191065808D02*
X319794804Y-191065808D01*
X318513372Y-150991494D02*
X318432560Y-151018431D01*
X318432560Y-151018431D02*
X318351748Y-151099243D01*
X318351748Y-151099243D02*
X318297873Y-151206993D01*
X318297873Y-151206993D02*
X318297873Y-151314742D01*
X318297873Y-151314742D02*
X318324810Y-151395555D01*
X318324810Y-151395555D02*
X318405623Y-151530242D01*
X318405623Y-151530242D02*
X318486435Y-151611054D01*
X318486435Y-151611054D02*
X318621122Y-151691866D01*
X318621122Y-151691866D02*
X318701934Y-151718803D01*
X318701934Y-151718803D02*
X318809684Y-151718803D01*
X318809684Y-151718803D02*
X318917433Y-151664929D01*
X318917433Y-151664929D02*
X318971308Y-151611054D01*
X318971308Y-151611054D02*
X319025183Y-151503304D01*
X319025183Y-151503304D02*
X319025183Y-151449429D01*
X319025183Y-151449429D02*
X318836621Y-151260868D01*
X318836621Y-151260868D02*
X318728871Y-151368617D01*
X319321494Y-151260868D02*
X318755809Y-150695182D01*
X318755809Y-150695182D02*
X318971308Y-150479683D01*
X318971308Y-150479683D02*
X319052120Y-150452746D01*
X319052120Y-150452746D02*
X319105995Y-150452746D01*
X319105995Y-150452746D02*
X319186807Y-150479683D01*
X319186807Y-150479683D02*
X319267619Y-150560495D01*
X319267619Y-150560495D02*
X319294557Y-150641307D01*
X319294557Y-150641307D02*
X319294557Y-150695182D01*
X319294557Y-150695182D02*
X319267619Y-150775994D01*
X319267619Y-150775994D02*
X319052120Y-150991494D01*
X319429244Y-150021747D02*
X319483119Y-149967872D01*
X319483119Y-149967872D02*
X319563931Y-149940935D01*
X319563931Y-149940935D02*
X319617806Y-149940935D01*
X319617806Y-149940935D02*
X319698618Y-149967872D01*
X319698618Y-149967872D02*
X319833305Y-150048685D01*
X319833305Y-150048685D02*
X319967992Y-150183372D01*
X319967992Y-150183372D02*
X320048804Y-150318059D01*
X320048804Y-150318059D02*
X320075741Y-150398871D01*
X320075741Y-150398871D02*
X320075741Y-150452746D01*
X320075741Y-150452746D02*
X320048804Y-150533558D01*
X320048804Y-150533558D02*
X319994929Y-150587433D01*
X319994929Y-150587433D02*
X319914117Y-150614370D01*
X319914117Y-150614370D02*
X319860242Y-150614370D01*
X319860242Y-150614370D02*
X319779430Y-150587433D01*
X319779430Y-150587433D02*
X319644743Y-150506620D01*
X319644743Y-150506620D02*
X319510056Y-150371933D01*
X319510056Y-150371933D02*
X319429244Y-150237246D01*
X319429244Y-150237246D02*
X319402306Y-150156434D01*
X319402306Y-150156434D02*
X319402306Y-150102559D01*
X319402306Y-150102559D02*
X319429244Y-150021747D01*
X343922407Y-158958584D02*
X344272593Y-158608398D01*
X344272593Y-158608398D02*
X344299531Y-159012459D01*
X344299531Y-159012459D02*
X344380343Y-158931646D01*
X344380343Y-158931646D02*
X344461155Y-158904709D01*
X344461155Y-158904709D02*
X344515030Y-158904709D01*
X344515030Y-158904709D02*
X344595842Y-158931646D01*
X344595842Y-158931646D02*
X344730529Y-159066333D01*
X344730529Y-159066333D02*
X344757467Y-159147146D01*
X344757467Y-159147146D02*
X344757467Y-159201020D01*
X344757467Y-159201020D02*
X344730529Y-159281833D01*
X344730529Y-159281833D02*
X344568905Y-159443457D01*
X344568905Y-159443457D02*
X344488093Y-159470394D01*
X344488093Y-159470394D02*
X344434218Y-159470394D01*
X344434218Y-158446773D02*
X345188465Y-158823897D01*
X345188465Y-158823897D02*
X344811342Y-158069649D01*
X344946028Y-157934963D02*
X345296215Y-157584776D01*
X345296215Y-157584776D02*
X345323152Y-157988837D01*
X345323152Y-157988837D02*
X345403964Y-157908025D01*
X345403964Y-157908025D02*
X345484776Y-157881088D01*
X345484776Y-157881088D02*
X345538651Y-157881088D01*
X345538651Y-157881088D02*
X345619464Y-157908025D01*
X345619464Y-157908025D02*
X345754151Y-158042712D01*
X345754151Y-158042712D02*
X345781088Y-158123524D01*
X345781088Y-158123524D02*
X345781088Y-158177399D01*
X345781088Y-158177399D02*
X345754151Y-158258211D01*
X345754151Y-158258211D02*
X345592526Y-158419836D01*
X345592526Y-158419836D02*
X345511714Y-158446773D01*
X345511714Y-158446773D02*
X345457839Y-158446773D01*
X346023525Y-158096587D02*
X346454523Y-157665588D01*
X346239024Y-157180715D02*
X346427586Y-156992153D01*
X346804709Y-157207652D02*
X346535335Y-157477026D01*
X346535335Y-157477026D02*
X345969650Y-156911341D01*
X345969650Y-156911341D02*
X346239024Y-156641967D01*
X347047146Y-156965215D02*
X346481461Y-156399530D01*
X346481461Y-156399530D02*
X347370395Y-156641967D01*
X347370395Y-156641967D02*
X346804710Y-156076281D01*
X344097998Y-184290868D02*
X344017185Y-184317805D01*
X344017185Y-184317805D02*
X343936373Y-184398618D01*
X343936373Y-184398618D02*
X343882498Y-184506367D01*
X343882498Y-184506367D02*
X343882498Y-184614117D01*
X343882498Y-184614117D02*
X343909436Y-184694929D01*
X343909436Y-184694929D02*
X343990248Y-184829616D01*
X343990248Y-184829616D02*
X344071060Y-184910428D01*
X344071060Y-184910428D02*
X344205747Y-184991241D01*
X344205747Y-184991241D02*
X344286560Y-185018178D01*
X344286560Y-185018178D02*
X344394309Y-185018178D01*
X344394309Y-185018178D02*
X344502059Y-184964303D01*
X344502059Y-184964303D02*
X344555934Y-184910428D01*
X344555934Y-184910428D02*
X344609808Y-184802679D01*
X344609808Y-184802679D02*
X344609808Y-184748804D01*
X344609808Y-184748804D02*
X344421247Y-184560242D01*
X344421247Y-184560242D02*
X344313497Y-184667992D01*
X344906120Y-184560242D02*
X344340434Y-183994557D01*
X344340434Y-183994557D02*
X344555934Y-183779057D01*
X344555934Y-183779057D02*
X344636746Y-183752120D01*
X344636746Y-183752120D02*
X344690621Y-183752120D01*
X344690621Y-183752120D02*
X344771433Y-183779057D01*
X344771433Y-183779057D02*
X344852245Y-183859870D01*
X344852245Y-183859870D02*
X344879182Y-183940682D01*
X344879182Y-183940682D02*
X344879182Y-183994557D01*
X344879182Y-183994557D02*
X344852245Y-184075369D01*
X344852245Y-184075369D02*
X344636746Y-184290868D01*
X344933057Y-183509683D02*
X344933057Y-183455809D01*
X344933057Y-183455809D02*
X344959995Y-183374996D01*
X344959995Y-183374996D02*
X345094682Y-183240309D01*
X345094682Y-183240309D02*
X345175494Y-183213372D01*
X345175494Y-183213372D02*
X345229369Y-183213372D01*
X345229369Y-183213372D02*
X345310181Y-183240309D01*
X345310181Y-183240309D02*
X345364056Y-183294184D01*
X345364056Y-183294184D02*
X345417930Y-183401934D01*
X345417930Y-183401934D02*
X345417930Y-184048431D01*
X345417930Y-184048431D02*
X345768117Y-183698245D01*
X346306865Y-183159497D02*
X345983616Y-183482746D01*
X346145240Y-183321121D02*
X345579555Y-182755436D01*
X345579555Y-182755436D02*
X345606492Y-182890123D01*
X345606492Y-182890123D02*
X345606492Y-182997873D01*
X345606492Y-182997873D02*
X345579555Y-183078685D01*
X318513372Y-171311494D02*
X318432560Y-171338431D01*
X318432560Y-171338431D02*
X318351748Y-171419243D01*
X318351748Y-171419243D02*
X318297873Y-171526993D01*
X318297873Y-171526993D02*
X318297873Y-171634742D01*
X318297873Y-171634742D02*
X318324810Y-171715555D01*
X318324810Y-171715555D02*
X318405623Y-171850242D01*
X318405623Y-171850242D02*
X318486435Y-171931054D01*
X318486435Y-171931054D02*
X318621122Y-172011866D01*
X318621122Y-172011866D02*
X318701934Y-172038803D01*
X318701934Y-172038803D02*
X318809684Y-172038803D01*
X318809684Y-172038803D02*
X318917433Y-171984929D01*
X318917433Y-171984929D02*
X318971308Y-171931054D01*
X318971308Y-171931054D02*
X319025183Y-171823304D01*
X319025183Y-171823304D02*
X319025183Y-171769429D01*
X319025183Y-171769429D02*
X318836621Y-171580868D01*
X318836621Y-171580868D02*
X318728871Y-171688617D01*
X319321494Y-171580868D02*
X318755809Y-171015182D01*
X318755809Y-171015182D02*
X318971308Y-170799683D01*
X318971308Y-170799683D02*
X319052120Y-170772746D01*
X319052120Y-170772746D02*
X319105995Y-170772746D01*
X319105995Y-170772746D02*
X319186807Y-170799683D01*
X319186807Y-170799683D02*
X319267619Y-170880495D01*
X319267619Y-170880495D02*
X319294557Y-170961307D01*
X319294557Y-170961307D02*
X319294557Y-171015182D01*
X319294557Y-171015182D02*
X319267619Y-171095994D01*
X319267619Y-171095994D02*
X319052120Y-171311494D01*
X319563931Y-170207060D02*
X319456181Y-170314810D01*
X319456181Y-170314810D02*
X319429244Y-170395622D01*
X319429244Y-170395622D02*
X319429244Y-170449497D01*
X319429244Y-170449497D02*
X319456181Y-170584184D01*
X319456181Y-170584184D02*
X319536993Y-170718871D01*
X319536993Y-170718871D02*
X319752493Y-170934370D01*
X319752493Y-170934370D02*
X319833305Y-170961307D01*
X319833305Y-170961307D02*
X319887180Y-170961307D01*
X319887180Y-170961307D02*
X319967992Y-170934370D01*
X319967992Y-170934370D02*
X320075741Y-170826620D01*
X320075741Y-170826620D02*
X320102679Y-170745808D01*
X320102679Y-170745808D02*
X320102679Y-170691933D01*
X320102679Y-170691933D02*
X320075741Y-170611121D01*
X320075741Y-170611121D02*
X319941054Y-170476434D01*
X319941054Y-170476434D02*
X319860242Y-170449497D01*
X319860242Y-170449497D02*
X319806367Y-170449497D01*
X319806367Y-170449497D02*
X319725555Y-170476434D01*
X319725555Y-170476434D02*
X319617806Y-170584184D01*
X319617806Y-170584184D02*
X319590868Y-170664996D01*
X319590868Y-170664996D02*
X319590868Y-170718871D01*
X319590868Y-170718871D02*
X319617806Y-170799683D01*
X344097998Y-179200868D02*
X344017185Y-179227805D01*
X344017185Y-179227805D02*
X343936373Y-179308618D01*
X343936373Y-179308618D02*
X343882498Y-179416367D01*
X343882498Y-179416367D02*
X343882498Y-179524117D01*
X343882498Y-179524117D02*
X343909436Y-179604929D01*
X343909436Y-179604929D02*
X343990248Y-179739616D01*
X343990248Y-179739616D02*
X344071060Y-179820428D01*
X344071060Y-179820428D02*
X344205747Y-179901241D01*
X344205747Y-179901241D02*
X344286560Y-179928178D01*
X344286560Y-179928178D02*
X344394309Y-179928178D01*
X344394309Y-179928178D02*
X344502059Y-179874303D01*
X344502059Y-179874303D02*
X344555934Y-179820428D01*
X344555934Y-179820428D02*
X344609808Y-179712679D01*
X344609808Y-179712679D02*
X344609808Y-179658804D01*
X344609808Y-179658804D02*
X344421247Y-179470242D01*
X344421247Y-179470242D02*
X344313497Y-179577992D01*
X344906120Y-179470242D02*
X344340434Y-178904557D01*
X344340434Y-178904557D02*
X344555934Y-178689057D01*
X344555934Y-178689057D02*
X344636746Y-178662120D01*
X344636746Y-178662120D02*
X344690621Y-178662120D01*
X344690621Y-178662120D02*
X344771433Y-178689057D01*
X344771433Y-178689057D02*
X344852245Y-178769870D01*
X344852245Y-178769870D02*
X344879182Y-178850682D01*
X344879182Y-178850682D02*
X344879182Y-178904557D01*
X344879182Y-178904557D02*
X344852245Y-178985369D01*
X344852245Y-178985369D02*
X344636746Y-179200868D01*
X344933057Y-178419683D02*
X344933057Y-178365809D01*
X344933057Y-178365809D02*
X344959995Y-178284996D01*
X344959995Y-178284996D02*
X345094682Y-178150309D01*
X345094682Y-178150309D02*
X345175494Y-178123372D01*
X345175494Y-178123372D02*
X345229369Y-178123372D01*
X345229369Y-178123372D02*
X345310181Y-178150309D01*
X345310181Y-178150309D02*
X345364056Y-178204184D01*
X345364056Y-178204184D02*
X345417930Y-178311934D01*
X345417930Y-178311934D02*
X345417930Y-178958431D01*
X345417930Y-178958431D02*
X345768117Y-178608245D01*
X345471805Y-177880935D02*
X345471805Y-177827060D01*
X345471805Y-177827060D02*
X345498743Y-177746248D01*
X345498743Y-177746248D02*
X345633430Y-177611561D01*
X345633430Y-177611561D02*
X345714242Y-177584624D01*
X345714242Y-177584624D02*
X345768117Y-177584624D01*
X345768117Y-177584624D02*
X345848929Y-177611561D01*
X345848929Y-177611561D02*
X345902804Y-177665436D01*
X345902804Y-177665436D02*
X345956679Y-177773186D01*
X345956679Y-177773186D02*
X345956679Y-178419683D01*
X345956679Y-178419683D02*
X346306865Y-178069497D01*
X317943998Y-196980868D02*
X317863185Y-197007805D01*
X317863185Y-197007805D02*
X317782373Y-197088618D01*
X317782373Y-197088618D02*
X317728498Y-197196367D01*
X317728498Y-197196367D02*
X317728498Y-197304117D01*
X317728498Y-197304117D02*
X317755436Y-197384929D01*
X317755436Y-197384929D02*
X317836248Y-197519616D01*
X317836248Y-197519616D02*
X317917060Y-197600428D01*
X317917060Y-197600428D02*
X318051747Y-197681241D01*
X318051747Y-197681241D02*
X318132560Y-197708178D01*
X318132560Y-197708178D02*
X318240309Y-197708178D01*
X318240309Y-197708178D02*
X318348059Y-197654303D01*
X318348059Y-197654303D02*
X318401934Y-197600428D01*
X318401934Y-197600428D02*
X318455808Y-197492679D01*
X318455808Y-197492679D02*
X318455808Y-197438804D01*
X318455808Y-197438804D02*
X318267247Y-197250242D01*
X318267247Y-197250242D02*
X318159497Y-197357992D01*
X318752120Y-197250242D02*
X318186434Y-196684557D01*
X318186434Y-196684557D02*
X318401934Y-196469057D01*
X318401934Y-196469057D02*
X318482746Y-196442120D01*
X318482746Y-196442120D02*
X318536621Y-196442120D01*
X318536621Y-196442120D02*
X318617433Y-196469057D01*
X318617433Y-196469057D02*
X318698245Y-196549870D01*
X318698245Y-196549870D02*
X318725182Y-196630682D01*
X318725182Y-196630682D02*
X318725182Y-196684557D01*
X318725182Y-196684557D02*
X318698245Y-196765369D01*
X318698245Y-196765369D02*
X318482746Y-196980868D01*
X319614117Y-196388245D02*
X319290868Y-196711494D01*
X319452492Y-196549870D02*
X318886807Y-195984184D01*
X318886807Y-195984184D02*
X318913744Y-196118871D01*
X318913744Y-196118871D02*
X318913744Y-196226621D01*
X318913744Y-196226621D02*
X318886807Y-196307433D01*
X319721866Y-195526248D02*
X320098990Y-195903372D01*
X319371680Y-195445436D02*
X319641054Y-195984184D01*
X319641054Y-195984184D02*
X319991240Y-195633998D01*
X344086435Y-194198431D02*
X344005623Y-194225368D01*
X344005623Y-194225368D02*
X343924811Y-194306180D01*
X343924811Y-194306180D02*
X343870936Y-194413930D01*
X343870936Y-194413930D02*
X343870936Y-194521680D01*
X343870936Y-194521680D02*
X343897873Y-194602492D01*
X343897873Y-194602492D02*
X343978685Y-194737179D01*
X343978685Y-194737179D02*
X344059498Y-194817991D01*
X344059498Y-194817991D02*
X344194185Y-194898803D01*
X344194185Y-194898803D02*
X344274997Y-194925741D01*
X344274997Y-194925741D02*
X344382746Y-194925741D01*
X344382746Y-194925741D02*
X344490496Y-194871866D01*
X344490496Y-194871866D02*
X344544371Y-194817991D01*
X344544371Y-194817991D02*
X344598246Y-194710241D01*
X344598246Y-194710241D02*
X344598246Y-194656367D01*
X344598246Y-194656367D02*
X344409684Y-194467805D01*
X344409684Y-194467805D02*
X344301934Y-194575554D01*
X344894557Y-194467805D02*
X344328872Y-193902119D01*
X344328872Y-193902119D02*
X345217806Y-194144556D01*
X345217806Y-194144556D02*
X344652120Y-193578871D01*
X345487180Y-193875182D02*
X344921494Y-193309497D01*
X344921494Y-193309497D02*
X345056181Y-193174810D01*
X345056181Y-193174810D02*
X345163931Y-193120935D01*
X345163931Y-193120935D02*
X345271680Y-193120935D01*
X345271680Y-193120935D02*
X345352493Y-193147872D01*
X345352493Y-193147872D02*
X345487180Y-193228685D01*
X345487180Y-193228685D02*
X345567992Y-193309497D01*
X345567992Y-193309497D02*
X345648804Y-193444184D01*
X345648804Y-193444184D02*
X345675741Y-193524996D01*
X345675741Y-193524996D02*
X345675741Y-193632746D01*
X345675741Y-193632746D02*
X345621867Y-193740495D01*
X345621867Y-193740495D02*
X345487180Y-193875182D01*
X318513372Y-161151494D02*
X318432560Y-161178431D01*
X318432560Y-161178431D02*
X318351748Y-161259243D01*
X318351748Y-161259243D02*
X318297873Y-161366993D01*
X318297873Y-161366993D02*
X318297873Y-161474742D01*
X318297873Y-161474742D02*
X318324810Y-161555555D01*
X318324810Y-161555555D02*
X318405623Y-161690242D01*
X318405623Y-161690242D02*
X318486435Y-161771054D01*
X318486435Y-161771054D02*
X318621122Y-161851866D01*
X318621122Y-161851866D02*
X318701934Y-161878803D01*
X318701934Y-161878803D02*
X318809684Y-161878803D01*
X318809684Y-161878803D02*
X318917433Y-161824929D01*
X318917433Y-161824929D02*
X318971308Y-161771054D01*
X318971308Y-161771054D02*
X319025183Y-161663304D01*
X319025183Y-161663304D02*
X319025183Y-161609429D01*
X319025183Y-161609429D02*
X318836621Y-161420868D01*
X318836621Y-161420868D02*
X318728871Y-161528617D01*
X319321494Y-161420868D02*
X318755809Y-160855182D01*
X318755809Y-160855182D02*
X318971308Y-160639683D01*
X318971308Y-160639683D02*
X319052120Y-160612746D01*
X319052120Y-160612746D02*
X319105995Y-160612746D01*
X319105995Y-160612746D02*
X319186807Y-160639683D01*
X319186807Y-160639683D02*
X319267619Y-160720495D01*
X319267619Y-160720495D02*
X319294557Y-160801307D01*
X319294557Y-160801307D02*
X319294557Y-160855182D01*
X319294557Y-160855182D02*
X319267619Y-160935994D01*
X319267619Y-160935994D02*
X319052120Y-161151494D01*
X319267619Y-160343372D02*
X319617806Y-159993185D01*
X319617806Y-159993185D02*
X319644743Y-160397246D01*
X319644743Y-160397246D02*
X319725555Y-160316434D01*
X319725555Y-160316434D02*
X319806367Y-160289497D01*
X319806367Y-160289497D02*
X319860242Y-160289497D01*
X319860242Y-160289497D02*
X319941054Y-160316434D01*
X319941054Y-160316434D02*
X320075741Y-160451121D01*
X320075741Y-160451121D02*
X320102679Y-160531933D01*
X320102679Y-160531933D02*
X320102679Y-160585808D01*
X320102679Y-160585808D02*
X320075741Y-160666620D01*
X320075741Y-160666620D02*
X319914117Y-160828245D01*
X319914117Y-160828245D02*
X319833305Y-160855182D01*
X319833305Y-160855182D02*
X319779430Y-160855182D01*
X318486435Y-156098431D02*
X318405623Y-156125368D01*
X318405623Y-156125368D02*
X318324811Y-156206180D01*
X318324811Y-156206180D02*
X318270936Y-156313930D01*
X318270936Y-156313930D02*
X318270936Y-156421680D01*
X318270936Y-156421680D02*
X318297873Y-156502492D01*
X318297873Y-156502492D02*
X318378685Y-156637179D01*
X318378685Y-156637179D02*
X318459498Y-156717991D01*
X318459498Y-156717991D02*
X318594185Y-156798803D01*
X318594185Y-156798803D02*
X318674997Y-156825741D01*
X318674997Y-156825741D02*
X318782746Y-156825741D01*
X318782746Y-156825741D02*
X318890496Y-156771866D01*
X318890496Y-156771866D02*
X318944371Y-156717991D01*
X318944371Y-156717991D02*
X318998246Y-156610241D01*
X318998246Y-156610241D02*
X318998246Y-156556367D01*
X318998246Y-156556367D02*
X318809684Y-156367805D01*
X318809684Y-156367805D02*
X318701934Y-156475554D01*
X319294557Y-156367805D02*
X318728872Y-155802119D01*
X318728872Y-155802119D02*
X319617806Y-156044556D01*
X319617806Y-156044556D02*
X319052120Y-155478871D01*
X319887180Y-155775182D02*
X319321494Y-155209497D01*
X319321494Y-155209497D02*
X319456181Y-155074810D01*
X319456181Y-155074810D02*
X319563931Y-155020935D01*
X319563931Y-155020935D02*
X319671680Y-155020935D01*
X319671680Y-155020935D02*
X319752493Y-155047872D01*
X319752493Y-155047872D02*
X319887180Y-155128685D01*
X319887180Y-155128685D02*
X319967992Y-155209497D01*
X319967992Y-155209497D02*
X320048804Y-155344184D01*
X320048804Y-155344184D02*
X320075741Y-155424996D01*
X320075741Y-155424996D02*
X320075741Y-155532746D01*
X320075741Y-155532746D02*
X320021867Y-155640495D01*
X320021867Y-155640495D02*
X319887180Y-155775182D01*
X344086435Y-156098431D02*
X344005623Y-156125368D01*
X344005623Y-156125368D02*
X343924811Y-156206180D01*
X343924811Y-156206180D02*
X343870936Y-156313930D01*
X343870936Y-156313930D02*
X343870936Y-156421680D01*
X343870936Y-156421680D02*
X343897873Y-156502492D01*
X343897873Y-156502492D02*
X343978685Y-156637179D01*
X343978685Y-156637179D02*
X344059498Y-156717991D01*
X344059498Y-156717991D02*
X344194185Y-156798803D01*
X344194185Y-156798803D02*
X344274997Y-156825741D01*
X344274997Y-156825741D02*
X344382746Y-156825741D01*
X344382746Y-156825741D02*
X344490496Y-156771866D01*
X344490496Y-156771866D02*
X344544371Y-156717991D01*
X344544371Y-156717991D02*
X344598246Y-156610241D01*
X344598246Y-156610241D02*
X344598246Y-156556367D01*
X344598246Y-156556367D02*
X344409684Y-156367805D01*
X344409684Y-156367805D02*
X344301934Y-156475554D01*
X344894557Y-156367805D02*
X344328872Y-155802119D01*
X344328872Y-155802119D02*
X345217806Y-156044556D01*
X345217806Y-156044556D02*
X344652120Y-155478871D01*
X345487180Y-155775182D02*
X344921494Y-155209497D01*
X344921494Y-155209497D02*
X345056181Y-155074810D01*
X345056181Y-155074810D02*
X345163931Y-155020935D01*
X345163931Y-155020935D02*
X345271680Y-155020935D01*
X345271680Y-155020935D02*
X345352493Y-155047872D01*
X345352493Y-155047872D02*
X345487180Y-155128685D01*
X345487180Y-155128685D02*
X345567992Y-155209497D01*
X345567992Y-155209497D02*
X345648804Y-155344184D01*
X345648804Y-155344184D02*
X345675741Y-155424996D01*
X345675741Y-155424996D02*
X345675741Y-155532746D01*
X345675741Y-155532746D02*
X345621867Y-155640495D01*
X345621867Y-155640495D02*
X345487180Y-155775182D01*
X344097998Y-191900868D02*
X344017185Y-191927805D01*
X344017185Y-191927805D02*
X343936373Y-192008618D01*
X343936373Y-192008618D02*
X343882498Y-192116367D01*
X343882498Y-192116367D02*
X343882498Y-192224117D01*
X343882498Y-192224117D02*
X343909436Y-192304929D01*
X343909436Y-192304929D02*
X343990248Y-192439616D01*
X343990248Y-192439616D02*
X344071060Y-192520428D01*
X344071060Y-192520428D02*
X344205747Y-192601241D01*
X344205747Y-192601241D02*
X344286560Y-192628178D01*
X344286560Y-192628178D02*
X344394309Y-192628178D01*
X344394309Y-192628178D02*
X344502059Y-192574303D01*
X344502059Y-192574303D02*
X344555934Y-192520428D01*
X344555934Y-192520428D02*
X344609808Y-192412679D01*
X344609808Y-192412679D02*
X344609808Y-192358804D01*
X344609808Y-192358804D02*
X344421247Y-192170242D01*
X344421247Y-192170242D02*
X344313497Y-192277992D01*
X344906120Y-192170242D02*
X344340434Y-191604557D01*
X344340434Y-191604557D02*
X344555934Y-191389057D01*
X344555934Y-191389057D02*
X344636746Y-191362120D01*
X344636746Y-191362120D02*
X344690621Y-191362120D01*
X344690621Y-191362120D02*
X344771433Y-191389057D01*
X344771433Y-191389057D02*
X344852245Y-191469870D01*
X344852245Y-191469870D02*
X344879182Y-191550682D01*
X344879182Y-191550682D02*
X344879182Y-191604557D01*
X344879182Y-191604557D02*
X344852245Y-191685369D01*
X344852245Y-191685369D02*
X344636746Y-191900868D01*
X345768117Y-191308245D02*
X345444868Y-191631494D01*
X345606492Y-191469870D02*
X345040807Y-190904184D01*
X345040807Y-190904184D02*
X345067744Y-191038871D01*
X345067744Y-191038871D02*
X345067744Y-191146621D01*
X345067744Y-191146621D02*
X345040807Y-191227433D01*
X345768117Y-190661747D02*
X345687305Y-190688685D01*
X345687305Y-190688685D02*
X345633430Y-190688685D01*
X345633430Y-190688685D02*
X345552618Y-190661747D01*
X345552618Y-190661747D02*
X345525680Y-190634810D01*
X345525680Y-190634810D02*
X345498743Y-190553998D01*
X345498743Y-190553998D02*
X345498743Y-190500123D01*
X345498743Y-190500123D02*
X345525680Y-190419311D01*
X345525680Y-190419311D02*
X345633430Y-190311561D01*
X345633430Y-190311561D02*
X345714242Y-190284624D01*
X345714242Y-190284624D02*
X345768117Y-190284624D01*
X345768117Y-190284624D02*
X345848929Y-190311561D01*
X345848929Y-190311561D02*
X345875866Y-190338499D01*
X345875866Y-190338499D02*
X345902804Y-190419311D01*
X345902804Y-190419311D02*
X345902804Y-190473186D01*
X345902804Y-190473186D02*
X345875866Y-190553998D01*
X345875866Y-190553998D02*
X345768117Y-190661747D01*
X345768117Y-190661747D02*
X345741179Y-190742560D01*
X345741179Y-190742560D02*
X345741179Y-190796434D01*
X345741179Y-190796434D02*
X345768117Y-190877247D01*
X345768117Y-190877247D02*
X345875866Y-190984996D01*
X345875866Y-190984996D02*
X345956679Y-191011934D01*
X345956679Y-191011934D02*
X346010553Y-191011934D01*
X346010553Y-191011934D02*
X346091366Y-190984996D01*
X346091366Y-190984996D02*
X346199115Y-190877247D01*
X346199115Y-190877247D02*
X346226053Y-190796434D01*
X346226053Y-190796434D02*
X346226053Y-190742560D01*
X346226053Y-190742560D02*
X346199115Y-190661747D01*
X346199115Y-190661747D02*
X346091366Y-190553998D01*
X346091366Y-190553998D02*
X346010553Y-190527060D01*
X346010553Y-190527060D02*
X345956679Y-190527060D01*
X345956679Y-190527060D02*
X345875866Y-190553998D01*
X318486435Y-194198431D02*
X318405623Y-194225368D01*
X318405623Y-194225368D02*
X318324811Y-194306180D01*
X318324811Y-194306180D02*
X318270936Y-194413930D01*
X318270936Y-194413930D02*
X318270936Y-194521680D01*
X318270936Y-194521680D02*
X318297873Y-194602492D01*
X318297873Y-194602492D02*
X318378685Y-194737179D01*
X318378685Y-194737179D02*
X318459498Y-194817991D01*
X318459498Y-194817991D02*
X318594185Y-194898803D01*
X318594185Y-194898803D02*
X318674997Y-194925741D01*
X318674997Y-194925741D02*
X318782746Y-194925741D01*
X318782746Y-194925741D02*
X318890496Y-194871866D01*
X318890496Y-194871866D02*
X318944371Y-194817991D01*
X318944371Y-194817991D02*
X318998246Y-194710241D01*
X318998246Y-194710241D02*
X318998246Y-194656367D01*
X318998246Y-194656367D02*
X318809684Y-194467805D01*
X318809684Y-194467805D02*
X318701934Y-194575554D01*
X319294557Y-194467805D02*
X318728872Y-193902119D01*
X318728872Y-193902119D02*
X319617806Y-194144556D01*
X319617806Y-194144556D02*
X319052120Y-193578871D01*
X319887180Y-193875182D02*
X319321494Y-193309497D01*
X319321494Y-193309497D02*
X319456181Y-193174810D01*
X319456181Y-193174810D02*
X319563931Y-193120935D01*
X319563931Y-193120935D02*
X319671680Y-193120935D01*
X319671680Y-193120935D02*
X319752493Y-193147872D01*
X319752493Y-193147872D02*
X319887180Y-193228685D01*
X319887180Y-193228685D02*
X319967992Y-193309497D01*
X319967992Y-193309497D02*
X320048804Y-193444184D01*
X320048804Y-193444184D02*
X320075741Y-193524996D01*
X320075741Y-193524996D02*
X320075741Y-193632746D01*
X320075741Y-193632746D02*
X320021867Y-193740495D01*
X320021867Y-193740495D02*
X319887180Y-193875182D01*
X318513372Y-163691494D02*
X318432560Y-163718431D01*
X318432560Y-163718431D02*
X318351748Y-163799243D01*
X318351748Y-163799243D02*
X318297873Y-163906993D01*
X318297873Y-163906993D02*
X318297873Y-164014742D01*
X318297873Y-164014742D02*
X318324810Y-164095555D01*
X318324810Y-164095555D02*
X318405623Y-164230242D01*
X318405623Y-164230242D02*
X318486435Y-164311054D01*
X318486435Y-164311054D02*
X318621122Y-164391866D01*
X318621122Y-164391866D02*
X318701934Y-164418803D01*
X318701934Y-164418803D02*
X318809684Y-164418803D01*
X318809684Y-164418803D02*
X318917433Y-164364929D01*
X318917433Y-164364929D02*
X318971308Y-164311054D01*
X318971308Y-164311054D02*
X319025183Y-164203304D01*
X319025183Y-164203304D02*
X319025183Y-164149429D01*
X319025183Y-164149429D02*
X318836621Y-163960868D01*
X318836621Y-163960868D02*
X318728871Y-164068617D01*
X319321494Y-163960868D02*
X318755809Y-163395182D01*
X318755809Y-163395182D02*
X318971308Y-163179683D01*
X318971308Y-163179683D02*
X319052120Y-163152746D01*
X319052120Y-163152746D02*
X319105995Y-163152746D01*
X319105995Y-163152746D02*
X319186807Y-163179683D01*
X319186807Y-163179683D02*
X319267619Y-163260495D01*
X319267619Y-163260495D02*
X319294557Y-163341307D01*
X319294557Y-163341307D02*
X319294557Y-163395182D01*
X319294557Y-163395182D02*
X319267619Y-163475994D01*
X319267619Y-163475994D02*
X319052120Y-163691494D01*
X319752493Y-162775622D02*
X320129616Y-163152746D01*
X319402306Y-162694810D02*
X319671680Y-163233558D01*
X319671680Y-163233558D02*
X320021867Y-162883372D01*
X344097998Y-186820868D02*
X344017185Y-186847805D01*
X344017185Y-186847805D02*
X343936373Y-186928618D01*
X343936373Y-186928618D02*
X343882498Y-187036367D01*
X343882498Y-187036367D02*
X343882498Y-187144117D01*
X343882498Y-187144117D02*
X343909436Y-187224929D01*
X343909436Y-187224929D02*
X343990248Y-187359616D01*
X343990248Y-187359616D02*
X344071060Y-187440428D01*
X344071060Y-187440428D02*
X344205747Y-187521241D01*
X344205747Y-187521241D02*
X344286560Y-187548178D01*
X344286560Y-187548178D02*
X344394309Y-187548178D01*
X344394309Y-187548178D02*
X344502059Y-187494303D01*
X344502059Y-187494303D02*
X344555934Y-187440428D01*
X344555934Y-187440428D02*
X344609808Y-187332679D01*
X344609808Y-187332679D02*
X344609808Y-187278804D01*
X344609808Y-187278804D02*
X344421247Y-187090242D01*
X344421247Y-187090242D02*
X344313497Y-187197992D01*
X344906120Y-187090242D02*
X344340434Y-186524557D01*
X344340434Y-186524557D02*
X344555934Y-186309057D01*
X344555934Y-186309057D02*
X344636746Y-186282120D01*
X344636746Y-186282120D02*
X344690621Y-186282120D01*
X344690621Y-186282120D02*
X344771433Y-186309057D01*
X344771433Y-186309057D02*
X344852245Y-186389870D01*
X344852245Y-186389870D02*
X344879182Y-186470682D01*
X344879182Y-186470682D02*
X344879182Y-186524557D01*
X344879182Y-186524557D02*
X344852245Y-186605369D01*
X344852245Y-186605369D02*
X344636746Y-186820868D01*
X344933057Y-186039683D02*
X344933057Y-185985809D01*
X344933057Y-185985809D02*
X344959995Y-185904996D01*
X344959995Y-185904996D02*
X345094682Y-185770309D01*
X345094682Y-185770309D02*
X345175494Y-185743372D01*
X345175494Y-185743372D02*
X345229369Y-185743372D01*
X345229369Y-185743372D02*
X345310181Y-185770309D01*
X345310181Y-185770309D02*
X345364056Y-185824184D01*
X345364056Y-185824184D02*
X345417930Y-185931934D01*
X345417930Y-185931934D02*
X345417930Y-186578431D01*
X345417930Y-186578431D02*
X345768117Y-186228245D01*
X345552618Y-185312373D02*
X345606492Y-185258499D01*
X345606492Y-185258499D02*
X345687305Y-185231561D01*
X345687305Y-185231561D02*
X345741179Y-185231561D01*
X345741179Y-185231561D02*
X345821992Y-185258499D01*
X345821992Y-185258499D02*
X345956679Y-185339311D01*
X345956679Y-185339311D02*
X346091366Y-185473998D01*
X346091366Y-185473998D02*
X346172178Y-185608685D01*
X346172178Y-185608685D02*
X346199115Y-185689497D01*
X346199115Y-185689497D02*
X346199115Y-185743372D01*
X346199115Y-185743372D02*
X346172178Y-185824184D01*
X346172178Y-185824184D02*
X346118303Y-185878059D01*
X346118303Y-185878059D02*
X346037491Y-185904996D01*
X346037491Y-185904996D02*
X345983616Y-185904996D01*
X345983616Y-185904996D02*
X345902804Y-185878059D01*
X345902804Y-185878059D02*
X345768117Y-185797247D01*
X345768117Y-185797247D02*
X345633430Y-185662560D01*
X345633430Y-185662560D02*
X345552618Y-185527873D01*
X345552618Y-185527873D02*
X345525680Y-185447060D01*
X345525680Y-185447060D02*
X345525680Y-185393186D01*
X345525680Y-185393186D02*
X345552618Y-185312373D01*
X318486435Y-181498431D02*
X318405623Y-181525368D01*
X318405623Y-181525368D02*
X318324811Y-181606180D01*
X318324811Y-181606180D02*
X318270936Y-181713930D01*
X318270936Y-181713930D02*
X318270936Y-181821680D01*
X318270936Y-181821680D02*
X318297873Y-181902492D01*
X318297873Y-181902492D02*
X318378685Y-182037179D01*
X318378685Y-182037179D02*
X318459498Y-182117991D01*
X318459498Y-182117991D02*
X318594185Y-182198803D01*
X318594185Y-182198803D02*
X318674997Y-182225741D01*
X318674997Y-182225741D02*
X318782746Y-182225741D01*
X318782746Y-182225741D02*
X318890496Y-182171866D01*
X318890496Y-182171866D02*
X318944371Y-182117991D01*
X318944371Y-182117991D02*
X318998246Y-182010241D01*
X318998246Y-182010241D02*
X318998246Y-181956367D01*
X318998246Y-181956367D02*
X318809684Y-181767805D01*
X318809684Y-181767805D02*
X318701934Y-181875554D01*
X319294557Y-181767805D02*
X318728872Y-181202119D01*
X318728872Y-181202119D02*
X319617806Y-181444556D01*
X319617806Y-181444556D02*
X319052120Y-180878871D01*
X319887180Y-181175182D02*
X319321494Y-180609497D01*
X319321494Y-180609497D02*
X319456181Y-180474810D01*
X319456181Y-180474810D02*
X319563931Y-180420935D01*
X319563931Y-180420935D02*
X319671680Y-180420935D01*
X319671680Y-180420935D02*
X319752493Y-180447872D01*
X319752493Y-180447872D02*
X319887180Y-180528685D01*
X319887180Y-180528685D02*
X319967992Y-180609497D01*
X319967992Y-180609497D02*
X320048804Y-180744184D01*
X320048804Y-180744184D02*
X320075741Y-180824996D01*
X320075741Y-180824996D02*
X320075741Y-180932746D01*
X320075741Y-180932746D02*
X320021867Y-181040495D01*
X320021867Y-181040495D02*
X319887180Y-181175182D01*
X344097998Y-189360868D02*
X344017185Y-189387805D01*
X344017185Y-189387805D02*
X343936373Y-189468618D01*
X343936373Y-189468618D02*
X343882498Y-189576367D01*
X343882498Y-189576367D02*
X343882498Y-189684117D01*
X343882498Y-189684117D02*
X343909436Y-189764929D01*
X343909436Y-189764929D02*
X343990248Y-189899616D01*
X343990248Y-189899616D02*
X344071060Y-189980428D01*
X344071060Y-189980428D02*
X344205747Y-190061241D01*
X344205747Y-190061241D02*
X344286560Y-190088178D01*
X344286560Y-190088178D02*
X344394309Y-190088178D01*
X344394309Y-190088178D02*
X344502059Y-190034303D01*
X344502059Y-190034303D02*
X344555934Y-189980428D01*
X344555934Y-189980428D02*
X344609808Y-189872679D01*
X344609808Y-189872679D02*
X344609808Y-189818804D01*
X344609808Y-189818804D02*
X344421247Y-189630242D01*
X344421247Y-189630242D02*
X344313497Y-189737992D01*
X344906120Y-189630242D02*
X344340434Y-189064557D01*
X344340434Y-189064557D02*
X344555934Y-188849057D01*
X344555934Y-188849057D02*
X344636746Y-188822120D01*
X344636746Y-188822120D02*
X344690621Y-188822120D01*
X344690621Y-188822120D02*
X344771433Y-188849057D01*
X344771433Y-188849057D02*
X344852245Y-188929870D01*
X344852245Y-188929870D02*
X344879182Y-189010682D01*
X344879182Y-189010682D02*
X344879182Y-189064557D01*
X344879182Y-189064557D02*
X344852245Y-189145369D01*
X344852245Y-189145369D02*
X344636746Y-189360868D01*
X345768117Y-188768245D02*
X345444868Y-189091494D01*
X345606492Y-188929870D02*
X345040807Y-188364184D01*
X345040807Y-188364184D02*
X345067744Y-188498871D01*
X345067744Y-188498871D02*
X345067744Y-188606621D01*
X345067744Y-188606621D02*
X345040807Y-188687433D01*
X346037491Y-188498871D02*
X346145240Y-188391121D01*
X346145240Y-188391121D02*
X346172178Y-188310309D01*
X346172178Y-188310309D02*
X346172178Y-188256434D01*
X346172178Y-188256434D02*
X346145240Y-188121747D01*
X346145240Y-188121747D02*
X346064428Y-187987060D01*
X346064428Y-187987060D02*
X345848929Y-187771561D01*
X345848929Y-187771561D02*
X345768117Y-187744624D01*
X345768117Y-187744624D02*
X345714242Y-187744624D01*
X345714242Y-187744624D02*
X345633430Y-187771561D01*
X345633430Y-187771561D02*
X345525680Y-187879311D01*
X345525680Y-187879311D02*
X345498743Y-187960123D01*
X345498743Y-187960123D02*
X345498743Y-188013998D01*
X345498743Y-188013998D02*
X345525680Y-188094810D01*
X345525680Y-188094810D02*
X345660367Y-188229497D01*
X345660367Y-188229497D02*
X345741179Y-188256434D01*
X345741179Y-188256434D02*
X345795054Y-188256434D01*
X345795054Y-188256434D02*
X345875866Y-188229497D01*
X345875866Y-188229497D02*
X345983616Y-188121747D01*
X345983616Y-188121747D02*
X346010553Y-188040935D01*
X346010553Y-188040935D02*
X346010553Y-187987060D01*
X346010553Y-187987060D02*
X345983616Y-187906248D01*
D13*
%TO.C,REF\u002A\u002A*%
X350170000Y-211420000D02*
X351500000Y-211420000D01*
X350170000Y-212750000D02*
X350170000Y-211420000D01*
X350170000Y-214020000D02*
X350170000Y-226780000D01*
X350170000Y-214020000D02*
X352830000Y-214020000D01*
X350170000Y-226780000D02*
X352830000Y-226780000D01*
X352830000Y-214020000D02*
X352830000Y-226780000D01*
D14*
X366000000Y-162000000D02*
X365000000Y-162000000D01*
X372000000Y-162000000D02*
X373000000Y-162000000D01*
X366000000Y-161000000D02*
X372000000Y-161000000D01*
X372000000Y-163000000D01*
X366000000Y-163000000D01*
X366000000Y-161000000D01*
D13*
X366970000Y-185670000D02*
X366970000Y-188330000D01*
X379730000Y-185670000D02*
X366970000Y-185670000D01*
X379730000Y-185670000D02*
X379730000Y-188330000D01*
X379730000Y-188330000D02*
X366970000Y-188330000D01*
X381000000Y-185670000D02*
X382330000Y-185670000D01*
X382330000Y-185670000D02*
X382330000Y-187000000D01*
X358120000Y-158500000D02*
G75*
G02*
X352880000Y-158500000I-2620000J0D01*
G01*
X352880000Y-158500000D02*
G75*
G02*
X358120000Y-158500000I2620000J0D01*
G01*
D14*
X366000000Y-172500000D02*
X365000000Y-172500000D01*
X372000000Y-172500000D02*
X373000000Y-172500000D01*
X366000000Y-171500000D02*
X372000000Y-171500000D01*
X372000000Y-173500000D01*
X366000000Y-173500000D01*
X366000000Y-171500000D01*
D15*
X380319999Y-156260020D02*
X380319999Y-176579980D01*
X380319999Y-176579980D02*
X389209999Y-176579980D01*
X385405000Y-178357980D02*
X386675000Y-178357980D01*
X386040000Y-176833980D02*
X385405000Y-178357980D01*
X386675000Y-178357980D02*
X386040000Y-176833980D01*
X389209999Y-156260020D02*
X380319999Y-156260020D01*
X389209999Y-176579980D02*
X389209999Y-156260020D01*
X313000000Y-220800000D02*
X313000000Y-231800000D01*
X313000000Y-220800000D02*
X325000000Y-220800000D01*
X313000000Y-231800000D02*
X314500000Y-231800000D01*
X314500000Y-231800000D02*
X314500000Y-232700000D01*
X323500000Y-231800000D02*
X325000000Y-231800000D01*
X323500000Y-232700000D02*
X323500000Y-231800000D01*
X325000000Y-220800000D02*
X325000000Y-231800000D01*
D16*
X312670000Y-228300000D02*
G75*
G02*
X312330000Y-228300000I-170000J0D01*
G01*
X312330000Y-228300000D02*
G75*
G02*
X312670000Y-228300000I170000J0D01*
G01*
D14*
X366000000Y-165500000D02*
X365000000Y-165500000D01*
X372000000Y-165500000D02*
X373000000Y-165500000D01*
X366000000Y-164500000D02*
X372000000Y-164500000D01*
X372000000Y-166500000D01*
X366000000Y-166500000D01*
X366000000Y-164500000D01*
X366000000Y-169000000D02*
X365000000Y-169000000D01*
X372000000Y-169000000D02*
X373000000Y-169000000D01*
X366000000Y-168000000D02*
X372000000Y-168000000D01*
X372000000Y-170000000D01*
X366000000Y-170000000D01*
X366000000Y-168000000D01*
D17*
X349003000Y-151588141D02*
X349003000Y-152411859D01*
X349003000Y-153652000D02*
X350657000Y-153652000D01*
X350657000Y-150348000D02*
X349003000Y-150348000D01*
X350657000Y-151386860D02*
X350657000Y-150348000D01*
X350657000Y-153652000D02*
X350657000Y-152613140D01*
X348707000Y-149205000D02*
G75*
G02*
X348453000Y-149205000I-127000J0D01*
G01*
X348453000Y-149205000D02*
G75*
G02*
X348707000Y-149205000I127000J0D01*
G01*
D14*
X366000000Y-175900000D02*
X365000000Y-175900000D01*
X372000000Y-175900000D02*
X373000000Y-175900000D01*
X366000000Y-174900000D02*
X372000000Y-174900000D01*
X372000000Y-176900000D01*
X366000000Y-176900000D01*
X366000000Y-174900000D01*
D13*
X321500000Y-149500000D02*
X321500000Y-149800000D01*
X321500000Y-149500000D02*
X342500000Y-149500000D01*
X321500000Y-151900000D02*
X321500000Y-152300000D01*
X321500000Y-152167000D02*
X324507000Y-152167000D01*
X321500000Y-154500000D02*
X321500000Y-154900000D01*
X321500000Y-157000000D02*
X321500000Y-157400000D01*
X321500000Y-159600000D02*
X321500000Y-160000000D01*
X321500000Y-162100000D02*
X321500000Y-162500000D01*
X321500000Y-164600000D02*
X321500000Y-165000000D01*
X321500000Y-167200000D02*
X321500000Y-167600000D01*
X321500000Y-169700000D02*
X321500000Y-170100000D01*
X321500000Y-172300000D02*
X321500000Y-172700000D01*
X321500000Y-174800000D02*
X321500000Y-175200000D01*
X321500000Y-177300000D02*
X321500000Y-177700000D01*
X321500000Y-179900000D02*
X321500000Y-180300000D01*
X321500000Y-182400000D02*
X321500000Y-182800000D01*
X321500000Y-185000000D02*
X321500000Y-185400000D01*
X321500000Y-187500000D02*
X321500000Y-187900000D01*
X321500000Y-190100000D02*
X321500000Y-190500000D01*
X321500000Y-192600000D02*
X321500000Y-193000000D01*
X321500000Y-195100000D02*
X321500000Y-195500000D01*
X321500000Y-197700000D02*
X321500000Y-198100000D01*
X324507000Y-152167000D02*
X324507000Y-149500000D01*
X328300000Y-200500000D02*
X321500000Y-200500000D01*
X330500000Y-200500000D02*
X330900000Y-200500000D01*
X333100000Y-200500000D02*
X333500000Y-200500000D01*
X342500000Y-149500000D02*
X342500000Y-149800000D01*
X342500000Y-151900000D02*
X342500000Y-152300000D01*
X342500000Y-154500000D02*
X342500000Y-154900000D01*
X342500000Y-157000000D02*
X342500000Y-157400000D01*
X342500000Y-159600000D02*
X342500000Y-160000000D01*
X342500000Y-162100000D02*
X342500000Y-162500000D01*
X342500000Y-164600000D02*
X342500000Y-165000000D01*
X342500000Y-167200000D02*
X342500000Y-167600000D01*
X342500000Y-169700000D02*
X342500000Y-170100000D01*
X342500000Y-172300000D02*
X342500000Y-172700000D01*
X342500000Y-174800000D02*
X342500000Y-175200000D01*
X342500000Y-177300000D02*
X342500000Y-177700000D01*
X342500000Y-179900000D02*
X342500000Y-180300000D01*
X342500000Y-182400000D02*
X342500000Y-182800000D01*
X342500000Y-185000000D02*
X342500000Y-185400000D01*
X342500000Y-187500000D02*
X342500000Y-187900000D01*
X342500000Y-190100000D02*
X342500000Y-190500000D01*
X342500000Y-192600000D02*
X342500000Y-193000000D01*
X342500000Y-195100000D02*
X342500000Y-195500000D01*
X342500000Y-197700000D02*
X342500000Y-198100000D01*
X342500000Y-200500000D02*
X335700000Y-200500000D01*
%TD*%
M02*
